ISO-10303-21;
HEADER;
FILE_DESCRIPTION (( 'STEP AP214' ),
    '1' );
FILE_NAME ('C0805C100J2GAC7800.STEP',
    '2023-12-28T04:36:22',
    ( '' ),
    ( '' ),
    'SwSTEP 2.0',
    'SolidWorks 2021',
    '' );
FILE_SCHEMA (( 'AUTOMOTIVE_DESIGN' ));
ENDSEC;

DATA;
#1 = EDGE_CURVE ( 'NONE', #1067, #248, #613, .T. ) ;
#2 = DIRECTION ( 'NONE',  ( 3.469446951953614682E-16, -0.000000000000000000, -1.000000000000000000 ) ) ;
#3 = VERTEX_POINT ( 'NONE', #521 ) ;
#4 = CARTESIAN_POINT ( 'NONE',  ( -0.4999999999999996669, 0.8633333333333333970, -0.5749999999999997335 ) ) ;
#5 = ORIENTED_EDGE ( 'NONE', *, *, #1248, .F. ) ;
#6 = DIRECTION ( 'NONE',  ( 1.000000000000000000, -0.000000000000000000, -1.734723475976807341E-16 ) ) ;
#7 = ADVANCED_FACE ( 'NONE', ( #120 ), #47, .F. ) ;
#8 = VERTEX_POINT ( 'NONE', #125 ) ;
#9 = ORIENTED_EDGE ( 'NONE', *, *, #789, .F. ) ;
#10 = CARTESIAN_POINT ( 'NONE',  ( -0.9499999999999999556, 0.8299999999999999600, -0.5749999999999998446 ) ) ;
#11 = DIRECTION ( 'NONE',  ( 1.000000000000000000, 0.000000000000000000, 0.000000000000000000 ) ) ;
#12 = ORIENTED_EDGE ( 'NONE', *, *, #964, .T. ) ;
#13 = EDGE_LOOP ( 'NONE', ( #940, #124, #295, #1107 ) ) ;
#14 = EDGE_CURVE ( 'NONE', #305, #791, #40, .T. ) ;
#15 = CYLINDRICAL_SURFACE ( 'NONE', #438, 0.03333333333333334675 ) ;
#16 = CIRCLE ( 'NONE', #948, 0.05000000000000002359 ) ;
#17 = CIRCLE ( 'NONE', #741, 0.03333333333333334675 ) ;
#18 = LINE ( 'NONE', #1220, #764 ) ;
#19 = ORIENTED_EDGE ( 'NONE', *, *, #245, .T. ) ;
#20 = ORIENTED_EDGE ( 'NONE', *, *, #937, .T. ) ;
#21 = CARTESIAN_POINT ( 'NONE',  ( 500000.0000000000582, 0.05000000000000002359, 0.5749999999566316466 ) ) ;
#22 = CARTESIAN_POINT ( 'NONE',  ( -0.9499999999999995115, 0.8800000000000000044, 0.6249999999999996669 ) ) ;
#23 = ADVANCED_FACE ( 'NONE', ( #443 ), #832, .F. ) ;
#24 = CARTESIAN_POINT ( 'NONE',  ( -1.000000000000000000, 0.05000000000000002359, -0.6249999999999998890 ) ) ;
#25 = VERTEX_POINT ( 'NONE', #917 ) ;
#26 = DIRECTION ( 'NONE',  ( -8.673617379884037937E-17, 0.000000000000000000, -1.000000000000000000 ) ) ;
#27 = DIRECTION ( 'NONE',  ( -1.000000000000000000, 0.000000000000000000, 0.000000000000000000 ) ) ;
#28 = EDGE_CURVE ( 'NONE', #194, #581, #725, .T. ) ;
#29 = DIRECTION ( 'NONE',  ( 0.000000000000000000, 0.000000000000000000, -1.000000000000000000 ) ) ;
#30 = ORIENTED_EDGE ( 'NONE', *, *, #1081, .T. ) ;
#31 = DIRECTION ( 'NONE',  ( 1.000000000000000000, 0.000000000000000000, 0.000000000000000000 ) ) ;
#32 = PLANE ( 'NONE',  #765 ) ;
#33 = CARTESIAN_POINT ( 'NONE',  ( 0.9999999999999995559, 0.8800000000000000044, 0.6249999999999996669 ) ) ;
#34 = VECTOR ( 'NONE', #850, 1000.000000000000000 ) ;
#35 = AXIS2_PLACEMENT_3D ( 'NONE', #281, #680, #68 ) ;
#36 = ADVANCED_FACE ( 'NONE', ( #1025 ), #526, .T. ) ;
#37 = ORIENTED_EDGE ( 'NONE', *, *, #489, .F. ) ;
#38 = CIRCLE ( 'NONE', #314, 0.05000000000000002359 ) ;
#39 = AXIS2_PLACEMENT_3D ( 'NONE', #466, #86, #1251 ) ;
#40 = LINE ( 'NONE', #921, #74 ) ;
#41 = DIRECTION ( 'NONE',  ( 0.000000000000000000, 0.000000000000000000, -1.000000000000000000 ) ) ;
#42 = DIRECTION ( 'NONE',  ( -1.000000000000000000, 0.000000000000000000, 0.000000000000000000 ) ) ;
#43 = CARTESIAN_POINT ( 'NONE',  ( 0.000000000000000000, 0.8800000000000000044, 0.000000000000000000 ) ) ;
#44 = VERTEX_POINT ( 'NONE', #938 ) ;
#45 = LINE ( 'NONE', #1098, #802 ) ;
#46 = ADVANCED_FACE ( 'NONE', ( #427 ), #433, .T. ) ;
#47 = PLANE ( 'NONE',  #555 ) ;
#48 =( NAMED_UNIT ( * ) SI_UNIT ( $, .STERADIAN. ) SOLID_ANGLE_UNIT ( ) );
#49 = FACE_OUTER_BOUND ( 'NONE', #479, .T. ) ;
#50 = ORIENTED_EDGE ( 'NONE', *, *, #981, .T. ) ;
#51 = DIRECTION ( 'NONE',  ( -0.000000000000000000, 1.000000000000000000, -0.000000000000000000 ) ) ;
#52 = EDGE_CURVE ( 'NONE', #44, #520, #247, .T. ) ;
#53 = CARTESIAN_POINT ( 'NONE',  ( 0.9499999999999999556, 0.05000000000000000278, -0.5749999999999998446 ) ) ;
#54 = CIRCLE ( 'NONE', #222, 0.05000000000000002359 ) ;
#55 = VECTOR ( 'NONE', #221, 1000.000000000000000 ) ;
#56 = AXIS2_PLACEMENT_3D ( 'NONE', #826, #837, #621 ) ;
#57 = ORIENTED_EDGE ( 'NONE', *, *, #338, .T. ) ;
#58 = CLOSED_SHELL ( 'NONE', ( #770, #23, #662, #1044, #211, #476, #7, #670, #358, #1112 ) ) ;
#59 = LINE ( 'NONE', #345, #1260 ) ;
#60 = DIRECTION ( 'NONE',  ( 3.469446951953614682E-16, -0.000000000000000000, -1.000000000000000000 ) ) ;
#61 = ADVANCED_FACE ( 'NONE', ( #344 ), #625, .T. ) ;
#62 = CARTESIAN_POINT ( 'NONE',  ( -0.9499999999999997335, 0.8299999999999999600, 3.295974604355932986E-16 ) ) ;
#63 = ORIENTED_EDGE ( 'NONE', *, *, #96, .F. ) ;
#64 = LINE ( 'NONE', #983, #373 ) ;
#65 = DIRECTION ( 'NONE',  ( 0.000000000000000000, 0.000000000000000000, -1.000000000000000000 ) ) ;
#66 = ORIENTED_EDGE ( 'NONE', *, *, #1074, .T. ) ;
#67 = CARTESIAN_POINT ( 'NONE',  ( -1.000000000000000000, 0.8800000000000000044, -0.6249999999999998890 ) ) ;
#68 = DIRECTION ( 'NONE',  ( 0.000000000000000000, 0.000000000000000000, 1.000000000000000000 ) ) ;
#69 = DIRECTION ( 'NONE',  ( -1.000000000000000000, 0.000000000000000000, 3.469446951953615668E-16 ) ) ;
#70 = ADVANCED_FACE ( 'NONE', ( #540 ), #447, .T. ) ;
#71 = CIRCLE ( 'NONE', #1037, 0.05000000000000002359 ) ;
#72 = ORIENTED_EDGE ( 'NONE', *, *, #136, .T. ) ;
#73 = STYLED_ITEM ( 'NONE', ( #147 ), #543 ) ;
#74 = VECTOR ( 'NONE', #329, 1000.000000000000000 ) ;
#75 = LINE ( 'NONE', #663, #1096 ) ;
#76 = DIRECTION ( 'NONE',  ( 0.000000000000000000, 0.000000000000000000, 1.000000000000000000 ) ) ;
#77 = VECTOR ( 'NONE', #156, 1000.000000000000000 ) ;
#78 = FACE_OUTER_BOUND ( 'NONE', #1103, .T. ) ;
#79 = VERTEX_POINT ( 'NONE', #419 ) ;
#80 = EDGE_CURVE ( 'NONE', #1179, #579, #1095, .T. ) ;
#81 = CARTESIAN_POINT ( 'NONE',  ( -0.4999999999999997780, 0.8299999999999999600, -0.6249999999999998890 ) ) ;
#82 = DIRECTION ( 'NONE',  ( 0.000000000000000000, 1.000000000000000000, 0.000000000000000000 ) ) ;
#83 = CARTESIAN_POINT ( 'NONE',  ( -0.4999999999999995559, 0.000000000000000000, 0.5749999999999997335 ) ) ;
#84 = VERTEX_POINT ( 'NONE', #914 ) ;
#85 = ORIENTED_EDGE ( 'NONE', *, *, #312, .F. ) ;
#86 = DIRECTION ( 'NONE',  ( -1.000000000000000000, 0.000000000000000000, 0.000000000000000000 ) ) ;
#87 = CARTESIAN_POINT ( 'NONE',  ( -0.9499999999999999556, 0.8299999999999999600, -0.5749999999999998446 ) ) ;
#88 = ORIENTED_EDGE ( 'NONE', *, *, #471, .F. ) ;
#89 = AXIS2_PLACEMENT_3D ( 'NONE', #1077, #185, #325 ) ;
#90 = DIRECTION ( 'NONE',  ( 0.000000000000000000, -0.000000000000000000, 1.000000000000000000 ) ) ;
#91 = AXIS2_PLACEMENT_3D ( 'NONE', #978, #484, #693 ) ;
#92 = CYLINDRICAL_SURFACE ( 'NONE', #1094, 0.05000000000000002359 ) ;
#93 = AXIS2_PLACEMENT_3D ( 'NONE', #87, #1181, #297 ) ;
#94 = ORIENTED_EDGE ( 'NONE', *, *, #245, .F. ) ;
#95 = AXIS2_PLACEMENT_3D ( 'NONE', #828, #945, #361 ) ;
#96 = EDGE_CURVE ( 'NONE', #206, #1185, #468, .T. ) ;
#97 = PRESENTATION_LAYER_ASSIGNMENT (  '', '', ( #204 ) ) ;
#98 = LINE ( 'NONE', #188, #553 ) ;
#99 = ORIENTED_EDGE ( 'NONE', *, *, #759, .T. ) ;
#100 = VERTEX_POINT ( 'NONE', #210 ) ;
#101 = DIRECTION ( 'NONE',  ( -1.000000000000000000, 0.000000000000000000, -0.000000000000000000 ) ) ;
#102 = CARTESIAN_POINT ( 'NONE',  ( 0.4999999999999995559, 0.05000000000000002359, 0.5749999999999996225 ) ) ;
#103 = EDGE_CURVE ( 'NONE', #896, #198, #907, .T. ) ;
#104 = DIRECTION ( 'NONE',  ( 1.000000000000000000, 0.000000000000000000, 0.000000000000000000 ) ) ;
#105 = VERTEX_POINT ( 'NONE', #1017 ) ;
#106 = CARTESIAN_POINT ( 'NONE',  ( 0.9499999999999999556, 0.8299999999999999600, -0.6249999999999998890 ) ) ;
#107 = FACE_OUTER_BOUND ( 'NONE', #821, .T. ) ;
#108 = ORIENTED_EDGE ( 'NONE', *, *, #1039, .F. ) ;
#109 =( LENGTH_UNIT ( ) NAMED_UNIT ( * ) SI_UNIT ( .MILLI., .METRE. ) );
#110 = CARTESIAN_POINT ( 'NONE',  ( -0.4999999999999997780, 0.05000000000000002359, -0.5749999999999998446 ) ) ;
#111 = ORIENTED_EDGE ( 'NONE', *, *, #675, .T. ) ;
#112 = ADVANCED_FACE ( 'NONE', ( #429 ), #655, .T. ) ;
#113 = DIRECTION ( 'NONE',  ( -1.000000000000000000, -0.000000000000000000, -0.000000000000000000 ) ) ;
#114 = CYLINDRICAL_SURFACE ( 'NONE', #1174, 0.05000000000000002359 ) ;
#115 = DIRECTION ( 'NONE',  ( 0.000000000000000000, 0.000000000000000000, -1.000000000000000000 ) ) ;
#116 = AXIS2_PLACEMENT_3D ( 'NONE', #977, #82, #483 ) ;
#117 = CARTESIAN_POINT ( 'NONE',  ( 0.4999999999999997780, 0.8800000000000000044, -0.6249999999999998890 ) ) ;
#118 = ORIENTED_EDGE ( 'NONE', *, *, #148, .F. ) ;
#119 = EDGE_CURVE ( 'NONE', #189, #1173, #1183, .T. ) ;
#120 = FACE_OUTER_BOUND ( 'NONE', #870, .T. ) ;
#121 = DIRECTION ( 'NONE',  ( -1.000000000000000000, -0.000000000000000000, 8.673617379884036705E-17 ) ) ;
#122 = LINE ( 'NONE', #327, #473 ) ;
#123 = MANIFOLD_SOLID_BREP ( 'Fillet1', #636 ) ;
#124 = ORIENTED_EDGE ( 'NONE', *, *, #14, .F. ) ;
#125 = CARTESIAN_POINT ( 'NONE',  ( 0.4999999999881765689, 0.01666666666666666644, -0.5749999999999996225 ) ) ;
#126 = LINE ( 'NONE', #1206, #246 ) ;
#127 = CARTESIAN_POINT ( 'NONE',  ( -0.4999999999999995559, 0.05000000000000002359, 0.5749999999999996225 ) ) ;
#128 = EDGE_CURVE ( 'NONE', #25, #1019, #262, .T. ) ;
#129 = CARTESIAN_POINT ( 'NONE',  ( 0.4999999999881765689, 0.05000000000000002359, 0.5749999999999997335 ) ) ;
#130 = CARTESIAN_POINT ( 'NONE',  ( -0.4999999999999995559, 0.8800000000000000044, 0.5749999999999997335 ) ) ;
#131 = MANIFOLD_SOLID_BREP ( 'Mirror2', #353 ) ;
#132 = ORIENTED_EDGE ( 'NONE', *, *, #155, .F. ) ;
#133 = ORIENTED_EDGE ( 'NONE', *, *, #382, .T. ) ;
#134 = DIRECTION ( 'NONE',  ( 0.000000000000000000, -1.000000000000000000, -0.000000000000000000 ) ) ;
#135 = AXIS2_PLACEMENT_3D ( 'NONE', #33, #437, #349 ) ;
#136 = EDGE_CURVE ( 'NONE', #1146, #290, #267, .T. ) ;
#137 = CIRCLE ( 'NONE', #1277, 0.05000000000000002359 ) ;
#138 = AXIS2_PLACEMENT_3D ( 'NONE', #440, #1106, #1210 ) ;
#139 = ORIENTED_EDGE ( 'NONE', *, *, #757, .T. ) ;
#140 = FACE_OUTER_BOUND ( 'NONE', #996, .T. ) ;
#141 = PRODUCT_DEFINITION_FORMATION_WITH_SPECIFIED_SOURCE ( 'ANY', '', #292, .NOT_KNOWN. ) ;
#142 = AXIS2_PLACEMENT_3D ( 'NONE', #1151, #274, #1054 ) ;
#143 = DIRECTION ( 'NONE',  ( 0.000000000000000000, 0.000000000000000000, -1.000000000000000000 ) ) ;
#144 = CARTESIAN_POINT ( 'NONE',  ( 0.9999999999999995559, 0.05000000000000002359, 0.5749999999999996225 ) ) ;
#145 = CARTESIAN_POINT ( 'NONE',  ( 1.000000000000000000, 0.05000000000000002359, -0.5749999999999998446 ) ) ;
#146 = EDGE_LOOP ( 'NONE', ( #20, #1080, #755, #1030 ) ) ;
#147 = PRESENTATION_STYLE_ASSIGNMENT (( #153 ) ) ;
#148 = EDGE_CURVE ( 'NONE', #347, #79, #1261, .T. ) ;
#149 = ORIENTED_EDGE ( 'NONE', *, *, #1091, .T. ) ;
#150 = CARTESIAN_POINT ( 'NONE',  ( -0.9499999999999999556, 0.8299999999999999600, -0.5749999999999998446 ) ) ;
#151 =( NAMED_UNIT ( * ) SI_UNIT ( $, .STERADIAN. ) SOLID_ANGLE_UNIT ( ) );
#152 = ORIENTED_EDGE ( 'NONE', *, *, #551, .F. ) ;
#153 = SURFACE_STYLE_USAGE ( .BOTH. , #1043 ) ;
#154 = ORIENTED_EDGE ( 'NONE', *, *, #190, .F. ) ;
#155 = EDGE_CURVE ( 'NONE', #44, #284, #435, .T. ) ;
#156 = DIRECTION ( 'NONE',  ( 0.000000000000000000, -1.000000000000000000, 0.000000000000000000 ) ) ;
#157 = DIRECTION ( 'NONE',  ( 0.000000000000000000, 0.000000000000000000, -1.000000000000000000 ) ) ;
#158 = VECTOR ( 'NONE', #701, 1000.000000000000000 ) ;
#159 = CARTESIAN_POINT ( 'NONE',  ( 0.9499999999999995115, 0.8800000000000000044, 0.5749999999999996225 ) ) ;
#160 = VECTOR ( 'NONE', #1029, 1000.000000000000000 ) ;
#161 = EDGE_LOOP ( 'NONE', ( #474, #99, #995, #1111 ) ) ;
#162 = COLOUR_RGB ( '',0.7921568627450980005, 0.8196078431372548767, 0.9333333333333333481 ) ;
#163 = ADVANCED_FACE ( 'NONE', ( #49 ), #922, .F. ) ;
#164 = PLANE ( 'NONE',  #990 ) ;
#165 = FILL_AREA_STYLE ('',( #1056 ) ) ;
#166 = VERTEX_POINT ( 'NONE', #853 ) ;
#167 = CARTESIAN_POINT ( 'NONE',  ( 0.000000000000000000, 0.000000000000000000, 0.000000000000000000 ) ) ;
#168 = LINE ( 'NONE', #385, #368 ) ;
#169 = DIRECTION ( 'NONE',  ( 0.000000000000000000, 0.000000000000000000, 1.000000000000000000 ) ) ;
#170 = ADVANCED_FACE ( 'NONE', ( #733 ), #943, .T. ) ;
#171 = ORIENTED_EDGE ( 'NONE', *, *, #620, .F. ) ;
#172 = PLANE ( 'NONE',  #1202 ) ;
#173 = DIRECTION ( 'NONE',  ( 0.000000000000000000, 0.000000000000000000, 1.000000000000000000 ) ) ;
#174 = UNCERTAINTY_MEASURE_WITH_UNIT (LENGTH_MEASURE( 1.000000000000000082E-05 ), #273, 'distance_accuracy_value', 'NONE');
#175 = EDGE_CURVE ( 'NONE', #44, #25, #646, .T. ) ;
#176 = AXIS2_PLACEMENT_3D ( 'NONE', #815, #1002, #936 ) ;
#177 = ORIENTED_EDGE ( 'NONE', *, *, #382, .F. ) ;
#178 = VECTOR ( 'NONE', #1102, 1000.000000000000000 ) ;
#179 = DIRECTION ( 'NONE',  ( -1.000000000000000000, 0.000000000000000000, 0.000000000000000000 ) ) ;
#180 = CARTESIAN_POINT ( 'NONE',  ( -0.4999999999999995559, 0.8299999999999999600, 0.6249999999999996669 ) ) ;
#181 = PRESENTATION_LAYER_ASSIGNMENT (  '', '', ( #637 ) ) ;
#182 = DIRECTION ( 'NONE',  ( -0.000000000000000000, -0.000000000000000000, -1.000000000000000000 ) ) ;
#183 = ORIENTED_EDGE ( 'NONE', *, *, #737, .F. ) ;
#184 = ORIENTED_EDGE ( 'NONE', *, *, #759, .F. ) ;
#185 = DIRECTION ( 'NONE',  ( 0.000000000000000000, 0.000000000000000000, 1.000000000000000000 ) ) ;
#186 = DIRECTION ( 'NONE',  ( 0.000000000000000000, 1.000000000000000000, 0.000000000000000000 ) ) ;
#187 = EDGE_LOOP ( 'NONE', ( #798, #401, #1242 ) ) ;
#188 = CARTESIAN_POINT ( 'NONE',  ( 0.4999999999881765689, 0.8633333333333333970, -0.5750000001301038832 ) ) ;
#189 = VERTEX_POINT ( 'NONE', #1133 ) ;
#190 = EDGE_CURVE ( 'NONE', #254, #1024, #1234, .T. ) ;
#191 = ORIENTED_EDGE ( 'NONE', *, *, #1186, .F. ) ;
#192 = LINE ( 'NONE', #714, #243 ) ;
#193 = CARTESIAN_POINT ( 'NONE',  ( 1.000000000000000000, 0.8299999999999999600, -0.5749999999999998446 ) ) ;
#194 = VERTEX_POINT ( 'NONE', #847 ) ;
#195 = DIRECTION ( 'NONE',  ( 1.000000000000000000, 0.000000000000000000, 0.000000000000000000 ) ) ;
#196 = ORIENTED_EDGE ( 'NONE', *, *, #52, .T. ) ;
#197 = AXIS2_PLACEMENT_3D ( 'NONE', #127, #627, #527 ) ;
#198 = VERTEX_POINT ( 'NONE', #1125 ) ;
#199 = SPHERICAL_SURFACE ( 'NONE', #635, 0.05000000000000000278 ) ;
#200 = VECTOR ( 'NONE', #515, 1000.000000000000000 ) ;
#201 = CARTESIAN_POINT ( 'NONE',  ( 1.000000000000000000, 0.8800000000000000044, -0.6249999999999998890 ) ) ;
#202 = EDGE_CURVE ( 'NONE', #360, #290, #864, .T. ) ;
#203 = AXIS2_PLACEMENT_3D ( 'NONE', #1005, #924, #316 ) ;
#204 = STYLED_ITEM ( 'NONE', ( #332 ), #123 ) ;
#205 = ORIENTED_EDGE ( 'NONE', *, *, #958, .T. ) ;
#206 = VERTEX_POINT ( 'NONE', #356 ) ;
#207 = DIRECTION ( 'NONE',  ( 1.000000000000000000, 0.000000000000000000, 0.000000000000000000 ) ) ;
#208 = CARTESIAN_POINT ( 'NONE',  ( 0.4999999999881765689, 0.8299999999999999600, -0.6083333333333331705 ) ) ;
#209 = ORIENTED_EDGE ( 'NONE', *, *, #861, .T. ) ;
#210 = CARTESIAN_POINT ( 'NONE',  ( 0.4999999999999997780, 0.05000000000000002359, -0.6249999999999998890 ) ) ;
#211 = ADVANCED_FACE ( 'NONE', ( #1142 ), #748, .F. ) ;
#212 = CARTESIAN_POINT ( 'NONE',  ( -0.4999999999999995559, 0.8800000000000000044, 0.5749999999999996225 ) ) ;
#213 = VERTEX_POINT ( 'NONE', #145 ) ;
#214 = ORIENTED_EDGE ( 'NONE', *, *, #237, .T. ) ;
#215 = CARTESIAN_POINT ( 'NONE',  ( 0.9499999999999997335, 0.8299999999999999600, 3.295974604355932986E-16 ) ) ;
#216 = DIRECTION ( 'NONE',  ( -0.000000000000000000, 0.000000000000000000, 1.000000000000000000 ) ) ;
#217 = DIRECTION ( 'NONE',  ( 1.000000000000000000, -0.000000000000000000, -1.734723475976807341E-16 ) ) ;
#218 = ADVANCED_FACE ( 'NONE', ( #754 ), #541, .F. ) ;
#219 = EDGE_LOOP ( 'NONE', ( #63, #671, #1001, #1166 ) ) ;
#220 = CARTESIAN_POINT ( 'NONE',  ( -0.9999999999999995559, 0.05000000000000002359, 0.5749999999999996225 ) ) ;
#221 = DIRECTION ( 'NONE',  ( -1.000000000000000000, -0.000000000000000000, 8.673617379884036705E-17 ) ) ;
#222 = AXIS2_PLACEMENT_3D ( 'NONE', #1079, #182, #685 ) ;
#223 = FILL_AREA_STYLE_COLOUR ( '', #694 ) ;
#224 = AXIS2_PLACEMENT_3D ( 'NONE', #1027, #841, #357 ) ;
#225 = AXIS2_PLACEMENT_3D ( 'NONE', #220, #242, #143 ) ;
#226 = MECHANICAL_DESIGN_GEOMETRIC_PRESENTATION_REPRESENTATION (  '', ( #557 ), #1093 ) ;
#227 = DIRECTION ( 'NONE',  ( 0.000000000000000000, -1.000000000000000000, 0.000000000000000000 ) ) ;
#228 = VERTEX_POINT ( 'NONE', #950 ) ;
#229 = PRODUCT_DEFINITION_CONTEXT ( 'detailed design', #642, 'design' ) ;
#230 = CARTESIAN_POINT ( 'NONE',  ( 500000.0000000000582, 0.8299999999999999600, 0.6083333332899650836 ) ) ;
#231 = EDGE_CURVE ( 'NONE', #371, #644, #952, .T. ) ;
#232 = FACE_OUTER_BOUND ( 'NONE', #790, .T. ) ;
#233 = CARTESIAN_POINT ( 'NONE',  ( -0.4999999999999997780, 0.000000000000000000, -0.6249999999999998890 ) ) ;
#234 = ORIENTED_EDGE ( 'NONE', *, *, #1101, .T. ) ;
#235 = DIRECTION ( 'NONE',  ( 1.000000000000000000, 0.000000000000000000, 0.000000000000000000 ) ) ;
#236 = LINE ( 'NONE', #1118, #657 ) ;
#237 = EDGE_CURVE ( 'NONE', #920, #284, #1119, .T. ) ;
#238 = DIRECTION ( 'NONE',  ( -1.000000000000000000, 0.000000000000000000, 1.734723475976807341E-16 ) ) ;
#239 = DIRECTION ( 'NONE',  ( -1.000000000000000000, -0.000000000000000000, 8.673617379884036705E-17 ) ) ;
#240 = ORIENTED_EDGE ( 'NONE', *, *, #448, .F. ) ;
#241 = CARTESIAN_POINT ( 'NONE',  ( -1.000000000000000000, 0.05000000000000002359, -0.6249999999999998890 ) ) ;
#242 = DIRECTION ( 'NONE',  ( 1.000000000000000000, -0.000000000000000000, 0.000000000000000000 ) ) ;
#243 = VECTOR ( 'NONE', #113, 1000.000000000000000 ) ;
#244 = CIRCLE ( 'NONE', #1199, 0.03333333333333334675 ) ;
#245 = EDGE_CURVE ( 'NONE', #1212, #320, #487, .T. ) ;
#246 = VECTOR ( 'NONE', #11, 1000.000000000000000 ) ;
#247 = CIRCLE ( 'NONE', #1175, 0.05000000000000002359 ) ;
#248 = VERTEX_POINT ( 'NONE', #1063 ) ;
#249 = AXIS2_PLACEMENT_3D ( 'NONE', #633, #255, #550 ) ;
#250 = ORIENTED_EDGE ( 'NONE', *, *, #923, .T. ) ;
#251 = SURFACE_SIDE_STYLE ('',( #1016 ) ) ;
#252 = ADVANCED_FACE ( 'NONE', ( #462 ), #164, .F. ) ;
#253 = ORIENTED_EDGE ( 'NONE', *, *, #80, .T. ) ;
#254 = VERTEX_POINT ( 'NONE', #1068 ) ;
#255 = DIRECTION ( 'NONE',  ( 0.000000000000000000, 0.000000000000000000, -1.000000000000000000 ) ) ;
#256 = SURFACE_STYLE_USAGE ( .BOTH. , #251 ) ;
#257 = CARTESIAN_POINT ( 'NONE',  ( 0.000000000000000000, 0.000000000000000000, 0.5749999999999996225 ) ) ;
#258 = EDGE_CURVE ( 'NONE', #1216, #1179, #966, .T. ) ;
#259 = EDGE_LOOP ( 'NONE', ( #1194, #1156, #1020, #451 ) ) ;
#260 = CARTESIAN_POINT ( 'NONE',  ( -0.4999999999999996669, 0.8299999999999999600, 0.5749999999999997335 ) ) ;
#261 = PRESENTATION_STYLE_ASSIGNMENT (( #256 ) ) ;
#262 = CIRCLE ( 'NONE', #932, 0.05000000000000002359 ) ;
#263 = VECTOR ( 'NONE', #1109, 1000.000000000000000 ) ;
#264 = CARTESIAN_POINT ( 'NONE',  ( 0.9499999999999999556, 0.8299999999999999600, -0.5749999999999998446 ) ) ;
#265 = VECTOR ( 'NONE', #603, 1000.000000000000000 ) ;
#266 = ORIENTED_EDGE ( 'NONE', *, *, #818, .F. ) ;
#267 = CIRCLE ( 'NONE', #728, 0.05000000000000002359 ) ;
#268 = EDGE_CURVE ( 'NONE', #1146, #360, #1198, .T. ) ;
#269 = FACE_OUTER_BOUND ( 'NONE', #862, .T. ) ;
#270 = DIRECTION ( 'NONE',  ( 0.000000000000000000, 0.000000000000000000, -1.000000000000000000 ) ) ;
#271 = FACE_OUTER_BOUND ( 'NONE', #925, .T. ) ;
#272 = ORIENTED_EDGE ( 'NONE', *, *, #565, .F. ) ;
#273 =( LENGTH_UNIT ( ) NAMED_UNIT ( * ) SI_UNIT ( .MILLI., .METRE. ) );
#274 = DIRECTION ( 'NONE',  ( -1.000000000000000000, 0.000000000000000000, -3.469446951953614682E-16 ) ) ;
#275 = FACE_OUTER_BOUND ( 'NONE', #146, .T. ) ;
#276 = EDGE_CURVE ( 'NONE', #294, #579, #71, .T. ) ;
#277 = ORIENTED_EDGE ( 'NONE', *, *, #448, .T. ) ;
#278 = FACE_OUTER_BOUND ( 'NONE', #531, .T. ) ;
#279 = EDGE_LOOP ( 'NONE', ( #118, #700, #1075, #720 ) ) ;
#280 = FACE_OUTER_BOUND ( 'NONE', #746, .T. ) ;
#281 = CARTESIAN_POINT ( 'NONE',  ( 1.000000000000000000, 0.05000000000000002359, -0.5749999999999998446 ) ) ;
#282 = DIRECTION ( 'NONE',  ( -3.469446951953614682E-16, 0.000000000000000000, 1.000000000000000000 ) ) ;
#283 = AXIS2_PLACEMENT_3D ( 'NONE', #264, #745, #842 ) ;
#284 = VERTEX_POINT ( 'NONE', #1169 ) ;
#285 = VECTOR ( 'NONE', #984, 1000.000000000000000 ) ;
#286 = VECTOR ( 'NONE', #1243, 1000.000000000000000 ) ;
#287 = ORIENTED_EDGE ( 'NONE', *, *, #506, .T. ) ;
#288 = CARTESIAN_POINT ( 'NONE',  ( -0.9999999999999995559, 0.05000000000000002359, 0.5749999999999996225 ) ) ;
#289 = DIRECTION ( 'NONE',  ( -1.000000000000000000, 0.000000000000000000, 0.000000000000000000 ) ) ;
#290 = VERTEX_POINT ( 'NONE', #288 ) ;
#291 = PLANE ( 'NONE',  #1256 ) ;
#292 = PRODUCT ( 'C0805C100J2GAC7800', 'C0805C100J2GAC7800', '', ( #857 ) ) ;
#293 = ADVANCED_FACE ( 'NONE', ( #955 ), #786, .T. ) ;
#294 = VERTEX_POINT ( 'NONE', #863 ) ;
#295 = ORIENTED_EDGE ( 'NONE', *, *, #596, .F. ) ;
#296 = CARTESIAN_POINT ( 'NONE',  ( 0.9499999999999995115, 0.8800000000000000044, 0.6249999999999996669 ) ) ;
#297 = DIRECTION ( 'NONE',  ( 0.000000000000000000, 0.000000000000000000, 1.000000000000000000 ) ) ;
#298 = CARTESIAN_POINT ( 'NONE',  ( -0.9499999999999995115, 0.8299999999999999600, 0.5749999999999996225 ) ) ;
#299 = ORIENTED_EDGE ( 'NONE', *, *, #989, .F. ) ;
#300 = EDGE_CURVE ( 'NONE', #254, #84, #1055, .T. ) ;
#301 = ORIENTED_EDGE ( 'NONE', *, *, #343, .T. ) ;
#302 = DIRECTION ( 'NONE',  ( 0.000000000000000000, 0.000000000000000000, 1.000000000000000000 ) ) ;
#303 = DIRECTION ( 'NONE',  ( 1.000000000000000000, 0.000000000000000000, 1.734723475976807341E-16 ) ) ;
#304 = DIRECTION ( 'NONE',  ( -1.000000000000000000, 0.000000000000000000, 0.000000000000000000 ) ) ;
#305 = VERTEX_POINT ( 'NONE', #872 ) ;
#306 = AXIS2_PLACEMENT_3D ( 'NONE', #1228, #458, #157 ) ;
#307 = ORIENTED_EDGE ( 'NONE', *, *, #737, .T. ) ;
#308 = CYLINDRICAL_SURFACE ( 'NONE', #845, 0.03333333333333334675 ) ;
#309 = VECTOR ( 'NONE', #470, 1000.000000000000000 ) ;
#310 = FACE_OUTER_BOUND ( 'NONE', #1010, .T. ) ;
#311 = AXIS2_PLACEMENT_3D ( 'NONE', #1059, #488, #289 ) ;
#312 = EDGE_CURVE ( 'NONE', #284, #360, #64, .T. ) ;
#313 = ORIENTED_EDGE ( 'NONE', *, *, #719, .T. ) ;
#314 = AXIS2_PLACEMENT_3D ( 'NONE', #150, #1246, #753 ) ;
#315 =( GEOMETRIC_REPRESENTATION_CONTEXT ( 3 ) GLOBAL_UNCERTAINTY_ASSIGNED_CONTEXT ( ( #426 ) ) GLOBAL_UNIT_ASSIGNED_CONTEXT ( ( #109, #408, #811 ) ) REPRESENTATION_CONTEXT ( 'NONE', 'WORKASPACE' ) );
#316 = DIRECTION ( 'NONE',  ( -1.734723475976807341E-16, 0.000000000000000000, 1.000000000000000000 ) ) ;
#317 = ORIENTED_EDGE ( 'NONE', *, *, #964, .F. ) ;
#318 = FACE_OUTER_BOUND ( 'NONE', #594, .T. ) ;
#319 = DIRECTION ( 'NONE',  ( 0.000000000000000000, -1.000000000000000000, 0.000000000000000000 ) ) ;
#320 = VERTEX_POINT ( 'NONE', #652 ) ;
#321 = ADVANCED_FACE ( 'NONE', ( #269 ), #1180, .F. ) ;
#322 = DIRECTION ( 'NONE',  ( 0.000000000000000000, 0.000000000000000000, 1.000000000000000000 ) ) ;
#323 = ORIENTED_EDGE ( 'NONE', *, *, #628, .T. ) ;
#324 = DIRECTION ( 'NONE',  ( -0.000000000000000000, 0.000000000000000000, -1.000000000000000000 ) ) ;
#325 = DIRECTION ( 'NONE',  ( 1.000000000000000000, 0.000000000000000000, -0.000000000000000000 ) ) ;
#326 = CARTESIAN_POINT ( 'NONE',  ( -0.9499999999999995115, 0.05000000000000002359, 0.5749999999999996225 ) ) ;
#327 = CARTESIAN_POINT ( 'NONE',  ( 500000.0000000000582, 0.05000000000000002359, -0.6083333333767012574 ) ) ;
#328 = ORIENTED_EDGE ( 'NONE', *, *, #268, .T. ) ;
#329 = DIRECTION ( 'NONE',  ( 1.000000000000000000, -0.000000000000000000, -0.000000000000000000 ) ) ;
#330 = DIRECTION ( 'NONE',  ( 0.000000000000000000, 0.000000000000000000, 1.000000000000000000 ) ) ;
#331 = PRESENTATION_LAYER_ASSIGNMENT (  '', '', ( #73 ) ) ;
#332 = PRESENTATION_STYLE_ASSIGNMENT (( #692 ) ) ;
#333 = AXIS2_PLACEMENT_3D ( 'NONE', #819, #812, #717 ) ;
#334 = AXIS2_PLACEMENT_3D ( 'NONE', #102, #303, #330 ) ;
#335 = AXIS2_PLACEMENT_3D ( 'NONE', #1236, #713, #906 ) ;
#336 = CARTESIAN_POINT ( 'NONE',  ( 500000.0000000000582, 0.8633333333333333970, 0.5749999999566316466 ) ) ;
#337 = ORIENTED_EDGE ( 'NONE', *, *, #343, .F. ) ;
#338 = EDGE_CURVE ( 'NONE', #79, #1121, #75, .T. ) ;
#339 = DIRECTION ( 'NONE',  ( 0.000000000000000000, 1.000000000000000000, 0.000000000000000000 ) ) ;
#340 = FACE_OUTER_BOUND ( 'NONE', #1224, .T. ) ;
#341 = CARTESIAN_POINT ( 'NONE',  ( -1.000000000000000000, 0.8800000000000000044, -0.5749999999999998446 ) ) ;
#342 = ORIENTED_EDGE ( 'NONE', *, *, #836, .T. ) ;
#343 = EDGE_CURVE ( 'NONE', #999, #1173, #668, .T. ) ;
#344 = FACE_OUTER_BOUND ( 'NONE', #632, .T. ) ;
#345 = CARTESIAN_POINT ( 'NONE',  ( -0.9999999999999995559, 0.8800000000000000044, 0.5749999999999997335 ) ) ;
#346 = DIRECTION ( 'NONE',  ( 0.000000000000000000, 1.000000000000000000, 0.000000000000000000 ) ) ;
#347 = VERTEX_POINT ( 'NONE', #976 ) ;
#348 = DIRECTION ( 'NONE',  ( -0.000000000000000000, 1.000000000000000000, -0.000000000000000000 ) ) ;
#349 = DIRECTION ( 'NONE',  ( 1.000000000000000000, 0.000000000000000000, 0.000000000000000000 ) ) ;
#350 = EDGE_CURVE ( 'NONE', #8, #364, #168, .T. ) ;
#351 = AXIS2_PLACEMENT_3D ( 'NONE', #749, #134, #647 ) ;
#352 = AXIS2_PLACEMENT_3D ( 'NONE', #428, #822, #1189 ) ;
#353 = CLOSED_SHELL ( 'NONE', ( #321, #163, #472, #1060, #112, #1193, #611, #573, #70, #1147, #871, #901, #481, #580, #947, #750, #170, #560 ) ) ;
#354 = ORIENTED_EDGE ( 'NONE', *, *, #537, .F. ) ;
#355 = DIRECTION ( 'NONE',  ( 0.000000000000000000, 1.000000000000000000, 0.000000000000000000 ) ) ;
#356 = CARTESIAN_POINT ( 'NONE',  ( 0.4999999999881765689, 0.05000000000000002359, 0.6083333333333331705 ) ) ;
#357 = DIRECTION ( 'NONE',  ( 0.000000000000000000, 0.000000000000000000, 1.000000000000000000 ) ) ;
#358 = ADVANCED_FACE ( 'NONE', ( #962 ), #172, .F. ) ;
#359 = FACE_OUTER_BOUND ( 'NONE', #161, .T. ) ;
#360 = VERTEX_POINT ( 'NONE', #380 ) ;
#361 = DIRECTION ( 'NONE',  ( 1.000000000000000000, 0.000000000000000000, 0.000000000000000000 ) ) ;
#362 = DIRECTION ( 'NONE',  ( 1.000000000000000000, 0.000000000000000000, 0.000000000000000000 ) ) ;
#363 =( NAMED_UNIT ( * ) PLANE_ANGLE_UNIT ( ) SI_UNIT ( $, .RADIAN. ) );
#364 = VERTEX_POINT ( 'NONE', #775 ) ;
#365 = FILL_AREA_STYLE ('',( #965 ) ) ;
#366 = DIRECTION ( 'NONE',  ( -0.000000000000000000, -1.000000000000000000, -0.000000000000000000 ) ) ;
#367 = DIRECTION ( 'NONE',  ( 0.000000000000000000, 0.000000000000000000, -1.000000000000000000 ) ) ;
#368 = VECTOR ( 'NONE', #563, 1000.000000000000000 ) ;
#369 = CARTESIAN_POINT ( 'NONE',  ( 0.9499999999999999556, 0.8800000000000000044, -0.5749999999999998446 ) ) ;
#370 = AXIS2_PLACEMENT_3D ( 'NONE', #381, #762, #173 ) ;
#371 = VERTEX_POINT ( 'NONE', #1163 ) ;
#372 = ADVANCED_FACE ( 'NONE', ( #280 ), #679, .F. ) ;
#373 = VECTOR ( 'NONE', #760, 1000.000000000000000 ) ;
#374 = APPLICATION_PROTOCOL_DEFINITION ( 'draft international standard', 'automotive_design', 1998, #642 ) ;
#375 = DIRECTION ( 'NONE',  ( 1.734723475976807587E-16, -0.000000000000000000, -1.000000000000000000 ) ) ;
#376 = CARTESIAN_POINT ( 'NONE',  ( 0.4999999999999995559, 0.8299999999999999600, 0.5749999999999996225 ) ) ;
#377 = FACE_OUTER_BOUND ( 'NONE', #1092, .T. ) ;
#378 = ORIENTED_EDGE ( 'NONE', *, *, #1081, .F. ) ;
#379 = EDGE_CURVE ( 'NONE', #575, #1216, #45, .T. ) ;
#380 = CARTESIAN_POINT ( 'NONE',  ( -0.9499999999999995115, 0.05000000000000002359, 0.6249999999999996669 ) ) ;
#381 = CARTESIAN_POINT ( 'NONE',  ( 0.9499999999999995115, 0.05000000000000000278, 0.5749999999999996225 ) ) ;
#382 = EDGE_CURVE ( 'NONE', #480, #294, #192, .T. ) ;
#383 = DIRECTION ( 'NONE',  ( 1.000000000000000000, 0.000000000000000000, -8.673617379884037937E-17 ) ) ;
#384 = EDGE_LOOP ( 'NONE', ( #1168, #806, #413, #810 ) ) ;
#385 = CARTESIAN_POINT ( 'NONE',  ( 500000.0000000000582, 0.01666666666666666644, -0.5750000000433677094 ) ) ;
#386 = DIRECTION ( 'NONE',  ( 1.000000000000000000, -0.000000000000000000, 0.000000000000000000 ) ) ;
#387 = EDGE_CURVE ( 'NONE', #294, #100, #631, .T. ) ;
#388 = CARTESIAN_POINT ( 'NONE',  ( 0.9499999999999995115, 0.8299999999999999600, 0.5749999999999996225 ) ) ;
#389 = AXIS2_PLACEMENT_3D ( 'NONE', #586, #987, #90 ) ;
#390 = ORIENTED_EDGE ( 'NONE', *, *, #404, .F. ) ;
#391 = VECTOR ( 'NONE', #865, 1000.000000000000000 ) ;
#392 = VECTOR ( 'NONE', #732, 1000.000000000000000 ) ;
#393 = VECTOR ( 'NONE', #878, 1000.000000000000000 ) ;
#394 = ORIENTED_EDGE ( 'NONE', *, *, #937, .F. ) ;
#395 = CARTESIAN_POINT ( 'NONE',  ( 0.9499999999999995115, 0.8299999999999999600, 0.5749999999999996225 ) ) ;
#396 = CARTESIAN_POINT ( 'NONE',  ( 0.4999999999999997780, 0.05000000000000002359, -0.5749999999999998446 ) ) ;
#397 = EDGE_CURVE ( 'NONE', #84, #880, #903, .T. ) ;
#398 = ORIENTED_EDGE ( 'NONE', *, *, #885, .T. ) ;
#399 = DIRECTION ( 'NONE',  ( 0.000000000000000000, 1.000000000000000000, 0.000000000000000000 ) ) ;
#400 = LINE ( 'NONE', #424, #55 ) ;
#401 = ORIENTED_EDGE ( 'NONE', *, *, #1254, .T. ) ;
#402 = DIRECTION ( 'NONE',  ( 0.000000000000000000, 0.000000000000000000, 1.000000000000000000 ) ) ;
#403 = ORIENTED_EDGE ( 'NONE', *, *, #128, .F. ) ;
#404 = EDGE_CURVE ( 'NONE', #644, #1146, #1089, .T. ) ;
#405 = ORIENTED_EDGE ( 'NONE', *, *, #650, .T. ) ;
#406 = CARTESIAN_POINT ( 'NONE',  ( -0.4999999999999996669, 0.8633333333333333970, -0.5749999999999997335 ) ) ;
#407 = FACE_OUTER_BOUND ( 'NONE', #1245, .T. ) ;
#408 =( NAMED_UNIT ( * ) PLANE_ANGLE_UNIT ( ) SI_UNIT ( $, .RADIAN. ) );
#409 = DIRECTION ( 'NONE',  ( -1.000000000000000000, -0.000000000000000000, 8.673617379884036705E-17 ) ) ;
#410 = EDGE_LOOP ( 'NONE', ( #72, #88, #1061, #1062 ) ) ;
#411 = CIRCLE ( 'NONE', #1069, 0.05000000000000002359 ) ;
#412 = PRODUCT_DEFINITION ( 'UNKNOWN', '', #141, #229 ) ;
#413 = ORIENTED_EDGE ( 'NONE', *, *, #498, .F. ) ;
#414 = DIRECTION ( 'NONE',  ( 3.469446951953614682E-16, 0.000000000000000000, -1.000000000000000000 ) ) ;
#415 = VECTOR ( 'NONE', #101, 1000.000000000000000 ) ;
#416 = CARTESIAN_POINT ( 'NONE',  ( 500000.0000000000582, 0.8299999999999999600, -0.5750000000433678204 ) ) ;
#417 = CIRCLE ( 'NONE', #351, 0.05000000000000002359 ) ;
#418 = AXIS2_PLACEMENT_3D ( 'NONE', #260, #1052, #626 ) ;
#419 = CARTESIAN_POINT ( 'NONE',  ( 0.4999999999881765689, 0.8299999999999999600, 0.6083333333333331705 ) ) ;
#420 = LINE ( 'NONE', #711, #783 ) ;
#421 = VERTEX_POINT ( 'NONE', #406 ) ;
#422 = ORIENTED_EDGE ( 'NONE', *, *, #258, .T. ) ;
#423 = LINE ( 'NONE', #799, #886 ) ;
#424 = CARTESIAN_POINT ( 'NONE',  ( 500000.0000000000582, 0.8633333333333333970, -0.5750000000433678204 ) ) ;
#425 = EDGE_LOOP ( 'NONE', ( #1263, #1217, #779, #133 ) ) ;
#426 = UNCERTAINTY_MEASURE_WITH_UNIT (LENGTH_MEASURE( 1.000000000000000082E-05 ), #109, 'distance_accuracy_value', 'NONE');
#427 = FACE_OUTER_BOUND ( 'NONE', #1192, .T. ) ;
#428 = CARTESIAN_POINT ( 'NONE',  ( 0.000000000000000000, 0.000000000000000000, 0.000000000000000000 ) ) ;
#429 = FACE_OUTER_BOUND ( 'NONE', #259, .T. ) ;
#430 = EDGE_CURVE ( 'NONE', #100, #712, #1122, .T. ) ;
#431 = CARTESIAN_POINT ( 'NONE',  ( -0.4999999999999997780, 0.8299999999999999600, -0.5749999999999998446 ) ) ;
#432 = VERTEX_POINT ( 'NONE', #1008 ) ;
#433 = SPHERICAL_SURFACE ( 'NONE', #949, 0.05000000000000000278 ) ;
#434 = CARTESIAN_POINT ( 'NONE',  ( 0.9499999999999995115, 0.8800000000000000044, 0.5749999999999996225 ) ) ;
#435 = CIRCLE ( 'NONE', #653, 0.05000000000000002359 ) ;
#436 = VECTOR ( 'NONE', #939, 1000.000000000000000 ) ;
#437 = DIRECTION ( 'NONE',  ( 0.000000000000000000, 0.000000000000000000, -1.000000000000000000 ) ) ;
#438 = AXIS2_PLACEMENT_3D ( 'NONE', #1105, #715, #912 ) ;
#439 = VECTOR ( 'NONE', #716, 1000.000000000000000 ) ;
#440 = CARTESIAN_POINT ( 'NONE',  ( 0.9499999999999999556, 0.8299999999999999600, -0.5749999999999998446 ) ) ;
#441 = ADVANCED_FACE ( 'NONE', ( #318 ), #708, .T. ) ;
#442 = ORIENTED_EDGE ( 'NONE', *, *, #1232, .F. ) ;
#443 = FACE_OUTER_BOUND ( 'NONE', #1007, .T. ) ;
#444 = CARTESIAN_POINT ( 'NONE',  ( 0.4999999999881765689, 0.05000000000000002359, -0.6083333333333331705 ) ) ;
#445 =( LENGTH_UNIT ( ) NAMED_UNIT ( * ) SI_UNIT ( .MILLI., .METRE. ) );
#446 = CARTESIAN_POINT ( 'NONE',  ( 0.4999999999999997780, 0.8800000000000000044, -0.6249999999999998890 ) ) ;
#447 = CYLINDRICAL_SURFACE ( 'NONE', #335, 0.05000000000000002359 ) ;
#448 = EDGE_CURVE ( 'NONE', #421, #1135, #892, .T. ) ;
#449 = DIRECTION ( 'NONE',  ( 1.000000000000000000, 0.000000000000000000, 1.734723475976807341E-16 ) ) ;
#450 = CARTESIAN_POINT ( 'NONE',  ( -0.4999999999999997780, 0.8800000000000000044, -0.6249999999999998890 ) ) ;
#451 = ORIENTED_EDGE ( 'NONE', *, *, #1139, .F. ) ;
#452 = FACE_OUTER_BOUND ( 'NONE', #1049, .T. ) ;
#453 = EDGE_CURVE ( 'NONE', #105, #84, #897, .T. ) ;
#454 = AXIS2_PLACEMENT_3D ( 'NONE', #751, #648, #1138 ) ;
#455 = CARTESIAN_POINT ( 'NONE',  ( -0.4999999999999996669, 0.8299999999999999600, -0.5749999999999997335 ) ) ;
#456 = ORIENTED_EDGE ( 'NONE', *, *, #1209, .F. ) ;
#457 = CARTESIAN_POINT ( 'NONE',  ( 0.9999999999999995559, 0.8800000000000000044, 0.5749999999999997335 ) ) ;
#458 = DIRECTION ( 'NONE',  ( 0.000000000000000000, -1.000000000000000000, 0.000000000000000000 ) ) ;
#459 = ADVANCED_FACE ( 'NONE', ( #835 ), #199, .T. ) ;
#460 = DIRECTION ( 'NONE',  ( -1.000000000000000000, 0.000000000000000000, 0.000000000000000000 ) ) ;
#461 = ORIENTED_EDGE ( 'NONE', *, *, #797, .F. ) ;
#462 = FACE_OUTER_BOUND ( 'NONE', #890, .T. ) ;
#463 = UNCERTAINTY_MEASURE_WITH_UNIT (LENGTH_MEASURE( 1.000000000000000082E-05 ), #561, 'distance_accuracy_value', 'NONE');
#464 = EDGE_CURVE ( 'NONE', #712, #480, #423, .T. ) ;
#465 = LINE ( 'NONE', #643, #34 ) ;
#466 = CARTESIAN_POINT ( 'NONE',  ( -1.000000000000000000, 0.05000000000000002359, -0.5749999999999998446 ) ) ;
#467 = FACE_OUTER_BOUND ( 'NONE', #384, .T. ) ;
#468 = CIRCLE ( 'NONE', #658, 0.03333333333333334675 ) ;
#469 =( GEOMETRIC_REPRESENTATION_CONTEXT ( 3 ) GLOBAL_UNCERTAINTY_ASSIGNED_CONTEXT ( ( #463 ) ) GLOBAL_UNIT_ASSIGNED_CONTEXT ( ( #561, #363, #639 ) ) REPRESENTATION_CONTEXT ( 'NONE', 'WORKASPACE' ) );
#470 = DIRECTION ( 'NONE',  ( -0.000000000000000000, -1.000000000000000000, -0.000000000000000000 ) ) ;
#471 = EDGE_CURVE ( 'NONE', #785, #290, #792, .T. ) ;
#472 = ADVANCED_FACE ( 'NONE', ( #1195 ), #1188, .F. ) ;
#473 = VECTOR ( 'NONE', #239, 1000.000000000000000 ) ;
#474 = ORIENTED_EDGE ( 'NONE', *, *, #1000, .F. ) ;
#475 = VECTOR ( 'NONE', #375, 1000.000000000000000 ) ;
#476 = ADVANCED_FACE ( 'NONE', ( #1104 ), #308, .T. ) ;
#477 = DIRECTION ( 'NONE',  ( 1.000000000000000000, 0.000000000000000000, 1.734723475976807341E-16 ) ) ;
#478 = CARTESIAN_POINT ( 'NONE',  ( 0.000000000000000000, 0.8299999999999999600, -0.5749999999999998446 ) ) ;
#479 = EDGE_LOOP ( 'NONE', ( #706, #813, #851, #299 ) ) ;
#480 = VERTEX_POINT ( 'NONE', #106 ) ;
#481 = ADVANCED_FACE ( 'NONE', ( #140 ), #509, .T. ) ;
#482 = DIRECTION ( 'NONE',  ( 1.000000000000000000, 0.000000000000000000, -3.469446951953614682E-16 ) ) ;
#483 = DIRECTION ( 'NONE',  ( 0.000000000000000000, 0.000000000000000000, 1.000000000000000000 ) ) ;
#484 = DIRECTION ( 'NONE',  ( -0.000000000000000000, -0.000000000000000000, 1.000000000000000000 ) ) ;
#485 = ORIENTED_EDGE ( 'NONE', *, *, #1186, .T. ) ;
#486 = ORIENTED_EDGE ( 'NONE', *, *, #1, .F. ) ;
#487 = LINE ( 'NONE', #81, #1031 ) ;
#488 = DIRECTION ( 'NONE',  ( 0.000000000000000000, -1.000000000000000000, 0.000000000000000000 ) ) ;
#489 = EDGE_CURVE ( 'NONE', #774, #228, #911, .T. ) ;
#490 = CARTESIAN_POINT ( 'NONE',  ( -0.4999999999999995559, 0.8299999999999999600, 0.5749999999999996225 ) ) ;
#491 = AXIS2_PLACEMENT_3D ( 'NONE', #298, #874, #195 ) ;
#492 = EDGE_LOOP ( 'NONE', ( #196, #1187, #403, #686 ) ) ;
#493 = VECTOR ( 'NONE', #1018, 1000.000000000000000 ) ;
#494 = VECTOR ( 'NONE', #495, 1000.000000000000000 ) ;
#495 = DIRECTION ( 'NONE',  ( 0.000000000000000000, -1.000000000000000000, -0.000000000000000000 ) ) ;
#496 = CARTESIAN_POINT ( 'NONE',  ( -0.9499999999999999556, 0.8800000000000000044, -0.5749999999999998446 ) ) ;
#497 = ORIENTED_EDGE ( 'NONE', *, *, #650, .F. ) ;
#498 = EDGE_CURVE ( 'NONE', #284, #520, #1239, .T. ) ;
#499 = DIRECTION ( 'NONE',  ( -1.734723475976807341E-16, 0.000000000000000000, 1.000000000000000000 ) ) ;
#500 = ORIENTED_EDGE ( 'NONE', *, *, #923, .F. ) ;
#501 = CARTESIAN_POINT ( 'NONE',  ( 0.9999999999999995559, 0.8299999999999999600, 0.6249999999999996669 ) ) ;
#502 = SPHERICAL_SURFACE ( 'NONE', #931, 0.05000000000000000278 ) ;
#503 = ORIENTED_EDGE ( 'NONE', *, *, #136, .F. ) ;
#504 = DIRECTION ( 'NONE',  ( 1.734723475976807587E-16, -0.000000000000000000, -1.000000000000000000 ) ) ;
#505 = DIRECTION ( 'NONE',  ( 1.000000000000000000, -0.000000000000000000, -1.734723475976807341E-16 ) ) ;
#506 = EDGE_CURVE ( 'NONE', #248, #421, #244, .T. ) ;
#507 = ORIENTED_EDGE ( 'NONE', *, *, #1248, .T. ) ;
#508 = ORIENTED_EDGE ( 'NONE', *, *, #387, .T. ) ;
#509 = CYLINDRICAL_SURFACE ( 'NONE', #866, 0.05000000000000002359 ) ;
#510 = LINE ( 'NONE', #22, #614 ) ;
#511 = EDGE_LOOP ( 'NONE', ( #500, #398, #152 ) ) ;
#512 = LINE ( 'NONE', #341, #160 ) ;
#513 = ORIENTED_EDGE ( 'NONE', *, *, #471, .T. ) ;
#514 = ORIENTED_EDGE ( 'NONE', *, *, #1214, .T. ) ;
#515 = DIRECTION ( 'NONE',  ( 3.469446951953614682E-16, -0.000000000000000000, 1.000000000000000000 ) ) ;
#516 = VECTOR ( 'NONE', #386, 1000.000000000000000 ) ;
#517 = CARTESIAN_POINT ( 'NONE',  ( 0.9499999999999999556, 0.05000000000000000278, -0.5749999999999998446 ) ) ;
#518 = COLOUR_RGB ( '',0.7921568627450980005, 0.8196078431372548767, 0.9333333333333333481 ) ;
#519 = DIRECTION ( 'NONE',  ( 1.000000000000000000, 0.000000000000000000, 1.734723475976807341E-16 ) ) ;
#520 = VERTEX_POINT ( 'NONE', #548 ) ;
#521 = CARTESIAN_POINT ( 'NONE',  ( -0.4999999999999996669, 0.05000000000000002359, -0.6083333333333331705 ) ) ;
#522 = CARTESIAN_POINT ( 'NONE',  ( -0.4999999999999996669, 0.8633333333333333970, 0.5749999999999997335 ) ) ;
#523 = EDGE_CURVE ( 'NONE', #1185, #8, #465, .T. ) ;
#524 = SPHERICAL_SURFACE ( 'NONE', #138, 0.05000000000000000278 ) ;
#525 = ORIENTED_EDGE ( 'NONE', *, *, #544, .F. ) ;
#526 = CYLINDRICAL_SURFACE ( 'NONE', #971, 0.05000000000000002359 ) ;
#527 = DIRECTION ( 'NONE',  ( 0.000000000000000000, 0.000000000000000000, 1.000000000000000000 ) ) ;
#528 = ADVANCED_FACE ( 'NONE', ( #1129 ), #739, .T. ) ;
#529 = FACE_OUTER_BOUND ( 'NONE', #961, .T. ) ;
#530 = EDGE_CURVE ( 'NONE', #320, #896, #1144, .T. ) ;
#531 = EDGE_LOOP ( 'NONE', ( #9, #935, #514, #486 ) ) ;
#532 = CARTESIAN_POINT ( 'NONE',  ( -0.9499999999999995115, 0.8299999999999999600, 0.5749999999999996225 ) ) ;
#533 = DIRECTION ( 'NONE',  ( -0.000000000000000000, 1.000000000000000000, -0.000000000000000000 ) ) ;
#534 = SPHERICAL_SURFACE ( 'NONE', #311, 0.05000000000000000278 ) ;
#535 = VECTOR ( 'NONE', #1009, 1000.000000000000000 ) ;
#536 = VECTOR ( 'NONE', #504, 1000.000000000000000 ) ;
#537 = EDGE_CURVE ( 'NONE', #575, #480, #1033, .T. ) ;
#538 = ORIENTED_EDGE ( 'NONE', *, *, #1254, .F. ) ;
#539 = DIRECTION ( 'NONE',  ( -1.734723475976807587E-16, -0.000000000000000000, -1.000000000000000000 ) ) ;
#540 = FACE_OUTER_BOUND ( 'NONE', #630, .T. ) ;
#541 = PLANE ( 'NONE',  #889 ) ;
#542 = LINE ( 'NONE', #257, #991 ) ;
#543 = MANIFOLD_SOLID_BREP ( 'Boss-Extrude2', #58 ) ;
#544 = EDGE_CURVE ( 'NONE', #228, #1019, #1134, .T. ) ;
#545 = ORIENTED_EDGE ( 'NONE', *, *, #268, .F. ) ;
#546 = DIRECTION ( 'NONE',  ( 0.000000000000000000, 0.000000000000000000, 1.000000000000000000 ) ) ;
#547 = DIRECTION ( 'NONE',  ( 0.000000000000000000, -1.000000000000000000, 0.000000000000000000 ) ) ;
#548 = CARTESIAN_POINT ( 'NONE',  ( -0.9499999999999995115, 0.8800000000000000044, 0.5749999999999996225 ) ) ;
#549 = ORIENTED_EDGE ( 'NONE', *, *, #831, .T. ) ;
#550 = DIRECTION ( 'NONE',  ( -1.000000000000000000, 0.000000000000000000, -0.000000000000000000 ) ) ;
#551 = EDGE_CURVE ( 'NONE', #880, #1207, #411, .T. ) ;
#552 = DIRECTION ( 'NONE',  ( 1.734723475976807341E-16, 0.000000000000000000, 1.000000000000000000 ) ) ;
#553 = VECTOR ( 'NONE', #499, 1000.000000000000000 ) ;
#554 = AXIS2_PLACEMENT_3D ( 'NONE', #664, #186, #270 ) ;
#555 = AXIS2_PLACEMENT_3D ( 'NONE', #230, #26, #928 ) ;
#556 = VECTOR ( 'NONE', #533, 1000.000000000000000 ) ;
#557 = STYLED_ITEM ( 'NONE', ( #261 ), #131 ) ;
#558 = ORIENTED_EDGE ( 'NONE', *, *, #1232, .T. ) ;
#559 = DIRECTION ( 'NONE',  ( 0.000000000000000000, 0.000000000000000000, 1.000000000000000000 ) ) ;
#560 = ADVANCED_FACE ( 'NONE', ( #359 ), #566, .T. ) ;
#561 =( LENGTH_UNIT ( ) NAMED_UNIT ( * ) SI_UNIT ( .MILLI., .METRE. ) );
#562 = ORIENTED_EDGE ( 'NONE', *, *, #703, .T. ) ;
#563 = DIRECTION ( 'NONE',  ( -1.000000000000000000, -0.000000000000000000, 8.673617379884036705E-17 ) ) ;
#564 = DIRECTION ( 'NONE',  ( -1.000000000000000000, 0.000000000000000000, 0.000000000000000000 ) ) ;
#565 = EDGE_CURVE ( 'NONE', #999, #1057, #542, .T. ) ;
#566 = CYLINDRICAL_SURFACE ( 'NONE', #454, 0.05000000000000002359 ) ;
#567 = ORIENTED_EDGE ( 'NONE', *, *, #551, .T. ) ;
#568 = DIRECTION ( 'NONE',  ( 0.000000000000000000, -0.000000000000000000, -1.000000000000000000 ) ) ;
#569 = LINE ( 'NONE', #587, #1223 ) ;
#570 = AXIS2_PLACEMENT_3D ( 'NONE', #62, #1240, #69 ) ;
#571 = CIRCLE ( 'NONE', #1035, 0.05000000000000002359 ) ;
#572 = AXIS2_PLACEMENT_3D ( 'NONE', #1064, #169, #1164 ) ;
#573 = ADVANCED_FACE ( 'NONE', ( #1253 ), #1050, .T. ) ;
#574 = VECTOR ( 'NONE', #1014, 1000.000000000000000 ) ;
#575 = VERTEX_POINT ( 'NONE', #369 ) ;
#576 = CARTESIAN_POINT ( 'NONE',  ( 0.4999999999999997780, 0.000000000000000000, -0.6249999999999998890 ) ) ;
#577 = CYLINDRICAL_SURFACE ( 'NONE', #35, 0.05000000000000002359 ) ;
#578 = LINE ( 'NONE', #993, #1149 ) ;
#579 = VERTEX_POINT ( 'NONE', #768 ) ;
#580 = ADVANCED_FACE ( 'NONE', ( #271 ), #665, .T. ) ;
#581 = VERTEX_POINT ( 'NONE', #1086 ) ;
#582 = DIRECTION ( 'NONE',  ( 1.000000000000000000, -0.000000000000000000, -0.000000000000000000 ) ) ;
#583 = DIRECTION ( 'NONE',  ( 0.000000000000000000, 0.000000000000000000, 1.000000000000000000 ) ) ;
#584 = LINE ( 'NONE', #869, #1170 ) ;
#585 = ORIENTED_EDGE ( 'NONE', *, *, #687, .F. ) ;
#586 = CARTESIAN_POINT ( 'NONE',  ( 0.000000000000000000, 0.8800000000000000044, 0.000000000000000000 ) ) ;
#587 = CARTESIAN_POINT ( 'NONE',  ( 0.4999999999881765689, 0.8299999999999999600, 0.6083333333333331705 ) ) ;
#588 = AXIS2_PLACEMENT_3D ( 'NONE', #1137, #346, #1047 ) ;
#589 = ORIENTED_EDGE ( 'NONE', *, *, #190, .T. ) ;
#590 = AXIS2_PLACEMENT_3D ( 'NONE', #884, #1259, #583 ) ;
#591 = VECTOR ( 'NONE', #883, 1000.000000000000000 ) ;
#592 = DIRECTION ( 'NONE',  ( -3.469446951953614682E-16, 0.000000000000000000, 1.000000000000000000 ) ) ;
#593 = DIRECTION ( 'NONE',  ( -1.000000000000000000, 0.000000000000000000, 0.000000000000000000 ) ) ;
#594 = EDGE_LOOP ( 'NONE', ( #959, #1275, #66, #843 ) ) ;
#595 = FILL_AREA_STYLE_COLOUR ( '', #162 ) ;
#596 = EDGE_CURVE ( 'NONE', #198, #305, #1053, .T. ) ;
#597 = DIRECTION ( 'NONE',  ( -1.000000000000000000, -0.000000000000000000, -0.000000000000000000 ) ) ;
#598 = ORIENTED_EDGE ( 'NONE', *, *, #119, .F. ) ;
#599 = ORIENTED_EDGE ( 'NONE', *, *, #276, .F. ) ;
#600 = DIRECTION ( 'NONE',  ( -0.000000000000000000, 1.000000000000000000, -0.000000000000000000 ) ) ;
#601 = CARTESIAN_POINT ( 'NONE',  ( 0.9499999999999995115, 0.8299999999999999600, 0.5749999999999996225 ) ) ;
#602 = ORIENTED_EDGE ( 'NONE', *, *, #1160, .F. ) ;
#603 = DIRECTION ( 'NONE',  ( 1.000000000000000000, -0.000000000000000000, 0.000000000000000000 ) ) ;
#604 = ORIENTED_EDGE ( 'NONE', *, *, #809, .T. ) ;
#605 = ORIENTED_EDGE ( 'NONE', *, *, #934, .F. ) ;
#606 = CARTESIAN_POINT ( 'NONE',  ( 0.000000000000000000, 0.000000000000000000, 0.5749999999999996225 ) ) ;
#607 = CYLINDRICAL_SURFACE ( 'NONE', #805, 0.03333333333333334675 ) ;
#608 = ORIENTED_EDGE ( 'NONE', *, *, #523, .T. ) ;
#609 = ORIENTED_EDGE ( 'NONE', *, *, #231, .F. ) ;
#610 = ORIENTED_EDGE ( 'NONE', *, *, #809, .F. ) ;
#611 = ADVANCED_FACE ( 'NONE', ( #78 ), #1262, .T. ) ;
#612 = VECTOR ( 'NONE', #539, 1000.000000000000000 ) ;
#613 = LINE ( 'NONE', #723, #574 ) ;
#614 = VECTOR ( 'NONE', #702, 1000.000000000000000 ) ;
#615 = LINE ( 'NONE', #1218, #535 ) ;
#616 = MECHANICAL_DESIGN_GEOMETRIC_PRESENTATION_REPRESENTATION (  '', ( #637 ), #698 ) ;
#617 = FILL_AREA_STYLE ('',( #223 ) ) ;
#618 = LINE ( 'NONE', #705, #493 ) ;
#619 = EDGE_LOOP ( 'NONE', ( #973, #497, #12, #986 ) ) ;
#620 = EDGE_CURVE ( 'NONE', #1024, #575, #825, .T. ) ;
#621 = DIRECTION ( 'NONE',  ( 0.000000000000000000, 0.000000000000000000, -1.000000000000000000 ) ) ;
#622 = PLANE ( 'NONE',  #1172 ) ;
#623 = SURFACE_SIDE_STYLE ('',( #1219 ) ) ;
#624 = ORIENTED_EDGE ( 'NONE', *, *, #1265, .F. ) ;
#625 = CYLINDRICAL_SURFACE ( 'NONE', #225, 0.05000000000000002359 ) ;
#626 = DIRECTION ( 'NONE',  ( 0.000000000000000000, 0.000000000000000000, -1.000000000000000000 ) ) ;
#627 = DIRECTION ( 'NONE',  ( 1.000000000000000000, -0.000000000000000000, -1.734723475976807341E-16 ) ) ;
#628 = EDGE_CURVE ( 'NONE', #1057, #189, #584, .T. ) ;
#629 = DIRECTION ( 'NONE',  ( 1.000000000000000000, 0.000000000000000000, -8.673617379884036705E-17 ) ) ;
#630 = EDGE_LOOP ( 'NONE', ( #1042, #1040, #250, #1190 ) ) ;
#631 = LINE ( 'NONE', #446, #494 ) ;
#632 = EDGE_LOOP ( 'NONE', ( #609, #1076, #545, #390 ) ) ;
#633 = CARTESIAN_POINT ( 'NONE',  ( -0.9999999999999995559, 0.8800000000000000044, 0.6249999999999996669 ) ) ;
#634 = AXIS2_PLACEMENT_3D ( 'NONE', #43, #738, #1127 ) ;
#635 = AXIS2_PLACEMENT_3D ( 'NONE', #10, #399, #207 ) ;
#636 = CLOSED_SHELL ( 'NONE', ( #252, #1222, #218, #372, #441, #1157, #975, #1165, #61, #638, #1225, #1126, #528, #36, #293, #459, #46, #1028 ) ) ;
#637 = STYLED_ITEM ( 'NONE', ( #1264 ), #718 ) ;
#638 = ADVANCED_FACE ( 'NONE', ( #377 ), #1273, .T. ) ;
#639 =( NAMED_UNIT ( * ) SI_UNIT ( $, .STERADIAN. ) SOLID_ANGLE_UNIT ( ) );
#640 = ORIENTED_EDGE ( 'NONE', *, *, #885, .F. ) ;
#641 = DIRECTION ( 'NONE',  ( 0.000000000000000000, 1.000000000000000000, -0.000000000000000000 ) ) ;
#642 = APPLICATION_CONTEXT ( 'automotive_design' ) ;
#643 = CARTESIAN_POINT ( 'NONE',  ( 0.4999999999881765689, 0.01666666666666666644, 0.5749999998698956949 ) ) ;
#644 = VERTEX_POINT ( 'NONE', #83 ) ;
#645 = LINE ( 'NONE', #457, #556 ) ;
#646 = LINE ( 'NONE', #834, #1145 ) ;
#647 = DIRECTION ( 'NONE',  ( 0.000000000000000000, 0.000000000000000000, -1.000000000000000000 ) ) ;
#648 = DIRECTION ( 'NONE',  ( 0.000000000000000000, -1.000000000000000000, 0.000000000000000000 ) ) ;
#649 = ORIENTED_EDGE ( 'NONE', *, *, #530, .F. ) ;
#650 = EDGE_CURVE ( 'NONE', #198, #1212, #1268, .T. ) ;
#651 = CARTESIAN_POINT ( 'NONE',  ( -0.4999999999999996669, 0.05000000000000003053, -0.6083333333333331705 ) ) ;
#652 = CARTESIAN_POINT ( 'NONE',  ( -0.4999999999999997780, 0.8299999999999999600, -0.6249999999999998890 ) ) ;
#653 = AXIS2_PLACEMENT_3D ( 'NONE', #742, #641, #933 ) ;
#654 = VECTOR ( 'NONE', #409, 1000.000000000000000 ) ;
#655 = PLANE ( 'NONE',  #634 ) ;
#656 = AXIS2_PLACEMENT_3D ( 'NONE', #396, #1152, #76 ) ;
#657 = VECTOR ( 'NONE', #852, 1000.000000000000000 ) ;
#658 = AXIS2_PLACEMENT_3D ( 'NONE', #129, #519, #704 ) ;
#659 = ORIENTED_EDGE ( 'NONE', *, *, #628, .F. ) ;
#660 = DIRECTION ( 'NONE',  ( 1.000000000000000000, 0.000000000000000000, -8.673617379884036705E-17 ) ) ;
#661 = SURFACE_STYLE_USAGE ( .BOTH. , #974 ) ;
#662 = ADVANCED_FACE ( 'NONE', ( #278 ), #291, .F. ) ;
#663 = CARTESIAN_POINT ( 'NONE',  ( 500000.0000000000582, 0.8299999999999999600, 0.6083333332899650836 ) ) ;
#664 = CARTESIAN_POINT ( 'NONE',  ( -0.9499999999999999556, 0.05000000000000002359, -0.5749999999999998446 ) ) ;
#665 = CYLINDRICAL_SURFACE ( 'NONE', #763, 0.05000000000000002359 ) ;
#666 = ORIENTED_EDGE ( 'NONE', *, *, #934, .T. ) ;
#667 = DIRECTION ( 'NONE',  ( 1.000000000000000000, 0.000000000000000000, 0.000000000000000000 ) ) ;
#668 = LINE ( 'NONE', #576, #475 ) ;
#669 = CARTESIAN_POINT ( 'NONE',  ( 0.9499999999999995115, 0.8299999999999999600, 0.5749999999999996225 ) ) ;
#670 = ADVANCED_FACE ( 'NONE', ( #778 ), #894, .T. ) ;
#671 = ORIENTED_EDGE ( 'NONE', *, *, #848, .T. ) ;
#672 =( NAMED_UNIT ( * ) SI_UNIT ( $, .STERADIAN. ) SOLID_ANGLE_UNIT ( ) );
#673 = DIRECTION ( 'NONE',  ( -3.469446951953614682E-16, 0.000000000000000000, -1.000000000000000000 ) ) ;
#674 = CARTESIAN_POINT ( 'NONE',  ( -0.9999999999999995559, 0.05000000000000002359, 0.6249999999999996669 ) ) ;
#675 = EDGE_CURVE ( 'NONE', #305, #785, #54, .T. ) ;
#676 = CARTESIAN_POINT ( 'NONE',  ( 500000.0000000000582, 0.05000000000000003053, -0.6083333333767012574 ) ) ;
#677 = ORIENTED_EDGE ( 'NONE', *, *, #312, .T. ) ;
#678 = ORIENTED_EDGE ( 'NONE', *, *, #1000, .T. ) ;
#679 = PLANE ( 'NONE',  #89 ) ;
#680 = DIRECTION ( 'NONE',  ( 1.000000000000000000, 0.000000000000000000, 0.000000000000000000 ) ) ;
#681 = ORIENTED_EDGE ( 'NONE', *, *, #387, .F. ) ;
#682 = ORIENTED_EDGE ( 'NONE', *, *, #1039, .T. ) ;
#683 = CARTESIAN_POINT ( 'NONE',  ( -0.9499999999999995115, 0.8299999999999999600, 0.5749999999999996225 ) ) ;
#684 = DIRECTION ( 'NONE',  ( 0.000000000000000000, 0.000000000000000000, 1.000000000000000000 ) ) ;
#685 = DIRECTION ( 'NONE',  ( -1.000000000000000000, 0.000000000000000000, 0.000000000000000000 ) ) ;
#686 = ORIENTED_EDGE ( 'NONE', *, *, #175, .F. ) ;
#687 = EDGE_CURVE ( 'NONE', #920, #371, #578, .T. ) ;
#688 = EDGE_LOOP ( 'NONE', ( #1100, #1116, #604, #461 ) ) ;
#689 = DIRECTION ( 'NONE',  ( 1.000000000000000000, 0.000000000000000000, 3.469446951953615668E-16 ) ) ;
#690 = DIRECTION ( 'NONE',  ( 0.000000000000000000, 0.000000000000000000, 1.000000000000000000 ) ) ;
#691 = ORIENTED_EDGE ( 'NONE', *, *, #498, .T. ) ;
#692 = SURFACE_STYLE_USAGE ( .BOTH. , #623 ) ;
#693 = DIRECTION ( 'NONE',  ( 1.000000000000000000, 0.000000000000000000, 0.000000000000000000 ) ) ;
#694 = COLOUR_RGB ( '',0.7921568627450980005, 0.8196078431372548767, 0.9333333333333333481 ) ;
#695 = AXIS2_PLACEMENT_3D ( 'NONE', #388, #784, #1177 ) ;
#696 = EDGE_LOOP ( 'NONE', ( #1087, #30, #277, #814 ) ) ;
#697 = AXIS2_PLACEMENT_3D ( 'NONE', #517, #216, #1090 ) ;
#698 =( GEOMETRIC_REPRESENTATION_CONTEXT ( 3 ) GLOBAL_UNCERTAINTY_ASSIGNED_CONTEXT ( ( #174 ) ) GLOBAL_UNIT_ASSIGNED_CONTEXT ( ( #273, #980, #672 ) ) REPRESENTATION_CONTEXT ( 'NONE', 'WORKASPACE' ) );
#699 = AXIS2_PLACEMENT_3D ( 'NONE', #1238, #449, #840 ) ;
#700 = ORIENTED_EDGE ( 'NONE', *, *, #731, .T. ) ;
#701 = DIRECTION ( 'NONE',  ( 1.000000000000000000, -0.000000000000000000, -0.000000000000000000 ) ) ;
#702 = DIRECTION ( 'NONE',  ( 3.469446951953614682E-16, -0.000000000000000000, 1.000000000000000000 ) ) ;
#703 = EDGE_CURVE ( 'NONE', #84, #1216, #946, .T. ) ;
#704 = DIRECTION ( 'NONE',  ( 0.000000000000000000, 0.000000000000000000, -1.000000000000000000 ) ) ;
#705 = CARTESIAN_POINT ( 'NONE',  ( 0.4999999999881765689, 0.05000000000000003053, -0.6083333333333331705 ) ) ;
#706 = ORIENTED_EDGE ( 'NONE', *, *, #397, .F. ) ;
#707 = ORIENTED_EDGE ( 'NONE', *, *, #231, .T. ) ;
#708 = PLANE ( 'NONE',  #389 ) ;
#709 = DIRECTION ( 'NONE',  ( 1.000000000000000000, 0.000000000000000000, 1.734723475976807341E-16 ) ) ;
#710 = EDGE_CURVE ( 'NONE', #432, #347, #98, .T. ) ;
#711 = CARTESIAN_POINT ( 'NONE',  ( 500000.0000000000582, 0.05000000000000002359, 0.6083333332899650836 ) ) ;
#712 = VERTEX_POINT ( 'NONE', #985 ) ;
#713 = DIRECTION ( 'NONE',  ( -1.000000000000000000, 0.000000000000000000, 0.000000000000000000 ) ) ;
#714 = CARTESIAN_POINT ( 'NONE',  ( 0.4999999999999997780, 0.8299999999999999600, -0.6249999999999998890 ) ) ;
#715 = DIRECTION ( 'NONE',  ( -1.000000000000000000, -0.000000000000000000, 8.673617379884036705E-17 ) ) ;
#716 = DIRECTION ( 'NONE',  ( -1.000000000000000000, 0.000000000000000000, 0.000000000000000000 ) ) ;
#717 = DIRECTION ( 'NONE',  ( 0.000000000000000000, 0.000000000000000000, -1.000000000000000000 ) ) ;
#718 = ADVANCED_BREP_SHAPE_REPRESENTATION ( 'C0805C100J2GAC7800', ( #123, #131, #543, #1280 ), #1071 ) ;
#719 = EDGE_CURVE ( 'NONE', #774, #920, #137, .T. ) ;
#720 = ORIENTED_EDGE ( 'NONE', *, *, #338, .F. ) ;
#721 = UNCERTAINTY_MEASURE_WITH_UNIT (LENGTH_MEASURE( 1.000000000000000082E-05 ), #445, 'distance_accuracy_value', 'NONE');
#722 = AXIS2_PLACEMENT_3D ( 'NONE', #788, #104, #888 ) ;
#723 = CARTESIAN_POINT ( 'NONE',  ( 500000.0000000000582, 0.8299999999999999600, -0.6083333333767012574 ) ) ;
#724 = AXIS2_PLACEMENT_3D ( 'NONE', #376, #1070, #1267 ) ;
#725 = CIRCLE ( 'NONE', #56, 0.03333333333333334675 ) ;
#726 = DIRECTION ( 'NONE',  ( 0.000000000000000000, 0.000000000000000000, 1.000000000000000000 ) ) ;
#727 = CIRCLE ( 'NONE', #418, 0.03333333333333334675 ) ;
#728 = AXIS2_PLACEMENT_3D ( 'NONE', #326, #1247, #362 ) ;
#729 = ORIENTED_EDGE ( 'NONE', *, *, #596, .T. ) ;
#730 = DIRECTION ( 'NONE',  ( 1.000000000000000000, 0.000000000000000000, 0.000000000000000000 ) ) ;
#731 = EDGE_CURVE ( 'NONE', #347, #1135, #795, .T. ) ;
#732 = DIRECTION ( 'NONE',  ( 0.000000000000000000, 1.000000000000000000, 0.000000000000000000 ) ) ;
#733 = FACE_OUTER_BOUND ( 'NONE', #1140, .T. ) ;
#734 = CARTESIAN_POINT ( 'NONE',  ( -0.4999999999999997780, 0.000000000000000000, -0.5749999999999998446 ) ) ;
#735 = ORIENTED_EDGE ( 'NONE', *, *, #464, .F. ) ;
#736 = ORIENTED_EDGE ( 'NONE', *, *, #981, .F. ) ;
#737 = EDGE_CURVE ( 'NONE', #213, #1207, #915, .T. ) ;
#738 = DIRECTION ( 'NONE',  ( 0.000000000000000000, 1.000000000000000000, 0.000000000000000000 ) ) ;
#739 = CYLINDRICAL_SURFACE ( 'NONE', #570, 0.05000000000000002359 ) ;
#740 = LINE ( 'NONE', #1227, #286 ) ;
#741 = AXIS2_PLACEMENT_3D ( 'NONE', #919, #629, #29 ) ;
#742 = CARTESIAN_POINT ( 'NONE',  ( -0.9499999999999995115, 0.8299999999999999600, 0.5749999999999996225 ) ) ;
#743 = AXIS2_PLACEMENT_3D ( 'NONE', #898, #800, #41 ) ;
#744 = CIRCLE ( 'NONE', #334, 0.05000000000000002359 ) ;
#745 = DIRECTION ( 'NONE',  ( -1.000000000000000000, -0.000000000000000000, -0.000000000000000000 ) ) ;
#746 = EDGE_LOOP ( 'NONE', ( #1088, #1203, #405, #19 ) ) ;
#747 = LINE ( 'NONE', #1046, #77 ) ;
#748 = PLANE ( 'NONE',  #588 ) ;
#749 = CARTESIAN_POINT ( 'NONE',  ( 0.9499999999999999556, 0.05000000000000002359, -0.5749999999999998446 ) ) ;
#750 = ADVANCED_FACE ( 'NONE', ( #529 ), #524, .T. ) ;
#751 = CARTESIAN_POINT ( 'NONE',  ( 0.9499999999999999556, 0.8800000000000000044, -0.5749999999999998446 ) ) ;
#752 = ORIENTED_EDGE ( 'NONE', *, *, #893, .F. ) ;
#753 = DIRECTION ( 'NONE',  ( 0.000000000000000000, 0.000000000000000000, 1.000000000000000000 ) ) ;
#754 = FACE_OUTER_BOUND ( 'NONE', #1006, .T. ) ;
#755 = ORIENTED_EDGE ( 'NONE', *, *, #854, .T. ) ;
#756 = DIRECTION ( 'NONE',  ( 0.000000000000000000, 0.000000000000000000, 1.000000000000000000 ) ) ;
#757 = EDGE_CURVE ( 'NONE', #8, #1197, #1131, .T. ) ;
#758 = ORIENTED_EDGE ( 'NONE', *, *, #710, .T. ) ;
#759 = EDGE_CURVE ( 'NONE', #1024, #213, #18, .T. ) ;
#760 = DIRECTION ( 'NONE',  ( 0.000000000000000000, -1.000000000000000000, 0.000000000000000000 ) ) ;
#761 = VECTOR ( 'NONE', #60, 1000.000000000000000 ) ;
#762 = DIRECTION ( 'NONE',  ( -1.000000000000000000, -0.000000000000000000, -0.000000000000000000 ) ) ;
#763 = AXIS2_PLACEMENT_3D ( 'NONE', #855, #282, #304 ) ;
#764 = VECTOR ( 'NONE', #227, 1000.000000000000000 ) ;
#765 = AXIS2_PLACEMENT_3D ( 'NONE', #1233, #355, #546 ) ;
#766 = AXIS2_PLACEMENT_3D ( 'NONE', #395, #366, #1276 ) ;
#767 = ORIENTED_EDGE ( 'NONE', *, *, #350, .F. ) ;
#768 = CARTESIAN_POINT ( 'NONE',  ( 0.4999999999999997780, 0.8800000000000000044, -0.5749999999999998446 ) ) ;
#769 = ORIENTED_EDGE ( 'NONE', *, *, #506, .F. ) ;
#770 = ADVANCED_FACE ( 'NONE', ( #1201 ), #1120, .T. ) ;
#771 = CARTESIAN_POINT ( 'NONE',  ( 500000.0000000000582, 0.8633333333333333970, -0.5750000000433678204 ) ) ;
#772 = CARTESIAN_POINT ( 'NONE',  ( 0.9999999999999995559, 0.05000000000000002359, 0.6249999999999996669 ) ) ;
#773 = DIRECTION ( 'NONE',  ( -0.000000000000000000, 1.000000000000000000, -0.000000000000000000 ) ) ;
#774 = VERTEX_POINT ( 'NONE', #130 ) ;
#775 = CARTESIAN_POINT ( 'NONE',  ( -0.4999999999999996669, 0.01666666666666666644, -0.5749999999999996225 ) ) ;
#776 = DIRECTION ( 'NONE',  ( 0.000000000000000000, -1.000000000000000000, 0.000000000000000000 ) ) ;
#777 = EDGE_CURVE ( 'NONE', #791, #896, #571, .T. ) ;
#778 = FACE_OUTER_BOUND ( 'NONE', #279, .T. ) ;
#779 = ORIENTED_EDGE ( 'NONE', *, *, #537, .T. ) ;
#780 = CARTESIAN_POINT ( 'NONE',  ( 0.4999999999999997780, 0.8299999999999999600, -0.5749999999999998446 ) ) ;
#781 = LINE ( 'NONE', #968, #391 ) ;
#782 = AXIS2_PLACEMENT_3D ( 'NONE', #1184, #1167, #1073 ) ;
#783 = VECTOR ( 'NONE', #956, 1000.000000000000000 ) ;
#784 = DIRECTION ( 'NONE',  ( -1.000000000000000000, -0.000000000000000000, -0.000000000000000000 ) ) ;
#785 = VERTEX_POINT ( 'NONE', #1215 ) ;
#786 = CYLINDRICAL_SURFACE ( 'NONE', #39, 0.05000000000000002359 ) ;
#787 = CYLINDRICAL_SURFACE ( 'NONE', #590, 0.05000000000000002359 ) ;
#788 = CARTESIAN_POINT ( 'NONE',  ( 0.000000000000000000, 0.8299999999999999600, 0.5749999999999996225 ) ) ;
#789 = EDGE_CURVE ( 'NONE', #1197, #1067, #618, .T. ) ;
#790 = EDGE_LOOP ( 'NONE', ( #856, #85, #132, #442 ) ) ;
#791 = VERTEX_POINT ( 'NONE', #734 ) ;
#792 = LINE ( 'NONE', #241, #200 ) ;
#793 = DIRECTION ( 'NONE',  ( 0.000000000000000000, 0.000000000000000000, -1.000000000000000000 ) ) ;
#794 = EDGE_LOOP ( 'NONE', ( #677, #205, #585, #214 ) ) ;
#795 = LINE ( 'NONE', #336, #654 ) ;
#796 = ORIENTED_EDGE ( 'NONE', *, *, #1176, .F. ) ;
#797 = EDGE_CURVE ( 'NONE', #1197, #3, #122, .T. ) ;
#798 = ORIENTED_EDGE ( 'NONE', *, *, #128, .T. ) ;
#799 = CARTESIAN_POINT ( 'NONE',  ( 0.9499999999999999556, 0.8800000000000000044, -0.6249999999999998890 ) ) ;
#800 = DIRECTION ( 'NONE',  ( 0.000000000000000000, -1.000000000000000000, 0.000000000000000000 ) ) ;
#801 = CARTESIAN_POINT ( 'NONE',  ( 1.000000000000000000, 0.05000000000000002359, -0.6249999999999998890 ) ) ;
#802 = VECTOR ( 'NONE', #592, 1000.000000000000000 ) ;
#803 = VECTOR ( 'NONE', #997, 1000.000000000000000 ) ;
#804 = ORIENTED_EDGE ( 'NONE', *, *, #148, .T. ) ;
#805 = AXIS2_PLACEMENT_3D ( 'NONE', #416, #121, #690 ) ;
#806 = ORIENTED_EDGE ( 'NONE', *, *, #839, .F. ) ;
#807 = CARTESIAN_POINT ( 'NONE',  ( 1.000000000000000000, 0.05000000000000002359, -0.6249999999999998890 ) ) ;
#808 = FACE_OUTER_BOUND ( 'NONE', #902, .T. ) ;
#809 = EDGE_CURVE ( 'NONE', #364, #3, #17, .T. ) ;
#810 = ORIENTED_EDGE ( 'NONE', *, *, #237, .F. ) ;
#811 =( NAMED_UNIT ( * ) SI_UNIT ( $, .STERADIAN. ) SOLID_ANGLE_UNIT ( ) );
#812 = DIRECTION ( 'NONE',  ( 1.000000000000000000, 0.000000000000000000, 1.734723475976807341E-16 ) ) ;
#813 = ORIENTED_EDGE ( 'NONE', *, *, #453, .F. ) ;
#814 = ORIENTED_EDGE ( 'NONE', *, *, #731, .F. ) ;
#815 = CARTESIAN_POINT ( 'NONE',  ( 0.4999999999999997780, 0.8800000000000000044, -0.6249999999999998890 ) ) ;
#816 = DIRECTION ( 'NONE',  ( 1.000000000000000000, 0.000000000000000000, 0.000000000000000000 ) ) ;
#817 = DIRECTION ( 'NONE',  ( -1.000000000000000000, 0.000000000000000000, 0.000000000000000000 ) ) ;
#818 = EDGE_CURVE ( 'NONE', #644, #791, #1229, .T. ) ;
#819 = CARTESIAN_POINT ( 'NONE',  ( 0.4999999999881765689, 0.05000000000000002359, -0.5749999999999997335 ) ) ;
#820 = ORIENTED_EDGE ( 'NONE', *, *, #703, .F. ) ;
#821 = EDGE_LOOP ( 'NONE', ( #1082, #94, #538, #525 ) ) ;
#822 = DIRECTION ( 'NONE',  ( 0.000000000000000000, 1.000000000000000000, 0.000000000000000000 ) ) ;
#823 = DIRECTION ( 'NONE',  ( 0.000000000000000000, 0.000000000000000000, 1.000000000000000000 ) ) ;
#824 = EDGE_LOOP ( 'NONE', ( #682, #758, #804, #666, #944, #608, #139, #830 ) ) ;
#825 = CIRCLE ( 'NONE', #91, 0.05000000000000002359 ) ;
#826 = CARTESIAN_POINT ( 'NONE',  ( -0.4999999999999996669, 0.05000000000000002359, 0.5749999999999997335 ) ) ;
#827 = AXIS2_PLACEMENT_3D ( 'NONE', #1015, #709, #793 ) ;
#828 = CARTESIAN_POINT ( 'NONE',  ( -0.9499999999999995115, 0.05000000000000000278, 0.5749999999999996225 ) ) ;
#829 = CARTESIAN_POINT ( 'NONE',  ( 1.000000000000000000, 0.8299999999999999600, -0.6249999999999998890 ) ) ;
#830 = ORIENTED_EDGE ( 'NONE', *, *, #789, .T. ) ;
#831 = EDGE_CURVE ( 'NONE', #320, #228, #908, .T. ) ;
#832 = PLANE ( 'NONE',  #1072 ) ;
#833 = CARTESIAN_POINT ( 'NONE',  ( -0.9499999999999999556, 0.8299999999999999600, -0.6249999999999998890 ) ) ;
#834 = CARTESIAN_POINT ( 'NONE',  ( -1.000000000000000000, 0.8299999999999999600, -0.6249999999999998890 ) ) ;
#835 = FACE_OUTER_BOUND ( 'NONE', #187, .T. ) ;
#836 = EDGE_CURVE ( 'NONE', #25, #785, #512, .T. ) ;
#837 = DIRECTION ( 'NONE',  ( 1.000000000000000000, 0.000000000000000000, -8.673617379884036705E-17 ) ) ;
#838 = FACE_OUTER_BOUND ( 'NONE', #794, .T. ) ;
#839 = EDGE_CURVE ( 'NONE', #520, #774, #899, .T. ) ;
#840 = DIRECTION ( 'NONE',  ( 0.000000000000000000, 0.000000000000000000, -1.000000000000000000 ) ) ;
#841 = DIRECTION ( 'NONE',  ( -1.000000000000000000, 0.000000000000000000, 0.000000000000000000 ) ) ;
#842 = DIRECTION ( 'NONE',  ( 0.000000000000000000, 0.000000000000000000, 1.000000000000000000 ) ) ;
#843 = ORIENTED_EDGE ( 'NONE', *, *, #839, .T. ) ;
#844 = CARTESIAN_POINT ( 'NONE',  ( 0.4999999999999997780, 0.000000000000000000, -0.5749999999999998446 ) ) ;
#845 = AXIS2_PLACEMENT_3D ( 'NONE', #21, #1032, #302 ) ;
#846 = CIRCLE ( 'NONE', #656, 0.05000000000000002359 ) ;
#847 = CARTESIAN_POINT ( 'NONE',  ( -0.4999999999999996669, 0.05000000000000002359, 0.6083333333333331705 ) ) ;
#848 = EDGE_CURVE ( 'NONE', #206, #194, #420, .T. ) ;
#849 = ORIENTED_EDGE ( 'NONE', *, *, #620, .T. ) ;
#850 = DIRECTION ( 'NONE',  ( 1.734723475976807341E-16, 0.000000000000000000, -1.000000000000000000 ) ) ;
#851 = ORIENTED_EDGE ( 'NONE', *, *, #1176, .T. ) ;
#852 = DIRECTION ( 'NONE',  ( 0.000000000000000000, 0.000000000000000000, -1.000000000000000000 ) ) ;
#853 = CARTESIAN_POINT ( 'NONE',  ( 0.4999999999999995559, 0.05000000000000002359, 0.6249999999999996669 ) ) ;
#854 = EDGE_CURVE ( 'NONE', #712, #189, #867, .T. ) ;
#855 = CARTESIAN_POINT ( 'NONE',  ( 0.9499999999999999556, 0.05000000000000002359, -0.6249999999999998890 ) ) ;
#856 = ORIENTED_EDGE ( 'NONE', *, *, #202, .F. ) ;
#857 = PRODUCT_CONTEXT ( 'NONE', #1085, 'mechanical' ) ;
#858 = CARTESIAN_POINT ( 'NONE',  ( 0.4999999999999995559, 0.8800000000000000044, 0.5749999999999996225 ) ) ;
#859 = ORIENTED_EDGE ( 'NONE', *, *, #379, .T. ) ;
#860 = DIRECTION ( 'NONE',  ( 1.000000000000000000, -0.000000000000000000, -0.000000000000000000 ) ) ;
#861 = EDGE_CURVE ( 'NONE', #712, #213, #417, .T. ) ;
#862 = EDGE_LOOP ( 'NONE', ( #154, #191, #183, #184 ) ) ;
#863 = CARTESIAN_POINT ( 'NONE',  ( 0.4999999999999997780, 0.8299999999999999600, -0.6249999999999998890 ) ) ;
#864 = CIRCLE ( 'NONE', #306, 0.05000000000000002359 ) ;
#865 = DIRECTION ( 'NONE',  ( -1.000000000000000000, -0.000000000000000000, 8.673617379884036705E-17 ) ) ;
#866 = AXIS2_PLACEMENT_3D ( 'NONE', #215, #414, #689 ) ;
#867 = CIRCLE ( 'NONE', #224, 0.05000000000000002359 ) ;
#868 = PRESENTATION_LAYER_ASSIGNMENT (  '', '', ( #557 ) ) ;
#869 = CARTESIAN_POINT ( 'NONE',  ( 0.9499999999999997335, 0.000000000000000000, 3.295974604355932986E-16 ) ) ;
#870 = EDGE_LOOP ( 'NONE', ( #605, #57, #1230, #891 ) ) ;
#871 = ADVANCED_FACE ( 'NONE', ( #1048 ), #534, .T. ) ;
#872 = CARTESIAN_POINT ( 'NONE',  ( -0.9499999999999999556, 0.000000000000000000, -0.5749999999999998446 ) ) ;
#873 = LINE ( 'NONE', #772, #285 ) ;
#874 = DIRECTION ( 'NONE',  ( 0.000000000000000000, 1.000000000000000000, 0.000000000000000000 ) ) ;
#875 = ORIENTED_EDGE ( 'NONE', *, *, #1, .T. ) ;
#876 = CARTESIAN_POINT ( 'NONE',  ( -0.9999999999999995559, 0.8299999999999999600, 0.6249999999999996669 ) ) ;
#877 = CARTESIAN_POINT ( 'NONE',  ( -0.9499999999999999556, 0.8800000000000000044, -0.5749999999999998446 ) ) ;
#878 = DIRECTION ( 'NONE',  ( -1.000000000000000000, -0.000000000000000000, -0.000000000000000000 ) ) ;
#879 = DIRECTION ( 'NONE',  ( -0.000000000000000000, -1.000000000000000000, -0.000000000000000000 ) ) ;
#880 = VERTEX_POINT ( 'NONE', #951 ) ;
#881 = DIRECTION ( 'NONE',  ( 0.000000000000000000, 0.000000000000000000, 1.000000000000000000 ) ) ;
#882 = ORIENTED_EDGE ( 'NONE', *, *, #941, .T. ) ;
#883 = DIRECTION ( 'NONE',  ( -1.000000000000000000, -0.000000000000000000, -0.000000000000000000 ) ) ;
#884 = CARTESIAN_POINT ( 'NONE',  ( 0.000000000000000000, 0.8299999999999999600, 0.5749999999999996225 ) ) ;
#885 = EDGE_CURVE ( 'NONE', #1057, #1207, #929, .T. ) ;
#886 = VECTOR ( 'NONE', #600, 1000.000000000000000 ) ;
#887 = CIRCLE ( 'NONE', #370, 0.05000000000000002359 ) ;
#888 = DIRECTION ( 'NONE',  ( 0.000000000000000000, 0.000000000000000000, 1.000000000000000000 ) ) ;
#889 = AXIS2_PLACEMENT_3D ( 'NONE', #1023, #238, #552 ) ;
#890 = EDGE_LOOP ( 'NONE', ( #982, #342, #513, #558 ) ) ;
#891 = ORIENTED_EDGE ( 'NONE', *, *, #848, .F. ) ;
#892 = LINE ( 'NONE', #4, #803 ) ;
#893 = EDGE_CURVE ( 'NONE', #254, #1216, #16, .T. ) ;
#894 = CYLINDRICAL_SURFACE ( 'NONE', #782, 0.03333333333333334675 ) ;
#895 = ORIENTED_EDGE ( 'NONE', *, *, #523, .F. ) ;
#896 = VERTEX_POINT ( 'NONE', #1271 ) ;
#897 = LINE ( 'NONE', #501, #158 ) ;
#898 = CARTESIAN_POINT ( 'NONE',  ( -0.9499999999999995115, 0.8800000000000000044, 0.5749999999999996225 ) ) ;
#899 = LINE ( 'NONE', #212, #265 ) ;
#900 = ORIENTED_EDGE ( 'NONE', *, *, #155, .T. ) ;
#901 = ADVANCED_FACE ( 'NONE', ( #963 ), #1084, .T. ) ;
#902 = EDGE_LOOP ( 'NONE', ( #954, #1013, #820 ) ) ;
#903 = LINE ( 'NONE', #296, #967 ) ;
#904 = FACE_OUTER_BOUND ( 'NONE', #688, .T. ) ;
#905 = ORIENTED_EDGE ( 'NONE', *, *, #1101, .F. ) ;
#906 = DIRECTION ( 'NONE',  ( 0.000000000000000000, 0.000000000000000000, -1.000000000000000000 ) ) ;
#907 = LINE ( 'NONE', #24, #439 ) ;
#908 = CIRCLE ( 'NONE', #1150, 0.05000000000000002359 ) ;
#909 = ORIENTED_EDGE ( 'NONE', *, *, #14, .T. ) ;
#910 = ORIENTED_EDGE ( 'NONE', *, *, #777, .T. ) ;
#911 = LINE ( 'NONE', #1213, #612 ) ;
#912 = DIRECTION ( 'NONE',  ( 0.000000000000000000, 0.000000000000000000, 1.000000000000000000 ) ) ;
#913 = ORIENTED_EDGE ( 'NONE', *, *, #300, .T. ) ;
#914 = CARTESIAN_POINT ( 'NONE',  ( 0.9499999999999995115, 0.8299999999999999600, 0.6249999999999996669 ) ) ;
#915 = LINE ( 'NONE', #801, #263 ) ;
#916 = ORIENTED_EDGE ( 'NONE', *, *, #52, .F. ) ;
#917 = CARTESIAN_POINT ( 'NONE',  ( -1.000000000000000000, 0.8299999999999999600, -0.5749999999999998446 ) ) ;
#918 = PLANE ( 'NONE',  #352 ) ;
#919 = CARTESIAN_POINT ( 'NONE',  ( -0.4999999999999996669, 0.05000000000000002359, -0.5749999999999997335 ) ) ;
#920 = VERTEX_POINT ( 'NONE', #180 ) ;
#921 = CARTESIAN_POINT ( 'NONE',  ( 0.000000000000000000, 0.000000000000000000, -0.5749999999999998446 ) ) ;
#922 = PLANE ( 'NONE',  #135 ) ;
#923 = EDGE_CURVE ( 'NONE', #1057, #880, #887, .T. ) ;
#924 = DIRECTION ( 'NONE',  ( 1.000000000000000000, 0.000000000000000000, 1.734723475976807341E-16 ) ) ;
#925 = EDGE_LOOP ( 'NONE', ( #640, #323, #234, #307 ) ) ;
#926 = VECTOR ( 'NONE', #1258, 1000.000000000000000 ) ;
#927 = AXIS2_PLACEMENT_3D ( 'NONE', #683, #460, #756 ) ;
#928 = DIRECTION ( 'NONE',  ( -1.000000000000000000, 0.000000000000000000, 8.673617379884037937E-17 ) ) ;
#929 = CIRCLE ( 'NONE', #572, 0.05000000000000002359 ) ;
#930 = CARTESIAN_POINT ( 'NONE',  ( 0.4999999999881765689, 0.01666666666666667337, 0.5749999999999998446 ) ) ;
#931 = AXIS2_PLACEMENT_3D ( 'NONE', #601, #319, #27 ) ;
#932 = AXIS2_PLACEMENT_3D ( 'NONE', #1272, #115, #817 ) ;
#933 = DIRECTION ( 'NONE',  ( 0.000000000000000000, 0.000000000000000000, 1.000000000000000000 ) ) ;
#934 = EDGE_CURVE ( 'NONE', #79, #206, #569, .T. ) ;
#935 = ORIENTED_EDGE ( 'NONE', *, *, #797, .T. ) ;
#936 = DIRECTION ( 'NONE',  ( -1.734723475976807341E-16, 0.000000000000000000, 1.000000000000000000 ) ) ;
#937 = EDGE_CURVE ( 'NONE', #1173, #100, #846, .T. ) ;
#938 = CARTESIAN_POINT ( 'NONE',  ( -0.9999999999999995559, 0.8299999999999999600, 0.5749999999999996225 ) ) ;
#939 = DIRECTION ( 'NONE',  ( -1.000000000000000000, 0.000000000000000000, 0.000000000000000000 ) ) ;
#940 = ORIENTED_EDGE ( 'NONE', *, *, #777, .F. ) ;
#941 = EDGE_CURVE ( 'NONE', #1185, #581, #781, .T. ) ;
#942 = APPLICATION_PROTOCOL_DEFINITION ( 'draft international standard', 'automotive_design', 1998, #1085 ) ;
#943 = SPHERICAL_SURFACE ( 'NONE', #994, 0.05000000000000000278 ) ;
#944 = ORIENTED_EDGE ( 'NONE', *, *, #96, .T. ) ;
#945 = DIRECTION ( 'NONE',  ( 0.000000000000000000, 1.000000000000000000, 0.000000000000000000 ) ) ;
#946 = CIRCLE ( 'NONE', #695, 0.05000000000000002359 ) ;
#947 = ADVANCED_FACE ( 'NONE', ( #275 ), #577, .T. ) ;
#948 = AXIS2_PLACEMENT_3D ( 'NONE', #669, #684, #564 ) ;
#949 = AXIS2_PLACEMENT_3D ( 'NONE', #1226, #339, #730 ) ;
#950 = CARTESIAN_POINT ( 'NONE',  ( -0.4999999999999997780, 0.8800000000000000044, -0.5749999999999998446 ) ) ;
#951 = CARTESIAN_POINT ( 'NONE',  ( 0.9499999999999995115, 0.05000000000000002359, 0.6249999999999996669 ) ) ;
#952 = CIRCLE ( 'NONE', #197, 0.05000000000000002359 ) ;
#953 = DIRECTION ( 'NONE',  ( 0.000000000000000000, 0.000000000000000000, -1.000000000000000000 ) ) ;
#954 = ORIENTED_EDGE ( 'NONE', *, *, #300, .F. ) ;
#955 = FACE_OUTER_BOUND ( 'NONE', #13, .T. ) ;
#956 = DIRECTION ( 'NONE',  ( -1.000000000000000000, -0.000000000000000000, 8.673617379884036705E-17 ) ) ;
#957 = UNCERTAINTY_MEASURE_WITH_UNIT (LENGTH_MEASURE( 1.000000000000000082E-05 ), #1124, 'distance_accuracy_value', 'NONE');
#958 = EDGE_CURVE ( 'NONE', #360, #371, #1078, .T. ) ;
#959 = ORIENTED_EDGE ( 'NONE', *, *, #489, .T. ) ;
#960 = CARTESIAN_POINT ( 'NONE',  ( -1.000000000000000000, 0.8800000000000000044, -0.5749999999999998446 ) ) ;
#961 = EDGE_LOOP ( 'NONE', ( #171, #678, #354 ) ) ;
#962 = FACE_OUTER_BOUND ( 'NONE', #696, .T. ) ;
#963 = FACE_OUTER_BOUND ( 'NONE', #425, .T. ) ;
#964 = EDGE_CURVE ( 'NONE', #198, #785, #1241, .T. ) ;
#965 = FILL_AREA_STYLE_COLOUR ( '', #518 ) ;
#966 = LINE ( 'NONE', #858, #926 ) ;
#967 = VECTOR ( 'NONE', #1205, 1000.000000000000000 ) ;
#968 = CARTESIAN_POINT ( 'NONE',  ( 500000.0000000000582, 0.01666666666666667337, 0.5749999999566317577 ) ) ;
#969 = AXIS2_PLACEMENT_3D ( 'NONE', #159, #1154, #953 ) ;
#970 = CIRCLE ( 'NONE', #93, 0.05000000000000002359 ) ;
#971 = AXIS2_PLACEMENT_3D ( 'NONE', #1123, #1034, #31 ) ;
#972 = DIRECTION ( 'NONE',  ( 0.000000000000000000, 0.000000000000000000, 1.000000000000000000 ) ) ;
#973 = ORIENTED_EDGE ( 'NONE', *, *, #1022, .T. ) ;
#974 = SURFACE_SIDE_STYLE ('',( #1178 ) ) ;
#975 = ADVANCED_FACE ( 'NONE', ( #467 ), #787, .T. ) ;
#976 = CARTESIAN_POINT ( 'NONE',  ( 0.4999999999881765689, 0.8633333333333333970, 0.5749999999999997335 ) ) ;
#977 = CARTESIAN_POINT ( 'NONE',  ( 0.9499999999999999556, 0.8299999999999999600, -0.5749999999999998446 ) ) ;
#978 = CARTESIAN_POINT ( 'NONE',  ( 0.9499999999999999556, 0.8299999999999999600, -0.5749999999999998446 ) ) ;
#979 = ORIENTED_EDGE ( 'NONE', *, *, #404, .T. ) ;
#980 =( NAMED_UNIT ( * ) PLANE_ANGLE_UNIT ( ) SI_UNIT ( $, .RADIAN. ) );
#981 = EDGE_CURVE ( 'NONE', #1179, #105, #1279, .T. ) ;
#982 = ORIENTED_EDGE ( 'NONE', *, *, #175, .T. ) ;
#983 = CARTESIAN_POINT ( 'NONE',  ( -0.9499999999999995115, 0.8800000000000000044, 0.6249999999999996669 ) ) ;
#984 = DIRECTION ( 'NONE',  ( -1.000000000000000000, 0.000000000000000000, 0.000000000000000000 ) ) ;
#985 = CARTESIAN_POINT ( 'NONE',  ( 0.9499999999999999556, 0.05000000000000002359, -0.6249999999999998890 ) ) ;
#986 = ORIENTED_EDGE ( 'NONE', *, *, #836, .F. ) ;
#987 = DIRECTION ( 'NONE',  ( 0.000000000000000000, 1.000000000000000000, 0.000000000000000000 ) ) ;
#988 = FACE_OUTER_BOUND ( 'NONE', #619, .T. ) ;
#989 = EDGE_CURVE ( 'NONE', #880, #166, #873, .T. ) ;
#990 = AXIS2_PLACEMENT_3D ( 'NONE', #67, #482, #673 ) ;
#991 = VECTOR ( 'NONE', #860, 1000.000000000000000 ) ;
#992 = AXIS2_PLACEMENT_3D ( 'NONE', #478, #1278, #1171 ) ;
#993 = CARTESIAN_POINT ( 'NONE',  ( -0.4999999999999995559, 0.8800000000000000044, 0.6249999999999996669 ) ) ;
#994 = AXIS2_PLACEMENT_3D ( 'NONE', #53, #547, #42 ) ;
#995 = ORIENTED_EDGE ( 'NONE', *, *, #861, .F. ) ;
#996 = EDGE_LOOP ( 'NONE', ( #752, #589, #849, #859 ) ) ;
#997 = DIRECTION ( 'NONE',  ( 0.000000000000000000, 0.000000000000000000, 1.000000000000000000 ) ) ;
#998 = CARTESIAN_POINT ( 'NONE',  ( -0.9499999999999995115, 0.000000000000000000, 0.5749999999999996225 ) ) ;
#999 = VERTEX_POINT ( 'NONE', #1159 ) ;
#1000 = EDGE_CURVE ( 'NONE', #1024, #480, #1200, .T. ) ;
#1001 = ORIENTED_EDGE ( 'NONE', *, *, #28, .T. ) ;
#1002 = DIRECTION ( 'NONE',  ( 1.000000000000000000, 0.000000000000000000, 1.734723475976807341E-16 ) ) ;
#1003 = DIRECTION ( 'NONE',  ( 0.000000000000000000, 0.000000000000000000, -1.000000000000000000 ) ) ;
#1004 = ORIENTED_EDGE ( 'NONE', *, *, #854, .F. ) ;
#1005 = CARTESIAN_POINT ( 'NONE',  ( 0.4999999999999997780, 0.8800000000000000044, -0.6249999999999998890 ) ) ;
#1006 = EDGE_LOOP ( 'NONE', ( #1182, #910, #649, #549, #37, #313, #1250, #707 ) ) ;
#1007 = EDGE_LOOP ( 'NONE', ( #769, #1097, #610, #5, #1051, #456, #624, #240 ) ) ;
#1008 = CARTESIAN_POINT ( 'NONE',  ( 0.4999999999881765689, 0.8633333333333333970, -0.5749999999999997335 ) ) ;
#1009 = DIRECTION ( 'NONE',  ( -3.469446951953614682E-16, 0.000000000000000000, -1.000000000000000000 ) ) ;
#1010 = EDGE_LOOP ( 'NONE', ( #108, #875, #287, #378 ) ) ;
#1011 = MECHANICAL_DESIGN_GEOMETRIC_PRESENTATION_REPRESENTATION (  '', ( #73 ), #469 ) ;
#1012 = CIRCLE ( 'NONE', #827, 0.03333333333333334675 ) ;
#1013 = ORIENTED_EDGE ( 'NONE', *, *, #893, .T. ) ;
#1014 = DIRECTION ( 'NONE',  ( -1.000000000000000000, -0.000000000000000000, 8.673617379884036705E-17 ) ) ;
#1015 = CARTESIAN_POINT ( 'NONE',  ( 0.4999999999881765689, 0.8299999999999999600, -0.5749999999999997335 ) ) ;
#1016 = SURFACE_STYLE_FILL_AREA ( #617 ) ;
#1017 = CARTESIAN_POINT ( 'NONE',  ( 0.4999999999999995559, 0.8299999999999999600, 0.6249999999999996669 ) ) ;
#1018 = DIRECTION ( 'NONE',  ( -0.000000000000000000, 1.000000000000000000, 0.000000000000000000 ) ) ;
#1019 = VERTEX_POINT ( 'NONE', #877 ) ;
#1020 = ORIENTED_EDGE ( 'NONE', *, *, #379, .F. ) ;
#1021 = CYLINDRICAL_SURFACE ( 'NONE', #743, 0.05000000000000002359 ) ;
#1022 = EDGE_CURVE ( 'NONE', #25, #1212, #970, .T. ) ;
#1023 = CARTESIAN_POINT ( 'NONE',  ( -0.4999999999999997780, 0.8800000000000000044, -0.6249999999999998890 ) ) ;
#1024 = VERTEX_POINT ( 'NONE', #193 ) ;
#1025 = FACE_OUTER_BOUND ( 'NONE', #410, .T. ) ;
#1026 = CARTESIAN_POINT ( 'NONE',  ( 0.4999999999999995559, 0.8800000000000000044, 0.5749999999999997335 ) ) ;
#1027 = CARTESIAN_POINT ( 'NONE',  ( 0.9499999999999999556, 0.05000000000000002359, -0.5749999999999998446 ) ) ;
#1028 = ADVANCED_FACE ( 'NONE', ( #988 ), #92, .T. ) ;
#1029 = DIRECTION ( 'NONE',  ( 0.000000000000000000, -1.000000000000000000, 0.000000000000000000 ) ) ;
#1030 = ORIENTED_EDGE ( 'NONE', *, *, #119, .T. ) ;
#1031 = VECTOR ( 'NONE', #582, 1000.000000000000000 ) ;
#1032 = DIRECTION ( 'NONE',  ( -1.000000000000000000, -0.000000000000000000, 8.673617379884036705E-17 ) ) ;
#1033 = CIRCLE ( 'NONE', #283, 0.05000000000000002359 ) ;
#1034 = DIRECTION ( 'NONE',  ( 3.469446951953614682E-16, -0.000000000000000000, 1.000000000000000000 ) ) ;
#1035 = AXIS2_PLACEMENT_3D ( 'NONE', #110, #217, #322 ) ;
#1036 =( NAMED_UNIT ( * ) PLANE_ANGLE_UNIT ( ) SI_UNIT ( $, .RADIAN. ) );
#1037 = AXIS2_PLACEMENT_3D ( 'NONE', #780, #477, #559 ) ;
#1038 = DIRECTION ( 'NONE',  ( -3.469446951953614682E-16, -0.000000000000000000, -1.000000000000000000 ) ) ;
#1039 = EDGE_CURVE ( 'NONE', #1067, #432, #1012, .T. ) ;
#1040 = ORIENTED_EDGE ( 'NONE', *, *, #565, .T. ) ;
#1041 =( NAMED_UNIT ( * ) PLANE_ANGLE_UNIT ( ) SI_UNIT ( $, .RADIAN. ) );
#1042 = ORIENTED_EDGE ( 'NONE', *, *, #1160, .T. ) ;
#1043 = SURFACE_SIDE_STYLE ('',( #1235 ) ) ;
#1044 = ADVANCED_FACE ( 'NONE', ( #904 ), #15, .T. ) ;
#1045 = EDGE_LOOP ( 'NONE', ( #681, #177, #735, #1162 ) ) ;
#1046 = CARTESIAN_POINT ( 'NONE',  ( -0.4999999999999996669, 0.8299999999999999600, 0.6083333333333331705 ) ) ;
#1047 = DIRECTION ( 'NONE',  ( 0.000000000000000000, -0.000000000000000000, 1.000000000000000000 ) ) ;
#1048 = FACE_OUTER_BOUND ( 'NONE', #511, .T. ) ;
#1049 = EDGE_LOOP ( 'NONE', ( #328, #1255, #503 ) ) ;
#1050 = CYLINDRICAL_SURFACE ( 'NONE', #969, 0.05000000000000002359 ) ;
#1051 = ORIENTED_EDGE ( 'NONE', *, *, #28, .F. ) ;
#1052 = DIRECTION ( 'NONE',  ( 1.000000000000000000, 0.000000000000000000, -8.673617379884036705E-17 ) ) ;
#1053 = CIRCLE ( 'NONE', #1128, 0.05000000000000002359 ) ;
#1054 = DIRECTION ( 'NONE',  ( 3.469446951953614682E-16, 0.000000000000000000, -1.000000000000000000 ) ) ;
#1055 = CIRCLE ( 'NONE', #766, 0.05000000000000002359 ) ;
#1056 = FILL_AREA_STYLE_COLOUR ( '', #1110 ) ;
#1057 = VERTEX_POINT ( 'NONE', #1196 ) ;
#1058 = DIRECTION ( 'NONE',  ( -1.000000000000000000, -0.000000000000000000, 8.673617379884036705E-17 ) ) ;
#1059 = CARTESIAN_POINT ( 'NONE',  ( 0.9499999999999995115, 0.05000000000000000278, 0.5749999999999996225 ) ) ;
#1060 = ADVANCED_FACE ( 'NONE', ( #1108 ), #622, .F. ) ;
#1061 = ORIENTED_EDGE ( 'NONE', *, *, #675, .F. ) ;
#1062 = ORIENTED_EDGE ( 'NONE', *, *, #1091, .F. ) ;
#1063 = CARTESIAN_POINT ( 'NONE',  ( -0.4999999999999996669, 0.8299999999999999600, -0.6083333333333331705 ) ) ;
#1064 = CARTESIAN_POINT ( 'NONE',  ( 0.9499999999999995115, 0.05000000000000002359, 0.5749999999999996225 ) ) ;
#1065 = CARTESIAN_POINT ( 'NONE',  ( 0.000000000000000000, 0.000000000000000000, -0.5749999999999998446 ) ) ;
#1066 = CARTESIAN_POINT ( 'NONE',  ( -0.9499999999999999556, 0.05000000000000002359, -0.5749999999999998446 ) ) ;
#1067 = VERTEX_POINT ( 'NONE', #208 ) ;
#1068 = CARTESIAN_POINT ( 'NONE',  ( 0.9999999999999995559, 0.8299999999999999600, 0.5749999999999996225 ) ) ;
#1069 = AXIS2_PLACEMENT_3D ( 'NONE', #1249, #348, #1244 ) ;
#1070 = DIRECTION ( 'NONE',  ( 1.000000000000000000, 0.000000000000000000, 1.734723475976807341E-16 ) ) ;
#1071 =( GEOMETRIC_REPRESENTATION_CONTEXT ( 3 ) GLOBAL_UNCERTAINTY_ASSIGNED_CONTEXT ( ( #957 ) ) GLOBAL_UNIT_ASSIGNED_CONTEXT ( ( #1124, #1036, #48 ) ) REPRESENTATION_CONTEXT ( 'NONE', 'WORKASPACE' ) );
#1072 = AXIS2_PLACEMENT_3D ( 'NONE', #1231, #1117, #1114 ) ;
#1073 = DIRECTION ( 'NONE',  ( 0.000000000000000000, 0.000000000000000000, 1.000000000000000000 ) ) ;
#1074 = EDGE_CURVE ( 'NONE', #1019, #520, #510, .T. ) ;
#1075 = ORIENTED_EDGE ( 'NONE', *, *, #1265, .T. ) ;
#1076 = ORIENTED_EDGE ( 'NONE', *, *, #958, .F. ) ;
#1077 = CARTESIAN_POINT ( 'NONE',  ( -1.000000000000000000, 0.8800000000000000044, -0.6249999999999998890 ) ) ;
#1078 = LINE ( 'NONE', #674, #516 ) ;
#1079 = CARTESIAN_POINT ( 'NONE',  ( -0.9499999999999999556, 0.05000000000000000278, -0.5749999999999998446 ) ) ;
#1080 = ORIENTED_EDGE ( 'NONE', *, *, #430, .T. ) ;
#1081 = EDGE_CURVE ( 'NONE', #432, #421, #400, .T. ) ;
#1082 = ORIENTED_EDGE ( 'NONE', *, *, #831, .F. ) ;
#1083 = DIRECTION ( 'NONE',  ( 1.000000000000000000, 0.000000000000000000, 0.000000000000000000 ) ) ;
#1084 = CYLINDRICAL_SURFACE ( 'NONE', #992, 0.05000000000000002359 ) ;
#1085 = APPLICATION_CONTEXT ( 'automotive_design' ) ;
#1086 = CARTESIAN_POINT ( 'NONE',  ( -0.4999999999999996669, 0.01666666666666667337, 0.5749999999999998446 ) ) ;
#1087 = ORIENTED_EDGE ( 'NONE', *, *, #710, .F. ) ;
#1088 = ORIENTED_EDGE ( 'NONE', *, *, #530, .T. ) ;
#1089 = LINE ( 'NONE', #606, #415 ) ;
#1090 = DIRECTION ( 'NONE',  ( 1.000000000000000000, 0.000000000000000000, 0.000000000000000000 ) ) ;
#1091 = EDGE_CURVE ( 'NONE', #1146, #305, #615, .T. ) ;
#1092 = EDGE_LOOP ( 'NONE', ( #900, #691, #916 ) ) ;
#1093 =( GEOMETRIC_REPRESENTATION_CONTEXT ( 3 ) GLOBAL_UNCERTAINTY_ASSIGNED_CONTEXT ( ( #721 ) ) GLOBAL_UNIT_ASSIGNED_CONTEXT ( ( #445, #1041, #151 ) ) REPRESENTATION_CONTEXT ( 'NONE', 'WORKASPACE' ) );
#1094 = AXIS2_PLACEMENT_3D ( 'NONE', #496, #1252, #367 ) ;
#1095 = LINE ( 'NONE', #117, #536 ) ;
#1096 = VECTOR ( 'NONE', #1058, 1000.000000000000000 ) ;
#1097 = ORIENTED_EDGE ( 'NONE', *, *, #1214, .F. ) ;
#1098 = CARTESIAN_POINT ( 'NONE',  ( 0.9499999999999995115, 0.8800000000000000044, 0.6249999999999996669 ) ) ;
#1099 = CARTESIAN_POINT ( 'NONE',  ( 0.000000000000000000, 0.8299999999999999600, -0.5749999999999998446 ) ) ;
#1100 = ORIENTED_EDGE ( 'NONE', *, *, #757, .F. ) ;
#1101 = EDGE_CURVE ( 'NONE', #189, #213, #1257, .T. ) ;
#1102 = DIRECTION ( 'NONE',  ( -1.734723475976807587E-16, -0.000000000000000000, -1.000000000000000000 ) ) ;
#1103 = EDGE_LOOP ( 'NONE', ( #50, #1211, #562, #422 ) ) ;
#1104 = FACE_OUTER_BOUND ( 'NONE', #219, .T. ) ;
#1105 = CARTESIAN_POINT ( 'NONE',  ( 500000.0000000000582, 0.05000000000000002359, -0.5750000000433678204 ) ) ;
#1106 = DIRECTION ( 'NONE',  ( 0.000000000000000000, -1.000000000000000000, 0.000000000000000000 ) ) ;
#1107 = ORIENTED_EDGE ( 'NONE', *, *, #103, .F. ) ;
#1108 = FACE_OUTER_BOUND ( 'NONE', #1045, .T. ) ;
#1109 = DIRECTION ( 'NONE',  ( -3.469446951953614682E-16, 0.000000000000000000, 1.000000000000000000 ) ) ;
#1110 = COLOUR_RGB ( '',0.4862745098039215619, 0.2352941176470588203, 0.01568627450980392135 ) ;
#1111 = ORIENTED_EDGE ( 'NONE', *, *, #464, .T. ) ;
#1112 = ADVANCED_FACE ( 'NONE', ( #310 ), #607, .T. ) ;
#1113 = MECHANICAL_DESIGN_GEOMETRIC_PRESENTATION_REPRESENTATION (  '', ( #204 ), #315 ) ;
#1114 = DIRECTION ( 'NONE',  ( -8.673617379884036705E-17, 0.000000000000000000, -1.000000000000000000 ) ) ;
#1115 = CARTESIAN_POINT ( 'NONE',  ( -0.4999999999999996669, 0.8299999999999999600, 0.6083333333333331705 ) ) ;
#1116 = ORIENTED_EDGE ( 'NONE', *, *, #350, .T. ) ;
#1117 = DIRECTION ( 'NONE',  ( 1.000000000000000000, 0.000000000000000000, -8.673617379884036705E-17 ) ) ;
#1118 = CARTESIAN_POINT ( 'NONE',  ( -0.4999999999999996669, 0.01666666666666666644, 0.5749999999999998446 ) ) ;
#1119 = LINE ( 'NONE', #876, #591 ) ;
#1120 = PLANE ( 'NONE',  #203 ) ;
#1121 = VERTEX_POINT ( 'NONE', #1115 ) ;
#1122 = LINE ( 'NONE', #807, #1130 ) ;
#1123 = CARTESIAN_POINT ( 'NONE',  ( -0.9499999999999999556, 0.05000000000000002359, -0.6249999999999998890 ) ) ;
#1124 =( LENGTH_UNIT ( ) NAMED_UNIT ( * ) SI_UNIT ( .MILLI., .METRE. ) );
#1125 = CARTESIAN_POINT ( 'NONE',  ( -0.9499999999999999556, 0.05000000000000002359, -0.6249999999999998890 ) ) ;
#1126 = ADVANCED_FACE ( 'NONE', ( #107 ), #114, .T. ) ;
#1127 = DIRECTION ( 'NONE',  ( 0.000000000000000000, 0.000000000000000000, 1.000000000000000000 ) ) ;
#1128 = AXIS2_PLACEMENT_3D ( 'NONE', #1066, #597, #972 ) ;
#1129 = FACE_OUTER_BOUND ( 'NONE', #492, .T. ) ;
#1130 = VECTOR ( 'NONE', #1083, 1000.000000000000000 ) ;
#1131 = CIRCLE ( 'NONE', #333, 0.03333333333333334675 ) ;
#1132 = SPHERICAL_SURFACE ( 'NONE', #95, 0.05000000000000000278 ) ;
#1133 = CARTESIAN_POINT ( 'NONE',  ( 0.9499999999999999556, 0.000000000000000000, -0.5749999999999998446 ) ) ;
#1134 = LINE ( 'NONE', #960, #436 ) ;
#1135 = VERTEX_POINT ( 'NONE', #522 ) ;
#1136 = LINE ( 'NONE', #651, #392 ) ;
#1137 = CARTESIAN_POINT ( 'NONE',  ( 500000.0000000000582, 0.01666666666666666644, 0.5749999999566317577 ) ) ;
#1138 = DIRECTION ( 'NONE',  ( 0.000000000000000000, 0.000000000000000000, -1.000000000000000000 ) ) ;
#1139 = EDGE_CURVE ( 'NONE', #579, #575, #126, .T. ) ;
#1140 = EDGE_LOOP ( 'NONE', ( #1004, #209, #905 ) ) ;
#1141 = PLANE ( 'NONE',  #249 ) ;
#1142 = FACE_OUTER_BOUND ( 'NONE', #1204, .T. ) ;
#1143 = EDGE_LOOP ( 'NONE', ( #567, #485, #913, #1274 ) ) ;
#1144 = LINE ( 'NONE', #450, #309 ) ;
#1145 = VECTOR ( 'NONE', #1038, 1000.000000000000000 ) ;
#1146 = VERTEX_POINT ( 'NONE', #998 ) ;
#1147 = ADVANCED_FACE ( 'NONE', ( #808 ), #502, .T. ) ;
#1148 = SHAPE_DEFINITION_REPRESENTATION ( #1155, #718 ) ;
#1149 = VECTOR ( 'NONE', #879, 1000.000000000000000 ) ;
#1150 = AXIS2_PLACEMENT_3D ( 'NONE', #431, #505, #823 ) ;
#1151 = CARTESIAN_POINT ( 'NONE',  ( 1.000000000000000000, 0.8800000000000000044, -0.6249999999999998890 ) ) ;
#1152 = DIRECTION ( 'NONE',  ( 1.000000000000000000, 0.000000000000000000, 1.734723475976807341E-16 ) ) ;
#1153 = AXIS2_PLACEMENT_3D ( 'NONE', #1270, #179, #1266 ) ;
#1154 = DIRECTION ( 'NONE',  ( 0.000000000000000000, -1.000000000000000000, 0.000000000000000000 ) ) ;
#1155 = PRODUCT_DEFINITION_SHAPE ( 'NONE', 'NONE',  #412 ) ;
#1156 = ORIENTED_EDGE ( 'NONE', *, *, #258, .F. ) ;
#1157 = ADVANCED_FACE ( 'NONE', ( #407 ), #918, .F. ) ;
#1158 = DIRECTION ( 'NONE',  ( 0.000000000000000000, -1.000000000000000000, 0.000000000000000000 ) ) ;
#1159 = CARTESIAN_POINT ( 'NONE',  ( 0.4999999999999995559, 0.000000000000000000, 0.5749999999999997335 ) ) ;
#1160 = EDGE_CURVE ( 'NONE', #166, #999, #744, .T. ) ;
#1161 = CARTESIAN_POINT ( 'NONE',  ( -0.9499999999999999556, 0.8800000000000000044, -0.6249999999999998890 ) ) ;
#1162 = ORIENTED_EDGE ( 'NONE', *, *, #430, .F. ) ;
#1163 = CARTESIAN_POINT ( 'NONE',  ( -0.4999999999999995559, 0.05000000000000002359, 0.6249999999999996669 ) ) ;
#1164 = DIRECTION ( 'NONE',  ( -1.000000000000000000, 0.000000000000000000, 0.000000000000000000 ) ) ;
#1165 = ADVANCED_FACE ( 'NONE', ( #232 ), #1021, .T. ) ;
#1166 = ORIENTED_EDGE ( 'NONE', *, *, #941, .F. ) ;
#1167 = DIRECTION ( 'NONE',  ( -1.000000000000000000, -0.000000000000000000, 8.673617379884036705E-17 ) ) ;
#1168 = ORIENTED_EDGE ( 'NONE', *, *, #719, .F. ) ;
#1169 = CARTESIAN_POINT ( 'NONE',  ( -0.9499999999999995115, 0.8299999999999999600, 0.6249999999999996669 ) ) ;
#1170 = VECTOR ( 'NONE', #2, 1000.000000000000000 ) ;
#1171 = DIRECTION ( 'NONE',  ( 0.000000000000000000, 0.000000000000000000, -1.000000000000000000 ) ) ;
#1172 = AXIS2_PLACEMENT_3D ( 'NONE', #201, #726, #593 ) ;
#1173 = VERTEX_POINT ( 'NONE', #844 ) ;
#1174 = AXIS2_PLACEMENT_3D ( 'NONE', #1099, #816, #1003 ) ;
#1175 = AXIS2_PLACEMENT_3D ( 'NONE', #532, #324, #235 ) ;
#1176 = EDGE_CURVE ( 'NONE', #105, #166, #740, .T. ) ;
#1177 = DIRECTION ( 'NONE',  ( 0.000000000000000000, 0.000000000000000000, 1.000000000000000000 ) ) ;
#1178 = SURFACE_STYLE_FILL_AREA ( #365 ) ;
#1179 = VERTEX_POINT ( 'NONE', #1026 ) ;
#1180 = PLANE ( 'NONE',  #142 ) ;
#1181 = DIRECTION ( 'NONE',  ( -0.000000000000000000, -1.000000000000000000, -0.000000000000000000 ) ) ;
#1182 = ORIENTED_EDGE ( 'NONE', *, *, #818, .T. ) ;
#1183 = LINE ( 'NONE', #1065, #393 ) ;
#1184 = CARTESIAN_POINT ( 'NONE',  ( 500000.0000000000582, 0.8299999999999999600, 0.5749999999566316466 ) ) ;
#1185 = VERTEX_POINT ( 'NONE', #930 ) ;
#1186 = EDGE_CURVE ( 'NONE', #1207, #254, #645, .T. ) ;
#1187 = ORIENTED_EDGE ( 'NONE', *, *, #1074, .F. ) ;
#1188 = PLANE ( 'NONE',  #176 ) ;
#1189 = DIRECTION ( 'NONE',  ( 0.000000000000000000, -0.000000000000000000, 1.000000000000000000 ) ) ;
#1190 = ORIENTED_EDGE ( 'NONE', *, *, #989, .T. ) ;
#1191 = DIRECTION ( 'NONE',  ( 8.673617379884037937E-17, -0.000000000000000000, 1.000000000000000000 ) ) ;
#1192 = EDGE_LOOP ( 'NONE', ( #729, #111, #317 ) ) ;
#1193 = ADVANCED_FACE ( 'NONE', ( #340 ), #32, .F. ) ;
#1194 = ORIENTED_EDGE ( 'NONE', *, *, #80, .F. ) ;
#1195 = FACE_OUTER_BOUND ( 'NONE', #1269, .T. ) ;
#1196 = CARTESIAN_POINT ( 'NONE',  ( 0.9499999999999995115, 0.000000000000000000, 0.5749999999999996225 ) ) ;
#1197 = VERTEX_POINT ( 'NONE', #444 ) ;
#1198 = CIRCLE ( 'NONE', #1153, 0.05000000000000002359 ) ;
#1199 = AXIS2_PLACEMENT_3D ( 'NONE', #455, #660, #65 ) ;
#1200 = CIRCLE ( 'NONE', #116, 0.05000000000000002359 ) ;
#1201 = FACE_OUTER_BOUND ( 'NONE', #824, .T. ) ;
#1202 = AXIS2_PLACEMENT_3D ( 'NONE', #771, #1158, #568 ) ;
#1203 = ORIENTED_EDGE ( 'NONE', *, *, #103, .T. ) ;
#1204 = EDGE_LOOP ( 'NONE', ( #895, #882, #507, #767 ) ) ;
#1205 = DIRECTION ( 'NONE',  ( 0.000000000000000000, -1.000000000000000000, 0.000000000000000000 ) ) ;
#1206 = CARTESIAN_POINT ( 'NONE',  ( 1.000000000000000000, 0.8800000000000000044, -0.5749999999999998446 ) ) ;
#1207 = VERTEX_POINT ( 'NONE', #144 ) ;
#1208 = FILL_AREA_STYLE ('',( #595 ) ) ;
#1209 = EDGE_CURVE ( 'NONE', #1121, #194, #747, .T. ) ;
#1210 = DIRECTION ( 'NONE',  ( -1.000000000000000000, 0.000000000000000000, 0.000000000000000000 ) ) ;
#1211 = ORIENTED_EDGE ( 'NONE', *, *, #453, .T. ) ;
#1212 = VERTEX_POINT ( 'NONE', #833 ) ;
#1213 = CARTESIAN_POINT ( 'NONE',  ( -0.4999999999999997780, 0.8800000000000000044, -0.6249999999999998890 ) ) ;
#1214 = EDGE_CURVE ( 'NONE', #3, #248, #1136, .T. ) ;
#1215 = CARTESIAN_POINT ( 'NONE',  ( -1.000000000000000000, 0.05000000000000002359, -0.5749999999999998446 ) ) ;
#1216 = VERTEX_POINT ( 'NONE', #434 ) ;
#1217 = ORIENTED_EDGE ( 'NONE', *, *, #1139, .T. ) ;
#1218 = CARTESIAN_POINT ( 'NONE',  ( -0.9499999999999997335, 0.000000000000000000, 3.295974604355932986E-16 ) ) ;
#1219 = SURFACE_STYLE_FILL_AREA ( #1208 ) ;
#1220 = CARTESIAN_POINT ( 'NONE',  ( 1.000000000000000000, 0.8800000000000000044, -0.5749999999999998446 ) ) ;
#1221 = VECTOR ( 'NONE', #773, 1000.000000000000000 ) ;
#1222 = ADVANCED_FACE ( 'NONE', ( #838 ), #1141, .F. ) ;
#1223 = VECTOR ( 'NONE', #776, 1000.000000000000000 ) ;
#1224 = EDGE_LOOP ( 'NONE', ( #659, #272, #301, #598 ) ) ;
#1225 = ADVANCED_FACE ( 'NONE', ( #452 ), #1132, .T. ) ;
#1226 = CARTESIAN_POINT ( 'NONE',  ( -0.9499999999999999556, 0.05000000000000000278, -0.5749999999999998446 ) ) ;
#1227 = CARTESIAN_POINT ( 'NONE',  ( 0.4999999999999995559, 0.8800000000000000044, 0.6249999999999996669 ) ) ;
#1228 = CARTESIAN_POINT ( 'NONE',  ( -0.9499999999999995115, 0.05000000000000002359, 0.5749999999999996225 ) ) ;
#1229 = LINE ( 'NONE', #233, #178 ) ;
#1230 = ORIENTED_EDGE ( 'NONE', *, *, #1209, .T. ) ;
#1231 = CARTESIAN_POINT ( 'NONE',  ( -0.4999999999999996669, 0.8299999999999999600, -0.5749999999999997335 ) ) ;
#1232 = EDGE_CURVE ( 'NONE', #290, #44, #59, .T. ) ;
#1233 = CARTESIAN_POINT ( 'NONE',  ( 0.000000000000000000, 0.000000000000000000, 0.000000000000000000 ) ) ;
#1234 = LINE ( 'NONE', #829, #761 ) ;
#1235 = SURFACE_STYLE_FILL_AREA ( #165 ) ;
#1236 = CARTESIAN_POINT ( 'NONE',  ( 0.9999999999999995559, 0.05000000000000002359, 0.5749999999999996225 ) ) ;
#1237 = PRODUCT_RELATED_PRODUCT_CATEGORY ( 'part', '', ( #292 ) ) ;
#1238 = CARTESIAN_POINT ( 'NONE',  ( 0.4999999999881765689, 0.8299999999999999600, 0.5749999999999997335 ) ) ;
#1239 = CIRCLE ( 'NONE', #927, 0.05000000000000002359 ) ;
#1240 = DIRECTION ( 'NONE',  ( -3.469446951953614682E-16, 0.000000000000000000, -1.000000000000000000 ) ) ;
#1241 = CIRCLE ( 'NONE', #554, 0.05000000000000002359 ) ;
#1242 = ORIENTED_EDGE ( 'NONE', *, *, #1022, .F. ) ;
#1243 = DIRECTION ( 'NONE',  ( 0.000000000000000000, -1.000000000000000000, -0.000000000000000000 ) ) ;
#1244 = DIRECTION ( 'NONE',  ( 0.000000000000000000, 0.000000000000000000, -1.000000000000000000 ) ) ;
#1245 = EDGE_LOOP ( 'NONE', ( #149, #909, #266, #979 ) ) ;
#1246 = DIRECTION ( 'NONE',  ( -1.000000000000000000, 0.000000000000000000, 0.000000000000000000 ) ) ;
#1247 = DIRECTION ( 'NONE',  ( -0.000000000000000000, -0.000000000000000000, -1.000000000000000000 ) ) ;
#1248 = EDGE_CURVE ( 'NONE', #581, #364, #236, .T. ) ;
#1249 = CARTESIAN_POINT ( 'NONE',  ( 0.9499999999999995115, 0.05000000000000002359, 0.5749999999999996225 ) ) ;
#1250 = ORIENTED_EDGE ( 'NONE', *, *, #687, .T. ) ;
#1251 = DIRECTION ( 'NONE',  ( 0.000000000000000000, 0.000000000000000000, 1.000000000000000000 ) ) ;
#1252 = DIRECTION ( 'NONE',  ( 0.000000000000000000, -1.000000000000000000, 0.000000000000000000 ) ) ;
#1253 = FACE_OUTER_BOUND ( 'NONE', #1143, .T. ) ;
#1254 = EDGE_CURVE ( 'NONE', #1019, #1212, #38, .T. ) ;
#1255 = ORIENTED_EDGE ( 'NONE', *, *, #202, .T. ) ;
#1256 = AXIS2_PLACEMENT_3D ( 'NONE', #676, #1191, #383 ) ;
#1257 = CIRCLE ( 'NONE', #697, 0.05000000000000002359 ) ;
#1258 = DIRECTION ( 'NONE',  ( -1.000000000000000000, 0.000000000000000000, 0.000000000000000000 ) ) ;
#1259 = DIRECTION ( 'NONE',  ( -1.000000000000000000, 0.000000000000000000, 0.000000000000000000 ) ) ;
#1260 = VECTOR ( 'NONE', #51, 1000.000000000000000 ) ;
#1261 = CIRCLE ( 'NONE', #699, 0.03333333333333334675 ) ;
#1262 = CYLINDRICAL_SURFACE ( 'NONE', #722, 0.05000000000000002359 ) ;
#1263 = ORIENTED_EDGE ( 'NONE', *, *, #276, .T. ) ;
#1264 = PRESENTATION_STYLE_ASSIGNMENT (( #661 ) ) ;
#1265 = EDGE_CURVE ( 'NONE', #1135, #1121, #727, .T. ) ;
#1266 = DIRECTION ( 'NONE',  ( 0.000000000000000000, 0.000000000000000000, 1.000000000000000000 ) ) ;
#1267 = DIRECTION ( 'NONE',  ( 0.000000000000000000, 0.000000000000000000, 1.000000000000000000 ) ) ;
#1268 = LINE ( 'NONE', #1161, #1221 ) ;
#1269 = EDGE_LOOP ( 'NONE', ( #337, #602, #796, #736, #253, #599, #508, #394 ) ) ;
#1270 = CARTESIAN_POINT ( 'NONE',  ( -0.9499999999999995115, 0.05000000000000000278, 0.5749999999999996225 ) ) ;
#1271 = CARTESIAN_POINT ( 'NONE',  ( -0.4999999999999997780, 0.05000000000000002359, -0.6249999999999998890 ) ) ;
#1272 = CARTESIAN_POINT ( 'NONE',  ( -0.9499999999999999556, 0.8299999999999999600, -0.5749999999999998446 ) ) ;
#1273 = SPHERICAL_SURFACE ( 'NONE', #491, 0.05000000000000000278 ) ;
#1274 = ORIENTED_EDGE ( 'NONE', *, *, #397, .T. ) ;
#1275 = ORIENTED_EDGE ( 'NONE', *, *, #544, .T. ) ;
#1276 = DIRECTION ( 'NONE',  ( 0.000000000000000000, 0.000000000000000000, 1.000000000000000000 ) ) ;
#1277 = AXIS2_PLACEMENT_3D ( 'NONE', #490, #6, #402 ) ;
#1278 = DIRECTION ( 'NONE',  ( -1.000000000000000000, 0.000000000000000000, 0.000000000000000000 ) ) ;
#1279 = CIRCLE ( 'NONE', #724, 0.05000000000000002359 ) ;
#1280 = AXIS2_PLACEMENT_3D ( 'NONE', #167, #881, #667 ) ;
ENDSEC;
END-ISO-10303-21;
