ISO-10303-21;
HEADER;
FILE_DESCRIPTION (( 'STEP AP214' ),
    '1' );
FILE_NAME ('GJ821BR71H105KA12L.STEP',
    '2019-12-24T20:17:10',
    ( '' ),
    ( '' ),
    'SwSTEP 2.0',
    'SolidWorks 2018',
    '' );
FILE_SCHEMA (( 'AUTOMOTIVE_DESIGN' ));
ENDSEC;

DATA;
#1 = CARTESIAN_POINT ( 'NONE',  ( -0.9999999999999997780, 1.350000000000000089, 0.6249999999999996669 ) ) ;
#2 = DIRECTION ( 'NONE',  ( 0.0000000000000000000, 1.000000000000000000, 0.0000000000000000000 ) ) ;
#3 = EDGE_CURVE ( 'NONE', #192, #1096, #544, .T. ) ;
#4 = CARTESIAN_POINT ( 'NONE',  ( -0.9499999999999999556, 0.0000000000000000000, -0.5750000000000000666 ) ) ;
#5 = ADVANCED_FACE ( 'NONE', ( #343 ), #1203, .T. ) ;
#6 = DIRECTION ( 'NONE',  ( 0.0000000000000000000, -1.000000000000000000, 0.0000000000000000000 ) ) ;
#7 = FACE_OUTER_BOUND ( 'NONE', #980, .T. ) ;
#8 = LINE ( 'NONE', #1015, #1160 ) ;
#9 = VERTEX_POINT ( 'NONE', #798 ) ;
#10 = VERTEX_POINT ( 'NONE', #1193 ) ;
#11 = DIRECTION ( 'NONE',  ( 0.0000000000000000000, -1.000000000000000000, -0.0000000000000000000 ) ) ;
#12 = ORIENTED_EDGE ( 'NONE', *, *, #1242, .F. ) ;
#13 = AXIS2_PLACEMENT_3D ( 'NONE', #43, #1144, #266 ) ;
#14 = ORIENTED_EDGE ( 'NONE', *, *, #1070, .F. ) ;
#15 = DIRECTION ( 'NONE',  ( 0.0000000000000000000, 0.0000000000000000000, 1.000000000000000000 ) ) ;
#16 = CARTESIAN_POINT ( 'NONE',  ( -0.5499999999999999334, 1.300000000000000266, -0.6250000000000001110 ) ) ;
#17 = MANIFOLD_SOLID_BREP ( 'Fillet1', #357 ) ;
#18 = CARTESIAN_POINT ( 'NONE',  ( -0.5499999999999998224, 0.05000000000000034972, 0.6083333333333330595 ) ) ;
#19 = ADVANCED_FACE ( 'NONE', ( #288 ), #220, .T. ) ;
#20 = CARTESIAN_POINT ( 'NONE',  ( -0.9499999999999999556, 0.05000000000000000278, -0.5750000000000000666 ) ) ;
#21 = DIRECTION ( 'NONE',  ( 0.0000000000000000000, 0.0000000000000000000, 1.000000000000000000 ) ) ;
#22 = EDGE_CURVE ( 'NONE', #1175, #599, #1262, .T. ) ;
#23 = PRESENTATION_LAYER_ASSIGNMENT (  '', '', ( #1243 ) ) ;
#24 = CARTESIAN_POINT ( 'NONE',  ( -0.5499999999999999334, 1.300000000000000266, -0.5750000000000000666 ) ) ;
#25 = VECTOR ( 'NONE', #265, 1000.000000000000000 ) ;
#26 = FACE_OUTER_BOUND ( 'NONE', #672, .T. ) ;
#27 = CARTESIAN_POINT ( 'NONE',  ( 0.9999999999999997780, 1.300000000000000266, 0.6249999999999996669 ) ) ;
#28 = LINE ( 'NONE', #133, #274 ) ;
#29 = DIRECTION ( 'NONE',  ( -0.0000000000000000000, 1.000000000000000000, -0.0000000000000000000 ) ) ;
#30 = ADVANCED_FACE ( 'NONE', ( #1091 ), #177, .T. ) ;
#31 = ORIENTED_EDGE ( 'NONE', *, *, #570, .F. ) ;
#32 = ORIENTED_EDGE ( 'NONE', *, *, #166, .F. ) ;
#33 = ORIENTED_EDGE ( 'NONE', *, *, #494, .F. ) ;
#34 = CARTESIAN_POINT ( 'NONE',  ( -0.5499999999999998224, 1.300000000000000266, 0.6249999999999996669 ) ) ;
#35 = CARTESIAN_POINT ( 'NONE',  ( 500000.0000000000582, 0.04999999999999991257, -0.6083333333767014794 ) ) ;
#36 =( GEOMETRIC_REPRESENTATION_CONTEXT ( 3 ) GLOBAL_UNCERTAINTY_ASSIGNED_CONTEXT ( ( #216 ) ) GLOBAL_UNIT_ASSIGNED_CONTEXT ( ( #302, #876, #380 ) ) REPRESENTATION_CONTEXT ( 'NONE', 'WORKASPACE' ) );
#37 = ADVANCED_FACE ( 'NONE', ( #584 ), #697, .F. ) ;
#38 = DIRECTION ( 'NONE',  ( 0.0000000000000000000, 0.0000000000000000000, 1.000000000000000000 ) ) ;
#39 = DIRECTION ( 'NONE',  ( 0.0000000000000000000, 0.0000000000000000000, 1.000000000000000000 ) ) ;
#40 = LINE ( 'NONE', #1115, #1263 ) ;
#41 = DIRECTION ( 'NONE',  ( -1.000000000000000000, -0.0000000000000000000, 8.673617379884037937E-17 ) ) ;
#42 = CYLINDRICAL_SURFACE ( 'NONE', #644, 0.05000000000000002359 ) ;
#43 = CARTESIAN_POINT ( 'NONE',  ( -0.9499999999999997335, 1.300000000000000266, 0.5749999999999996225 ) ) ;
#44 = ORIENTED_EDGE ( 'NONE', *, *, #299, .F. ) ;
#45 = CARTESIAN_POINT ( 'NONE',  ( 0.5499999999999999334, 0.05000000000000034972, -0.6250000000000001110 ) ) ;
#46 = ORIENTED_EDGE ( 'NONE', *, *, #268, .F. ) ;
#47 = EDGE_LOOP ( 'NONE', ( #819, #402, #753, #247 ) ) ;
#48 = DIRECTION ( 'NONE',  ( 0.0000000000000000000, 1.000000000000000000, 0.0000000000000000000 ) ) ;
#49 = ADVANCED_FACE ( 'NONE', ( #102 ), #808, .F. ) ;
#50 = DIRECTION ( 'NONE',  ( 0.0000000000000000000, 0.0000000000000000000, -1.000000000000000000 ) ) ;
#51 = EDGE_CURVE ( 'NONE', #9, #532, #400, .T. ) ;
#52 = AXIS2_PLACEMENT_3D ( 'NONE', #725, #824, #241 ) ;
#53 = DIRECTION ( 'NONE',  ( -1.000000000000000000, 0.0000000000000000000, 0.0000000000000000000 ) ) ;
#54 = CARTESIAN_POINT ( 'NONE',  ( 0.5499999999756255420, 0.04999999999999991257, -0.5750000000000000666 ) ) ;
#55 = CARTESIAN_POINT ( 'NONE',  ( 1.000000000000000000, 1.300000000000000266, -0.5750000000000000666 ) ) ;
#56 = CARTESIAN_POINT ( 'NONE',  ( 0.0000000000000000000, 1.300000000000000266, 0.5749999999999996225 ) ) ;
#57 = EDGE_CURVE ( 'NONE', #293, #476, #62, .T. ) ;
#58 = DIRECTION ( 'NONE',  ( 0.0000000000000000000, 1.000000000000000000, 0.0000000000000000000 ) ) ;
#59 = VECTOR ( 'NONE', #352, 1000.000000000000000 ) ;
#60 = LINE ( 'NONE', #859, #76 ) ;
#61 = AXIS2_PLACEMENT_3D ( 'NONE', #117, #1093, #1100 ) ;
#62 = LINE ( 'NONE', #411, #1220 ) ;
#63 = DIRECTION ( 'NONE',  ( -1.000000000000000000, 0.0000000000000000000, -0.0000000000000000000 ) ) ;
#64 = ORIENTED_EDGE ( 'NONE', *, *, #542, .T. ) ;
#65 = ADVANCED_FACE ( 'NONE', ( #1124 ), #440, .F. ) ;
#66 = CARTESIAN_POINT ( 'NONE',  ( 0.5499999999756255420, 0.04999999999999991257, 0.5749999999999996225 ) ) ;
#67 = ORIENTED_EDGE ( 'NONE', *, *, #969, .F. ) ;
#68 = CARTESIAN_POINT ( 'NONE',  ( -0.9999999999999997780, 0.04999999999999991257, 0.5749999999999996225 ) ) ;
#69 = ORIENTED_EDGE ( 'NONE', *, *, #630, .T. ) ;
#70 = DIRECTION ( 'NONE',  ( 1.000000000000000000, 0.0000000000000000000, 0.0000000000000000000 ) ) ;
#71 = VERTEX_POINT ( 'NONE', #1123 ) ;
#72 = AXIS2_PLACEMENT_3D ( 'NONE', #150, #489, #74 ) ;
#73 = CARTESIAN_POINT ( 'NONE',  ( 0.9499999999999999556, 1.300000000000000266, -0.5750000000000000666 ) ) ;
#74 = DIRECTION ( 'NONE',  ( 0.0000000000000000000, 0.0000000000000000000, 1.000000000000000000 ) ) ;
#75 = DIRECTION ( 'NONE',  ( -1.000000000000000000, 0.0000000000000000000, 0.0000000000000000000 ) ) ;
#76 = VECTOR ( 'NONE', #364, 1000.000000000000000 ) ;
#77 = EDGE_CURVE ( 'NONE', #532, #748, #1053, .T. ) ;
#78 = CYLINDRICAL_SURFACE ( 'NONE', #861, 0.05000000000000002359 ) ;
#79 = LINE ( 'NONE', #493, #484 ) ;
#80 = ORIENTED_EDGE ( 'NONE', *, *, #443, .T. ) ;
#81 = AXIS2_PLACEMENT_3D ( 'NONE', #284, #282, #1247 ) ;
#82 = ORIENTED_EDGE ( 'NONE', *, *, #630, .F. ) ;
#83 = ORIENTED_EDGE ( 'NONE', *, *, #1163, .T. ) ;
#84 =( LENGTH_UNIT ( ) NAMED_UNIT ( * ) SI_UNIT ( .MILLI., .METRE. ) );
#85 = SURFACE_STYLE_USAGE ( .BOTH. , #1086 ) ;
#86 = AXIS2_PLACEMENT_3D ( 'NONE', #465, #1046, #273 ) ;
#87 = DIRECTION ( 'NONE',  ( 0.0000000000000000000, -1.000000000000000000, 0.0000000000000000000 ) ) ;
#88 = VECTOR ( 'NONE', #447, 1000.000000000000000 ) ;
#89 = FACE_OUTER_BOUND ( 'NONE', #1028, .T. ) ;
#90 = ORIENTED_EDGE ( 'NONE', *, *, #148, .T. ) ;
#91 = EDGE_CURVE ( 'NONE', #698, #771, #635, .T. ) ;
#92 =( GEOMETRIC_REPRESENTATION_CONTEXT ( 3 ) GLOBAL_UNCERTAINTY_ASSIGNED_CONTEXT ( ( #1134 ) ) GLOBAL_UNIT_ASSIGNED_CONTEXT ( ( #593, #1194, #706 ) ) REPRESENTATION_CONTEXT ( 'NONE', 'WORKASPACE' ) );
#93 = EDGE_LOOP ( 'NONE', ( #548, #90, #1225, #1190 ) ) ;
#94 = DIRECTION ( 'NONE',  ( 0.0000000000000000000, 0.0000000000000000000, -1.000000000000000000 ) ) ;
#95 = ORIENTED_EDGE ( 'NONE', *, *, #983, .T. ) ;
#96 = ORIENTED_EDGE ( 'NONE', *, *, #480, .F. ) ;
#97 = CARTESIAN_POINT ( 'NONE',  ( 0.5500000000893123797, 1.333333333333333481, -0.5750000000000000666 ) ) ;
#98 = AXIS2_PLACEMENT_3D ( 'NONE', #567, #675, #182 ) ;
#99 = DIRECTION ( 'NONE',  ( -0.0000000000000000000, -1.000000000000000000, -0.0000000000000000000 ) ) ;
#100 = LINE ( 'NONE', #1153, #1121 ) ;
#101 = VECTOR ( 'NONE', #1035, 1000.000000000000000 ) ;
#102 = FACE_OUTER_BOUND ( 'NONE', #162, .T. ) ;
#103 = FACE_OUTER_BOUND ( 'NONE', #264, .T. ) ;
#104 = EDGE_LOOP ( 'NONE', ( #887, #277, #684, #1179, #80, #181, #227, #789 ) ) ;
#105 = FILL_AREA_STYLE ('',( #1183 ) ) ;
#106 = VERTEX_POINT ( 'NONE', #529 ) ;
#107 = AXIS2_PLACEMENT_3D ( 'NONE', #904, #603, #1099 ) ;
#108 = DIRECTION ( 'NONE',  ( -1.000000000000000000, 0.0000000000000000000, 0.0000000000000000000 ) ) ;
#109 = ORIENTED_EDGE ( 'NONE', *, *, #1177, .F. ) ;
#110 = FILL_AREA_STYLE ('',( #701 ) ) ;
#111 = ORIENTED_EDGE ( 'NONE', *, *, #494, .T. ) ;
#112 = DIRECTION ( 'NONE',  ( 0.0000000000000000000, -0.0000000000000000000, -1.000000000000000000 ) ) ;
#113 = ADVANCED_FACE ( 'NONE', ( #242 ), #140, .T. ) ;
#114 =( LENGTH_UNIT ( ) NAMED_UNIT ( * ) SI_UNIT ( .MILLI., .METRE. ) );
#115 = EDGE_CURVE ( 'NONE', #801, #1191, #528, .T. ) ;
#116 = AXIS2_PLACEMENT_3D ( 'NONE', #73, #556, #171 ) ;
#117 = CARTESIAN_POINT ( 'NONE',  ( -0.9499999999999999556, 0.04999999999999991257, -0.6250000000000001110 ) ) ;
#118 = CARTESIAN_POINT ( 'NONE',  ( 0.0000000000000000000, 0.0000000000000000000, -0.5750000000000000666 ) ) ;
#119 = ADVANCED_FACE ( 'NONE', ( #1079 ), #818, .T. ) ;
#120 = SPHERICAL_SURFACE ( 'NONE', #842, 0.05000000000000000278 ) ;
#121 = VECTOR ( 'NONE', #954, 1000.000000000000000 ) ;
#122 = DIRECTION ( 'NONE',  ( 1.000000000000000000, -0.0000000000000000000, -8.673617379884039170E-17 ) ) ;
#123 = ORIENTED_EDGE ( 'NONE', *, *, #774, .F. ) ;
#124 = DIRECTION ( 'NONE',  ( 0.0000000000000000000, 0.0000000000000000000, -1.000000000000000000 ) ) ;
#125 = EDGE_LOOP ( 'NONE', ( #884, #702, #294 ) ) ;
#126 = EDGE_CURVE ( 'NONE', #127, #1191, #305, .T. ) ;
#127 = VERTEX_POINT ( 'NONE', #536 ) ;
#128 = ORIENTED_EDGE ( 'NONE', *, *, #77, .F. ) ;
#129 = AXIS2_PLACEMENT_3D ( 'NONE', #269, #185, #275 ) ;
#130 = ADVANCED_FACE ( 'NONE', ( #372 ), #796, .T. ) ;
#131 = CARTESIAN_POINT ( 'NONE',  ( -0.9499999999999997335, 0.0000000000000000000, 0.5749999999999996225 ) ) ;
#132 = DIRECTION ( 'NONE',  ( -1.000000000000000000, -0.0000000000000000000, -0.0000000000000000000 ) ) ;
#133 = CARTESIAN_POINT ( 'NONE',  ( -1.000000000000000000, 1.300000000000000266, -0.6250000000000001110 ) ) ;
#134 = CARTESIAN_POINT ( 'NONE',  ( 0.9499999999999997335, 0.0000000000000000000, 0.5749999999999996225 ) ) ;
#135 =( GEOMETRIC_REPRESENTATION_CONTEXT ( 3 ) GLOBAL_UNCERTAINTY_ASSIGNED_CONTEXT ( ( #368 ) ) GLOBAL_UNIT_ASSIGNED_CONTEXT ( ( #114, #515, #716 ) ) REPRESENTATION_CONTEXT ( 'NONE', 'WORKASPACE' ) );
#136 = ADVANCED_FACE ( 'NONE', ( #1231 ), #866, .T. ) ;
#137 = LINE ( 'NONE', #1043, #59 ) ;
#138 = CIRCLE ( 'NONE', #1166, 0.05000000000000002359 ) ;
#139 = CARTESIAN_POINT ( 'NONE',  ( -0.9499999999999999556, 1.350000000000000089, -0.5750000000000000666 ) ) ;
#140 = SPHERICAL_SURFACE ( 'NONE', #1075, 0.05000000000000000278 ) ;
#141 = CYLINDRICAL_SURFACE ( 'NONE', #300, 0.05000000000000002359 ) ;
#142 = DIRECTION ( 'NONE',  ( 1.000000000000000000, 0.0000000000000000000, 8.673617379884039170E-17 ) ) ;
#143 = PRODUCT_DEFINITION_SHAPE ( 'NONE', 'NONE',  #590 ) ;
#144 = ORIENTED_EDGE ( 'NONE', *, *, #602, .F. ) ;
#145 = DIRECTION ( 'NONE',  ( 1.000000000000000000, 0.0000000000000000000, 8.673617379884039170E-17 ) ) ;
#146 = ORIENTED_EDGE ( 'NONE', *, *, #624, .F. ) ;
#147 = ORIENTED_EDGE ( 'NONE', *, *, #1148, .F. ) ;
#148 = EDGE_CURVE ( 'NONE', #932, #912, #8, .T. ) ;
#149 = CARTESIAN_POINT ( 'NONE',  ( 0.9499999999999997335, 1.300000000000000266, 0.5749999999999996225 ) ) ;
#150 = CARTESIAN_POINT ( 'NONE',  ( 0.5499999999999999334, 1.300000000000000266, -0.5750000000000000666 ) ) ;
#151 = DIRECTION ( 'NONE',  ( 0.0000000000000000000, 0.0000000000000000000, -1.000000000000000000 ) ) ;
#152 = DIRECTION ( 'NONE',  ( 0.0000000000000000000, 0.0000000000000000000, -1.000000000000000000 ) ) ;
#153 = CARTESIAN_POINT ( 'NONE',  ( -0.9499999999999999556, 0.04999999999999991257, -0.5750000000000000666 ) ) ;
#154 = CARTESIAN_POINT ( 'NONE',  ( 500000.0000000000582, 0.05000000000000034972, 0.6083333332899649726 ) ) ;
#155 = AXIS2_PLACEMENT_3D ( 'NONE', #1, #704, #321 ) ;
#156 = DIRECTION ( 'NONE',  ( -1.000000000000000000, 0.0000000000000000000, 8.673617379884037937E-17 ) ) ;
#157 = FACE_OUTER_BOUND ( 'NONE', #1268, .T. ) ;
#158 = CYLINDRICAL_SURFACE ( 'NONE', #813, 0.05000000000000002359 ) ;
#159 = ORIENTED_EDGE ( 'NONE', *, *, #362, .F. ) ;
#160 = CARTESIAN_POINT ( 'NONE',  ( -1.000000000000000000, 1.300000000000000266, -0.5750000000000000666 ) ) ;
#161 = ORIENTED_EDGE ( 'NONE', *, *, #579, .T. ) ;
#162 = EDGE_LOOP ( 'NONE', ( #376, #1024, #1145, #208 ) ) ;
#163 = CARTESIAN_POINT ( 'NONE',  ( 0.9499999999999997335, 1.350000000000000089, 0.6249999999999996669 ) ) ;
#164 = ORIENTED_EDGE ( 'NONE', *, *, #406, .T. ) ;
#165 = DIRECTION ( 'NONE',  ( 0.0000000000000000000, 0.0000000000000000000, 1.000000000000000000 ) ) ;
#166 = EDGE_CURVE ( 'NONE', #801, #990, #28, .T. ) ;
#167 = CARTESIAN_POINT ( 'NONE',  ( -0.5499999999999999334, 0.05000000000000034972, -0.6250000000000001110 ) ) ;
#168 = ADVANCED_FACE ( 'NONE', ( #1275 ), #1027, .F. ) ;
#169 = DIRECTION ( 'NONE',  ( 1.000000000000000000, 0.0000000000000000000, 8.673617379884039170E-17 ) ) ;
#170 = DIRECTION ( 'NONE',  ( 0.0000000000000000000, 0.0000000000000000000, -1.000000000000000000 ) ) ;
#171 = DIRECTION ( 'NONE',  ( 1.000000000000000000, 0.0000000000000000000, 0.0000000000000000000 ) ) ;
#172 = ADVANCED_FACE ( 'NONE', ( #596 ), #695, .T. ) ;
#173 = FACE_OUTER_BOUND ( 'NONE', #588, .T. ) ;
#174 = CIRCLE ( 'NONE', #1060, 0.05000000000000002359 ) ;
#175 = CARTESIAN_POINT ( 'NONE',  ( 0.9499999999999999556, 0.04999999999999991257, -0.6250000000000001110 ) ) ;
#176 = PRESENTATION_LAYER_ASSIGNMENT (  '', '', ( #1076 ) ) ;
#177 = CYLINDRICAL_SURFACE ( 'NONE', #737, 0.05000000000000002359 ) ;
#178 = LINE ( 'NONE', #919, #311 ) ;
#179 = DIRECTION ( 'NONE',  ( -1.734723475976807834E-16, 0.0000000000000000000, 1.000000000000000000 ) ) ;
#180 = ORIENTED_EDGE ( 'NONE', *, *, #969, .T. ) ;
#181 = ORIENTED_EDGE ( 'NONE', *, *, #285, .F. ) ;
#182 = DIRECTION ( 'NONE',  ( -1.000000000000000000, 0.0000000000000000000, 0.0000000000000000000 ) ) ;
#183 = ORIENTED_EDGE ( 'NONE', *, *, #344, .T. ) ;
#184 = AXIS2_PLACEMENT_3D ( 'NONE', #24, #122, #812 ) ;
#185 = DIRECTION ( 'NONE',  ( 0.0000000000000000000, 1.000000000000000000, 0.0000000000000000000 ) ) ;
#186 = CARTESIAN_POINT ( 'NONE',  ( 0.5499999999756255420, 1.300000000000000266, 0.6083333333333330595 ) ) ;
#187 = EDGE_CURVE ( 'NONE', #231, #1191, #833, .T. ) ;
#188 = FACE_OUTER_BOUND ( 'NONE', #378, .T. ) ;
#189 = VECTOR ( 'NONE', #1169, 1000.000000000000000 ) ;
#190 = PRESENTATION_STYLE_ASSIGNMENT (( #207 ) ) ;
#191 = EDGE_LOOP ( 'NONE', ( #405, #674, #1204, #161 ) ) ;
#192 = VERTEX_POINT ( 'NONE', #131 ) ;
#193 =( NAMED_UNIT ( * ) PLANE_ANGLE_UNIT ( ) SI_UNIT ( $, .RADIAN. ) );
#194 = EDGE_LOOP ( 'NONE', ( #970, #82, #804, #147 ) ) ;
#195 = FILL_AREA_STYLE ('',( #783 ) ) ;
#196 = EDGE_CURVE ( 'NONE', #738, #258, #340, .T. ) ;
#197 = AXIS2_PLACEMENT_3D ( 'NONE', #68, #479, #170 ) ;
#198 = CARTESIAN_POINT ( 'NONE',  ( 0.5499999999999998224, 1.350000000000000089, 0.5749999999999996225 ) ) ;
#199 = DIRECTION ( 'NONE',  ( -8.673617379884036705E-17, -0.0000000000000000000, -1.000000000000000000 ) ) ;
#200 = VECTOR ( 'NONE', #63, 1000.000000000000000 ) ;
#201 = LINE ( 'NONE', #1259, #1218 ) ;
#202 = DIRECTION ( 'NONE',  ( 0.0000000000000000000, 0.0000000000000000000, 1.000000000000000000 ) ) ;
#203 = VECTOR ( 'NONE', #1246, 1000.000000000000000 ) ;
#204 = VECTOR ( 'NONE', #1011, 1000.000000000000000 ) ;
#205 = AXIS2_PLACEMENT_3D ( 'NONE', #637, #827, #39 ) ;
#206 = EDGE_LOOP ( 'NONE', ( #792, #1147, #1165, #486 ) ) ;
#207 = SURFACE_STYLE_USAGE ( .BOTH. , #1003 ) ;
#208 = ORIENTED_EDGE ( 'NONE', *, *, #1113, .F. ) ;
#209 = ORIENTED_EDGE ( 'NONE', *, *, #1031, .F. ) ;
#210 = ORIENTED_EDGE ( 'NONE', *, *, #1047, .T. ) ;
#211 = ADVANCED_FACE ( 'NONE', ( #929 ), #78, .T. ) ;
#212 = EDGE_CURVE ( 'NONE', #967, #106, #896, .T. ) ;
#213 = CARTESIAN_POINT ( 'NONE',  ( -0.9999999999999997780, 1.350000000000000089, 0.5749999999999995115 ) ) ;
#214 = DIRECTION ( 'NONE',  ( 0.0000000000000000000, 0.0000000000000000000, 1.000000000000000000 ) ) ;
#215 = ADVANCED_FACE ( 'NONE', ( #746 ), #42, .T. ) ;
#216 = UNCERTAINTY_MEASURE_WITH_UNIT (LENGTH_MEASURE( 1.000000000000000082E-05 ), #302, 'distance_accuracy_value', 'NONE');
#217 = CIRCLE ( 'NONE', #315, 0.03333333333333334675 ) ;
#218 = LINE ( 'NONE', #198, #298 ) ;
#219 = CARTESIAN_POINT ( 'NONE',  ( 0.0000000000000000000, 0.0000000000000000000, 0.0000000000000000000 ) ) ;
#220 = CYLINDRICAL_SURFACE ( 'NONE', #415, 0.03333333333333324267 ) ;
#221 = VECTOR ( 'NONE', #29, 1000.000000000000000 ) ;
#222 = ORIENTED_EDGE ( 'NONE', *, *, #855, .F. ) ;
#223 = CARTESIAN_POINT ( 'NONE',  ( 0.5499999999999998224, 0.0000000000000000000, 0.5749999999999995115 ) ) ;
#224 = EDGE_LOOP ( 'NONE', ( #1110, #1059, #291, #1206 ) ) ;
#225 = AXIS2_PLACEMENT_3D ( 'NONE', #807, #709, #917 ) ;
#226 = AXIS2_PLACEMENT_3D ( 'NONE', #888, #1072, #583 ) ;
#227 = ORIENTED_EDGE ( 'NONE', *, *, #772, .T. ) ;
#228 = ADVANCED_FACE ( 'NONE', ( #1020 ), #942, .F. ) ;
#229 = DIRECTION ( 'NONE',  ( 0.0000000000000000000, 0.0000000000000000000, 1.000000000000000000 ) ) ;
#230 = DIRECTION ( 'NONE',  ( 0.0000000000000000000, 0.0000000000000000000, 1.000000000000000000 ) ) ;
#231 = VERTEX_POINT ( 'NONE', #1237 ) ;
#232 = DIRECTION ( 'NONE',  ( 1.000000000000000000, 0.0000000000000000000, 0.0000000000000000000 ) ) ;
#233 = EDGE_CURVE ( 'NONE', #550, #949, #1066, .T. ) ;
#234 = ADVANCED_FACE ( 'NONE', ( #1037 ), #987, .T. ) ;
#235 = AXIS2_PLACEMENT_3D ( 'NONE', #554, #1241, #1045 ) ;
#236 = CARTESIAN_POINT ( 'NONE',  ( -1.000000000000000000, 1.350000000000000089, -0.5750000000000000666 ) ) ;
#237 = DIRECTION ( 'NONE',  ( 1.000000000000000000, 0.0000000000000000000, 0.0000000000000000000 ) ) ;
#238 = DIRECTION ( 'NONE',  ( -1.000000000000000000, 0.0000000000000000000, 0.0000000000000000000 ) ) ;
#239 = CIRCLE ( 'NONE', #982, 0.05000000000000002359 ) ;
#240 = LINE ( 'NONE', #829, #527 ) ;
#241 = DIRECTION ( 'NONE',  ( 0.0000000000000000000, 0.0000000000000000000, 1.000000000000000000 ) ) ;
#242 = FACE_OUTER_BOUND ( 'NONE', #419, .T. ) ;
#243 = ADVANCED_FACE ( 'NONE', ( #776 ), #729, .T. ) ;
#244 = DIRECTION ( 'NONE',  ( 1.000000000000000000, 0.0000000000000000000, 0.0000000000000000000 ) ) ;
#245 = ORIENTED_EDGE ( 'NONE', *, *, #233, .F. ) ;
#246 = ORIENTED_EDGE ( 'NONE', *, *, #561, .F. ) ;
#247 = ORIENTED_EDGE ( 'NONE', *, *, #524, .T. ) ;
#248 = CARTESIAN_POINT ( 'NONE',  ( -0.5499999999999998224, 0.05000000000000034972, 0.6249999999999996669 ) ) ;
#249 = DIRECTION ( 'NONE',  ( 0.0000000000000000000, 0.0000000000000000000, -1.000000000000000000 ) ) ;
#250 = PLANE ( 'NONE',  #906 ) ;
#251 = CARTESIAN_POINT ( 'NONE',  ( -1.000000000000000000, 1.350000000000000089, -0.6250000000000001110 ) ) ;
#252 = AXIS2_PLACEMENT_3D ( 'NONE', #920, #332, #504 ) ;
#253 = DIRECTION ( 'NONE',  ( 0.0000000000000000000, 0.0000000000000000000, 1.000000000000000000 ) ) ;
#254 = ADVANCED_FACE ( 'NONE', ( #560 ), #547, .F. ) ;
#255 = VECTOR ( 'NONE', #395, 1000.000000000000000 ) ;
#256 = DIRECTION ( 'NONE',  ( 1.734723475976807834E-16, 0.0000000000000000000, -1.000000000000000000 ) ) ;
#257 = VECTOR ( 'NONE', #179, 1000.000000000000000 ) ;
#258 = VERTEX_POINT ( 'NONE', #1136 ) ;
#259 = DIRECTION ( 'NONE',  ( 1.000000000000000000, 0.0000000000000000000, -8.673617379884037937E-17 ) ) ;
#260 = ORIENTED_EDGE ( 'NONE', *, *, #268, .T. ) ;
#261 = DIRECTION ( 'NONE',  ( 0.0000000000000000000, 0.0000000000000000000, 1.000000000000000000 ) ) ;
#262 = ORIENTED_EDGE ( 'NONE', *, *, #212, .T. ) ;
#263 = EDGE_CURVE ( 'NONE', #306, #391, #469, .T. ) ;
#264 = EDGE_LOOP ( 'NONE', ( #951, #1151, #966 ) ) ;
#265 = DIRECTION ( 'NONE',  ( -1.000000000000000000, 0.0000000000000000000, 0.0000000000000000000 ) ) ;
#266 = DIRECTION ( 'NONE',  ( 0.0000000000000000000, 0.0000000000000000000, 1.000000000000000000 ) ) ;
#267 = DIRECTION ( 'NONE',  ( -1.734723475976807834E-16, 0.0000000000000000000, -1.000000000000000000 ) ) ;
#268 = EDGE_CURVE ( 'NONE', #516, #1255, #483, .T. ) ;
#269 = CARTESIAN_POINT ( 'NONE',  ( -0.9499999999999999556, 1.300000000000000266, -0.5750000000000000666 ) ) ;
#270 = AXIS2_PLACEMENT_3D ( 'NONE', #759, #460, #75 ) ;
#271 = CIRCLE ( 'NONE', #446, 0.03333333333333324267 ) ;
#272 = LINE ( 'NONE', #578, #189 ) ;
#273 = DIRECTION ( 'NONE',  ( -8.673617379884039170E-17, 0.0000000000000000000, 1.000000000000000000 ) ) ;
#274 = VECTOR ( 'NONE', #825, 1000.000000000000000 ) ;
#275 = DIRECTION ( 'NONE',  ( 1.000000000000000000, 0.0000000000000000000, 0.0000000000000000000 ) ) ;
#276 = EDGE_LOOP ( 'NONE', ( #1164, #1276, #699, #571 ) ) ;
#277 = ORIENTED_EDGE ( 'NONE', *, *, #91, .F. ) ;
#278 = DIRECTION ( 'NONE',  ( 0.0000000000000000000, 0.0000000000000000000, -1.000000000000000000 ) ) ;
#279 = ORIENTED_EDGE ( 'NONE', *, *, #608, .F. ) ;
#280 = AXIS2_PLACEMENT_3D ( 'NONE', #614, #1222, #444 ) ;
#281 = ORIENTED_EDGE ( 'NONE', *, *, #1209, .F. ) ;
#282 = DIRECTION ( 'NONE',  ( 0.0000000000000000000, 0.0000000000000000000, 1.000000000000000000 ) ) ;
#283 = DIRECTION ( 'NONE',  ( 1.734723475976807834E-16, -0.0000000000000000000, 1.000000000000000000 ) ) ;
#284 = CARTESIAN_POINT ( 'NONE',  ( 0.9499999999999997335, 0.04999999999999991257, 0.5749999999999996225 ) ) ;
#285 = EDGE_CURVE ( 'NONE', #902, #306, #434, .T. ) ;
#286 = LINE ( 'NONE', #118, #204 ) ;
#287 = CARTESIAN_POINT ( 'NONE',  ( 0.0000000000000000000, 0.0000000000000000000, -0.5750000000000000666 ) ) ;
#288 = FACE_OUTER_BOUND ( 'NONE', #224, .T. ) ;
#289 = CIRCLE ( 'NONE', #1279, 0.05000000000000002359 ) ;
#290 = ORIENTED_EDGE ( 'NONE', *, *, #538, .T. ) ;
#291 = ORIENTED_EDGE ( 'NONE', *, *, #895, .T. ) ;
#292 =( NAMED_UNIT ( * ) SI_UNIT ( $, .STERADIAN. ) SOLID_ANGLE_UNIT ( ) );
#293 = VERTEX_POINT ( 'NONE', #960 ) ;
#294 = ORIENTED_EDGE ( 'NONE', *, *, #115, .F. ) ;
#295 = PRODUCT_DEFINITION_CONTEXT ( 'detailed design', #985, 'design' ) ;
#296 = CARTESIAN_POINT ( 'NONE',  ( -0.5499999999999998224, 0.0000000000000000000, 0.5749999999999995115 ) ) ;
#297 = CARTESIAN_POINT ( 'NONE',  ( -1.000000000000000000, 1.350000000000000089, -0.6250000000000001110 ) ) ;
#298 = VECTOR ( 'NONE', #485, 1000.000000000000000 ) ;
#299 = EDGE_CURVE ( 'NONE', #967, #916, #1106, .T. ) ;
#300 = AXIS2_PLACEMENT_3D ( 'NONE', #1216, #238, #21 ) ;
#301 = CIRCLE ( 'NONE', #1048, 0.03333333333333324267 ) ;
#302 =( LENGTH_UNIT ( ) NAMED_UNIT ( * ) SI_UNIT ( .MILLI., .METRE. ) );
#303 = VECTOR ( 'NONE', #543, 1000.000000000000000 ) ;
#304 = CARTESIAN_POINT ( 'NONE',  ( -0.9999999999999997780, 0.04999999999999991257, 0.5749999999999996225 ) ) ;
#305 = LINE ( 'NONE', #740, #1000 ) ;
#306 = VERTEX_POINT ( 'NONE', #643 ) ;
#307 = CARTESIAN_POINT ( 'NONE',  ( 0.5500000000893123797, 0.05000000000000034972, 0.6083333333333330595 ) ) ;
#308 = ORIENTED_EDGE ( 'NONE', *, *, #518, .T. ) ;
#309 = ORIENTED_EDGE ( 'NONE', *, *, #724, .T. ) ;
#310 = PRESENTATION_LAYER_ASSIGNMENT (  '', '', ( #569 ) ) ;
#311 = VECTOR ( 'NONE', #330, 1000.000000000000000 ) ;
#312 = FACE_OUTER_BOUND ( 'NONE', #533, .T. ) ;
#313 = AXIS2_PLACEMENT_3D ( 'NONE', #408, #325, #230 ) ;
#314 = CARTESIAN_POINT ( 'NONE',  ( 0.9499999999999999556, 1.350000000000000089, -0.5750000000000000666 ) ) ;
#315 = AXIS2_PLACEMENT_3D ( 'NONE', #820, #815, #925 ) ;
#316 = ORIENTED_EDGE ( 'NONE', *, *, #873, .F. ) ;
#317 = CARTESIAN_POINT ( 'NONE',  ( 500000.0000000000582, 1.333333333333333481, -0.5750000000433681535 ) ) ;
#318 = EDGE_LOOP ( 'NONE', ( #472, #262, #852 ) ) ;
#319 = ORIENTED_EDGE ( 'NONE', *, *, #608, .T. ) ;
#320 = ORIENTED_EDGE ( 'NONE', *, *, #1088, .T. ) ;
#321 = DIRECTION ( 'NONE',  ( -1.000000000000000000, 0.0000000000000000000, -0.0000000000000000000 ) ) ;
#322 = DIRECTION ( 'NONE',  ( -1.000000000000000000, 0.0000000000000000000, 0.0000000000000000000 ) ) ;
#323 = EDGE_CURVE ( 'NONE', #1055, #1006, #1089, .T. ) ;
#324 = ADVANCED_FACE ( 'NONE', ( #693 ), #946, .T. ) ;
#325 = DIRECTION ( 'NONE',  ( -1.000000000000000000, -0.0000000000000000000, 8.673617379884037937E-17 ) ) ;
#326 = ADVANCED_FACE ( 'NONE', ( #188 ), #720, .F. ) ;
#327 = LINE ( 'NONE', #1219, #1184 ) ;
#328 = CARTESIAN_POINT ( 'NONE',  ( 0.9499999999999997335, 1.350000000000000089, 0.5749999999999996225 ) ) ;
#329 = VECTOR ( 'NONE', #931, 1000.000000000000000 ) ;
#330 = DIRECTION ( 'NONE',  ( -8.673617379884036705E-17, -0.0000000000000000000, -1.000000000000000000 ) ) ;
#331 = EDGE_LOOP ( 'NONE', ( #279, #858, #487, #572 ) ) ;
#332 = DIRECTION ( 'NONE',  ( 0.0000000000000000000, 1.000000000000000000, 0.0000000000000000000 ) ) ;
#333 = AXIS2_PLACEMENT_3D ( 'NONE', #677, #495, #1180 ) ;
#334 = ORIENTED_EDGE ( 'NONE', *, *, #742, .F. ) ;
#335 = ORIENTED_EDGE ( 'NONE', *, *, #3, .F. ) ;
#336 = STYLED_ITEM ( 'NONE', ( #190 ), #17 ) ;
#337 = ADVANCED_FACE ( 'NONE', ( #1273 ), #926, .T. ) ;
#338 = CARTESIAN_POINT ( 'NONE',  ( 0.9499999999999999556, 0.0000000000000000000, -0.5750000000000000666 ) ) ;
#339 = SPHERICAL_SURFACE ( 'NONE', #129, 0.05000000000000000278 ) ;
#340 = CIRCLE ( 'NONE', #1155, 0.03333333333333324267 ) ;
#341 = VECTOR ( 'NONE', #605, 1000.000000000000000 ) ;
#342 = DIRECTION ( 'NONE',  ( -1.000000000000000000, 0.0000000000000000000, 0.0000000000000000000 ) ) ;
#343 = FACE_OUTER_BOUND ( 'NONE', #194, .T. ) ;
#344 = EDGE_CURVE ( 'NONE', #361, #949, #763, .T. ) ;
#345 = CARTESIAN_POINT ( 'NONE',  ( -0.9499999999999997335, 0.05000000000000000278, 0.5749999999999996225 ) ) ;
#346 = ORIENTED_EDGE ( 'NONE', *, *, #1137, .T. ) ;
#347 = ADVANCED_FACE ( 'NONE', ( #173 ), #703, .F. ) ;
#348 = ORIENTED_EDGE ( 'NONE', *, *, #691, .F. ) ;
#349 = CARTESIAN_POINT ( 'NONE',  ( 0.9499999999999999556, 1.350000000000000089, -0.6250000000000001110 ) ) ;
#350 = ORIENTED_EDGE ( 'NONE', *, *, #1265, .T. ) ;
#351 = CARTESIAN_POINT ( 'NONE',  ( -0.5499999999999998224, 1.350000000000000089, 0.5749999999999996225 ) ) ;
#352 = DIRECTION ( 'NONE',  ( -1.000000000000000000, -0.0000000000000000000, -0.0000000000000000000 ) ) ;
#353 = CARTESIAN_POINT ( 'NONE',  ( 1.000000000000000000, 1.350000000000000089, -0.6250000000000001110 ) ) ;
#354 = AXIS2_PLACEMENT_3D ( 'NONE', #758, #958, #856 ) ;
#355 = LINE ( 'NONE', #442, #88 ) ;
#356 = CIRCLE ( 'NONE', #662, 0.05000000000000002359 ) ;
#357 = CLOSED_SHELL ( 'NONE', ( #903, #37, #1195, #1211, #428, #715, #215, #30, #1120, #620, #915, #1199, #1009, #5, #806, #1097, #113, #119 ) ) ;
#358 = CARTESIAN_POINT ( 'NONE',  ( 0.5500000000893123797, 1.333333333333333481, 0.5749999999999994005 ) ) ;
#359 = ORIENTED_EDGE ( 'NONE', *, *, #506, .F. ) ;
#360 = DIRECTION ( 'NONE',  ( 0.0000000000000000000, 0.0000000000000000000, 1.000000000000000000 ) ) ;
#361 = VERTEX_POINT ( 'NONE', #4 ) ;
#362 = EDGE_CURVE ( 'NONE', #10, #71, #413, .T. ) ;
#363 = AXIS2_PLACEMENT_3D ( 'NONE', #517, #922, #1197 ) ;
#364 = DIRECTION ( 'NONE',  ( -1.000000000000000000, 0.0000000000000000000, 0.0000000000000000000 ) ) ;
#365 = VERTEX_POINT ( 'NONE', #907 ) ;
#366 = DIRECTION ( 'NONE',  ( 1.734723475976807834E-16, 0.0000000000000000000, -1.000000000000000000 ) ) ;
#367 = CARTESIAN_POINT ( 'NONE',  ( -0.5499999999999998224, 0.04999999999999991951, -0.6083333333333333925 ) ) ;
#368 = UNCERTAINTY_MEASURE_WITH_UNIT (LENGTH_MEASURE( 1.000000000000000082E-05 ), #114, 'distance_accuracy_value', 'NONE');
#369 = PLANE ( 'NONE',  #1128 ) ;
#370 = SPHERICAL_SURFACE ( 'NONE', #235, 0.05000000000000000278 ) ;
#371 = VECTOR ( 'NONE', #639, 1000.000000000000000 ) ;
#372 = FACE_OUTER_BOUND ( 'NONE', #1094, .T. ) ;
#373 = VECTOR ( 'NONE', #616, 1000.000000000000000 ) ;
#374 = DIRECTION ( 'NONE',  ( 0.0000000000000000000, 0.0000000000000000000, 1.000000000000000000 ) ) ;
#375 = ORIENTED_EDGE ( 'NONE', *, *, #362, .T. ) ;
#376 = ORIENTED_EDGE ( 'NONE', *, *, #999, .F. ) ;
#377 = CARTESIAN_POINT ( 'NONE',  ( 500000.0000000000582, 0.04999999999999991257, -0.5750000000433681535 ) ) ;
#378 = EDGE_LOOP ( 'NONE', ( #96, #437, #589, #33 ) ) ;
#379 = EDGE_LOOP ( 'NONE', ( #1068, #638, #69, #658 ) ) ;
#380 =( NAMED_UNIT ( * ) SI_UNIT ( $, .STERADIAN. ) SOLID_ANGLE_UNIT ( ) );
#381 = CARTESIAN_POINT ( 'NONE',  ( 0.9499999999999999556, 1.350000000000000089, -0.5750000000000000666 ) ) ;
#382 = EDGE_CURVE ( 'NONE', #127, #365, #975, .T. ) ;
#383 = PLANE ( 'NONE',  #756 ) ;
#384 = LINE ( 'NONE', #35, #1249 ) ;
#385 = LINE ( 'NONE', #1244, #121 ) ;
#386 = ORIENTED_EDGE ( 'NONE', *, *, #561, .T. ) ;
#387 = APPLICATION_PROTOCOL_DEFINITION ( 'draft international standard', 'automotive_design', 1998, #1171 ) ;
#388 = UNCERTAINTY_MEASURE_WITH_UNIT (LENGTH_MEASURE( 1.000000000000000082E-05 ), #84, 'distance_accuracy_value', 'NONE');
#389 = ORIENTED_EDGE ( 'NONE', *, *, #624, .T. ) ;
#390 = CARTESIAN_POINT ( 'NONE',  ( -0.5499999999999999334, 1.350000000000000089, -0.6250000000000001110 ) ) ;
#391 = VERTEX_POINT ( 'NONE', #314 ) ;
#392 = DIRECTION ( 'NONE',  ( -1.000000000000000000, -0.0000000000000000000, 8.673617379884037937E-17 ) ) ;
#393 = EDGE_LOOP ( 'NONE', ( #1150, #780, #617, #978 ) ) ;
#394 = DIRECTION ( 'NONE',  ( 1.000000000000000000, 0.0000000000000000000, 0.0000000000000000000 ) ) ;
#395 = DIRECTION ( 'NONE',  ( 1.000000000000000000, 0.0000000000000000000, 0.0000000000000000000 ) ) ;
#396 = CARTESIAN_POINT ( 'NONE',  ( -0.9499999999999997335, 0.04999999999999991257, 0.5749999999999996225 ) ) ;
#397 = AXIS2_PLACEMENT_3D ( 'NONE', #921, #1019, #342 ) ;
#398 = CIRCLE ( 'NONE', #974, 0.05000000000000002359 ) ;
#399 = VECTOR ( 'NONE', #199, 1000.000000000000000 ) ;
#400 = LINE ( 'NONE', #27, #329 ) ;
#401 = FACE_OUTER_BOUND ( 'NONE', #331, .T. ) ;
#402 = ORIENTED_EDGE ( 'NONE', *, *, #905, .T. ) ;
#403 = SURFACE_STYLE_USAGE ( .BOTH. , #901 ) ;
#404 = ORIENTED_EDGE ( 'NONE', *, *, #187, .F. ) ;
#405 = ORIENTED_EDGE ( 'NONE', *, *, #212, .F. ) ;
#406 = EDGE_CURVE ( 'NONE', #670, #127, #879, .T. ) ;
#407 = ADVANCED_FACE ( 'NONE', ( #680 ), #1170, .T. ) ;
#408 = CARTESIAN_POINT ( 'NONE',  ( 500000.0000000000582, 1.300000000000000266, -0.5750000000433681535 ) ) ;
#409 = CARTESIAN_POINT ( 'NONE',  ( 500000.0000000000582, 1.300000000000000266, -0.6083333333767014794 ) ) ;
#410 = DIRECTION ( 'NONE',  ( -0.0000000000000000000, 1.000000000000000000, -0.0000000000000000000 ) ) ;
#411 = CARTESIAN_POINT ( 'NONE',  ( -0.5499999999999998224, 1.300000000000000266, 0.6083333333333330595 ) ) ;
#412 = CARTESIAN_POINT ( 'NONE',  ( -1.000000000000000000, 1.350000000000000089, -0.5750000000000000666 ) ) ;
#413 = LINE ( 'NONE', #802, #849 ) ;
#414 = CIRCLE ( 'NONE', #226, 0.05000000000000002359 ) ;
#415 = AXIS2_PLACEMENT_3D ( 'NONE', #995, #1010, #214 ) ;
#416 = DIRECTION ( 'NONE',  ( 0.0000000000000000000, 0.0000000000000000000, 1.000000000000000000 ) ) ;
#417 = ORIENTED_EDGE ( 'NONE', *, *, #981, .F. ) ;
#418 = CARTESIAN_POINT ( 'NONE',  ( -0.9499999999999997335, 1.350000000000000089, 0.5749999999999996225 ) ) ;
#419 = EDGE_LOOP ( 'NONE', ( #386, #183, #245 ) ) ;
#420 = CARTESIAN_POINT ( 'NONE',  ( -0.5499999999999999334, 0.04999999999999991257, -0.5750000000000000666 ) ) ;
#421 = ORIENTED_EDGE ( 'NONE', *, *, #961, .T. ) ;
#422 = DIRECTION ( 'NONE',  ( 0.0000000000000000000, 0.0000000000000000000, 1.000000000000000000 ) ) ;
#423 = DIRECTION ( 'NONE',  ( 0.0000000000000000000, -1.000000000000000000, 0.0000000000000000000 ) ) ;
#424 = DIRECTION ( 'NONE',  ( 0.0000000000000000000, -1.000000000000000000, 0.0000000000000000000 ) ) ;
#425 = EDGE_CURVE ( 'NONE', #1080, #670, #1017, .T. ) ;
#426 = AXIS2_PLACEMENT_3D ( 'NONE', #552, #142, #1239 ) ;
#427 = PLANE ( 'NONE',  #252 ) ;
#428 = ADVANCED_FACE ( 'NONE', ( #963 ), #427, .T. ) ;
#429 = DIRECTION ( 'NONE',  ( 0.0000000000000000000, 1.000000000000000000, 0.0000000000000000000 ) ) ;
#430 = CARTESIAN_POINT ( 'NONE',  ( 0.9499999999999997335, 1.350000000000000089, 0.6249999999999996669 ) ) ;
#431 = VECTOR ( 'NONE', #410, 1000.000000000000000 ) ;
#432 = LINE ( 'NONE', #1159, #467 ) ;
#433 = CARTESIAN_POINT ( 'NONE',  ( 0.9499999999999997335, 1.300000000000000266, 0.5749999999999996225 ) ) ;
#434 = CIRCLE ( 'NONE', #72, 0.05000000000000002359 ) ;
#435 = LINE ( 'NONE', #892, #255 ) ;
#436 = DIRECTION ( 'NONE',  ( 8.673617379884037937E-17, 0.0000000000000000000, -1.000000000000000000 ) ) ;
#437 = ORIENTED_EDGE ( 'NONE', *, *, #22, .T. ) ;
#438 = CARTESIAN_POINT ( 'NONE',  ( 0.0000000000000000000, 1.350000000000000089, 0.0000000000000000000 ) ) ;
#439 = VERTEX_POINT ( 'NONE', #519 ) ;
#440 = PLANE ( 'NONE',  #205 ) ;
#441 = EDGE_LOOP ( 'NONE', ( #359, #111, #714, #417 ) ) ;
#442 = CARTESIAN_POINT ( 'NONE',  ( 1.000000000000000000, 0.04999999999999991257, -0.6250000000000001110 ) ) ;
#443 = EDGE_CURVE ( 'NONE', #514, #306, #649, .T. ) ;
#444 = DIRECTION ( 'NONE',  ( 0.0000000000000000000, 0.0000000000000000000, 1.000000000000000000 ) ) ;
#445 = AXIS2_PLACEMENT_3D ( 'NONE', #923, #145, #152 ) ;
#446 = AXIS2_PLACEMENT_3D ( 'NONE', #54, #950, #450 ) ;
#447 = DIRECTION ( 'NONE',  ( -1.734723475976807834E-16, 0.0000000000000000000, 1.000000000000000000 ) ) ;
#448 = DIRECTION ( 'NONE',  ( 1.000000000000000000, 0.0000000000000000000, 1.734723475976811778E-16 ) ) ;
#449 = CARTESIAN_POINT ( 'NONE',  ( 0.5499999999756255420, 0.01666666666666666644, 0.5749999999132633377 ) ) ;
#450 = DIRECTION ( 'NONE',  ( 0.0000000000000000000, 0.0000000000000000000, -1.000000000000000000 ) ) ;
#451 = LINE ( 'NONE', #163, #257 ) ;
#452 = FACE_OUTER_BOUND ( 'NONE', #751, .T. ) ;
#453 = CLOSED_SHELL ( 'NONE', ( #520, #826, #525, #722, #49, #19, #707, #324, #326, #407 ) ) ;
#454 = EDGE_CURVE ( 'NONE', #1227, #801, #612, .T. ) ;
#455 = CARTESIAN_POINT ( 'NONE',  ( 0.0000000000000000000, 1.300000000000000266, -0.5750000000000000666 ) ) ;
#456 = VERTEX_POINT ( 'NONE', #606 ) ;
#457 = ORIENTED_EDGE ( 'NONE', *, *, #524, .F. ) ;
#458 = ORIENTED_EDGE ( 'NONE', *, *, #772, .F. ) ;
#459 = CARTESIAN_POINT ( 'NONE',  ( -0.5499999999999998224, 0.04999999999999991257, 0.5749999999999996225 ) ) ;
#460 = DIRECTION ( 'NONE',  ( 0.0000000000000000000, -1.000000000000000000, 0.0000000000000000000 ) ) ;
#461 = CARTESIAN_POINT ( 'NONE',  ( 0.5500000000893123797, 1.300000000000000266, 0.6083333333333330595 ) ) ;
#462 = CARTESIAN_POINT ( 'NONE',  ( -0.9499999999999998446, 0.0000000000000000000, 1.647987302177967233E-16 ) ) ;
#463 = AXIS2_PLACEMENT_3D ( 'NONE', #219, #874, #683 ) ;
#464 = DIRECTION ( 'NONE',  ( 1.000000000000000000, 0.0000000000000000000, 0.0000000000000000000 ) ) ;
#465 = CARTESIAN_POINT ( 'NONE',  ( 0.5499999999999999334, 1.350000000000000089, -0.6250000000000001110 ) ) ;
#466 = VECTOR ( 'NONE', #673, 1000.000000000000000 ) ;
#467 = VECTOR ( 'NONE', #661, 1000.000000000000000 ) ;
#468 = DIRECTION ( 'NONE',  ( -1.000000000000000000, 0.0000000000000000000, 1.734723475976811778E-16 ) ) ;
#469 = LINE ( 'NONE', #1050, #203 ) ;
#470 = LINE ( 'NONE', #623, #221 ) ;
#471 = ORIENTED_EDGE ( 'NONE', *, *, #754, .T. ) ;
#472 = ORIENTED_EDGE ( 'NONE', *, *, #587, .F. ) ;
#473 = MECHANICAL_DESIGN_GEOMETRIC_PRESENTATION_REPRESENTATION (  '', ( #336 ), #135 ) ;
#474 = AXIS2_PLACEMENT_3D ( 'NONE', #420, #810, #229 ) ;
#475 = DIRECTION ( 'NONE',  ( 0.0000000000000000000, 0.0000000000000000000, 1.000000000000000000 ) ) ;
#476 = VERTEX_POINT ( 'NONE', #18 ) ;
#477 = ORIENTED_EDGE ( 'NONE', *, *, #983, .F. ) ;
#478 = EDGE_LOOP ( 'NONE', ( #12, #1189, #530, #872 ) ) ;
#479 = DIRECTION ( 'NONE',  ( 1.000000000000000000, -0.0000000000000000000, 0.0000000000000000000 ) ) ;
#480 = EDGE_CURVE ( 'NONE', #1175, #615, #893, .T. ) ;
#481 = PRODUCT ( 'GJ821BR71H105KA12L', 'GJ821BR71H105KA12L', '', ( #891 ) ) ;
#482 = VECTOR ( 'NONE', #944, 1000.000000000000000 ) ;
#483 = CIRCLE ( 'NONE', #935, 0.05000000000000002359 ) ;
#484 = VECTOR ( 'NONE', #499, 1000.000000000000000 ) ;
#485 = DIRECTION ( 'NONE',  ( -1.000000000000000000, 0.0000000000000000000, 0.0000000000000000000 ) ) ;
#486 = ORIENTED_EDGE ( 'NONE', *, *, #822, .F. ) ;
#487 = ORIENTED_EDGE ( 'NONE', *, *, #648, .T. ) ;
#488 = ORIENTED_EDGE ( 'NONE', *, *, #828, .T. ) ;
#489 = DIRECTION ( 'NONE',  ( 1.000000000000000000, 0.0000000000000000000, 8.673617379884039170E-17 ) ) ;
#490 = DIRECTION ( 'NONE',  ( 0.0000000000000000000, 0.0000000000000000000, -1.000000000000000000 ) ) ;
#491 = AXIS2_PLACEMENT_3D ( 'NONE', #438, #48, #38 ) ;
#492 = AXIS2_PLACEMENT_3D ( 'NONE', #848, #267, #468 ) ;
#493 = CARTESIAN_POINT ( 'NONE',  ( 0.0000000000000000000, 0.0000000000000000000, 0.5749999999999996225 ) ) ;
#494 = EDGE_CURVE ( 'NONE', #615, #769, #327, .T. ) ;
#495 = DIRECTION ( 'NONE',  ( -1.000000000000000000, -0.0000000000000000000, -0.0000000000000000000 ) ) ;
#496 = CIRCLE ( 'NONE', #116, 0.05000000000000002359 ) ;
#497 = CLOSED_SHELL ( 'NONE', ( #228, #168, #254, #347, #505, #65, #609, #172, #130, #1101, #511, #908, #234, #243, #211, #136, #337, #1226 ) ) ;
#498 = ORIENTED_EDGE ( 'NONE', *, *, #1270, .F. ) ;
#499 = DIRECTION ( 'NONE',  ( 1.000000000000000000, -0.0000000000000000000, -0.0000000000000000000 ) ) ;
#500 = ORIENTED_EDGE ( 'NONE', *, *, #895, .F. ) ;
#501 = ADVANCED_BREP_SHAPE_REPRESENTATION ( 'GJ821BR71H105KA12L', ( #17, #733, #1251, #463 ), #36 ) ;
#502 = ORIENTED_EDGE ( 'NONE', *, *, #952, .T. ) ;
#503 = DIRECTION ( 'NONE',  ( 0.0000000000000000000, 1.000000000000000000, -0.0000000000000000000 ) ) ;
#504 = DIRECTION ( 'NONE',  ( 0.0000000000000000000, -0.0000000000000000000, 1.000000000000000000 ) ) ;
#505 = ADVANCED_FACE ( 'NONE', ( #526 ), #1025, .T. ) ;
#506 = EDGE_CURVE ( 'NONE', #615, #656, #910, .T. ) ;
#507 = CIRCLE ( 'NONE', #426, 0.05000000000000002359 ) ;
#508 = VECTOR ( 'NONE', #424, 1000.000000000000000 ) ;
#509 = DIRECTION ( 'NONE',  ( -1.000000000000000000, -0.0000000000000000000, 8.673617379884037937E-17 ) ) ;
#510 = EDGE_LOOP ( 'NONE', ( #31, #642, #457, #44 ) ) ;
#511 = ADVANCED_FACE ( 'NONE', ( #157 ), #120, .T. ) ;
#512 = ORIENTED_EDGE ( 'NONE', *, *, #1143, .T. ) ;
#513 = DIRECTION ( 'NONE',  ( -0.0000000000000000000, 1.000000000000000000, 0.0000000000000000000 ) ) ;
#514 = VERTEX_POINT ( 'NONE', #830 ) ;
#515 =( NAMED_UNIT ( * ) PLANE_ANGLE_UNIT ( ) SI_UNIT ( $, .RADIAN. ) );
#516 = VERTEX_POINT ( 'NONE', #248 ) ;
#517 = CARTESIAN_POINT ( 'NONE',  ( -0.5499999999999998224, 1.300000000000000266, -0.5750000000000000666 ) ) ;
#518 = EDGE_CURVE ( 'NONE', #10, #682, #384, .T. ) ;
#519 = CARTESIAN_POINT ( 'NONE',  ( -0.5499999999999998224, 0.01666666666666666644, -0.5749999999999999556 ) ) ;
#520 = ADVANCED_FACE ( 'NONE', ( #1141 ), #250, .T. ) ;
#521 = DIRECTION ( 'NONE',  ( 0.0000000000000000000, -1.000000000000000000, 0.0000000000000000000 ) ) ;
#522 = CARTESIAN_POINT ( 'NONE',  ( 1.000000000000000000, 1.350000000000000089, -0.6250000000000001110 ) ) ;
#523 = DIRECTION ( 'NONE',  ( 1.000000000000000000, 0.0000000000000000000, 0.0000000000000000000 ) ) ;
#524 = EDGE_CURVE ( 'NONE', #916, #932, #355, .T. ) ;
#525 = ADVANCED_FACE ( 'NONE', ( #666 ), #1130, .F. ) ;
#526 = FACE_OUTER_BOUND ( 'NONE', #276, .T. ) ;
#527 = VECTOR ( 'NONE', #1039, 1000.000000000000000 ) ;
#528 = CIRCLE ( 'NONE', #1212, 0.05000000000000002359 ) ;
#529 = CARTESIAN_POINT ( 'NONE',  ( 0.9499999999999999556, 1.300000000000000266, -0.6250000000000001110 ) ) ;
#530 = ORIENTED_EDGE ( 'NONE', *, *, #57, .T. ) ;
#531 = CARTESIAN_POINT ( 'NONE',  ( -0.5499999999999999334, 1.350000000000000089, -0.6250000000000001110 ) ) ;
#532 = VERTEX_POINT ( 'NONE', #732 ) ;
#533 = EDGE_LOOP ( 'NONE', ( #821, #956, #1280, #619 ) ) ;
#534 = CARTESIAN_POINT ( 'NONE',  ( 0.9499999999999997335, 0.04999999999999991257, 0.6249999999999996669 ) ) ;
#535 = ORIENTED_EDGE ( 'NONE', *, *, #382, .F. ) ;
#536 = CARTESIAN_POINT ( 'NONE',  ( -0.9499999999999999556, 1.350000000000000089, -0.5750000000000000666 ) ) ;
#537 = DIRECTION ( 'NONE',  ( 0.0000000000000000000, 1.000000000000000000, 0.0000000000000000000 ) ) ;
#538 = EDGE_CURVE ( 'NONE', #1208, #953, #398, .T. ) ;
#539 = CARTESIAN_POINT ( 'NONE',  ( -0.5499999999999998224, 0.01666666666666662133, 0.5749999999999995115 ) ) ;
#540 = VECTOR ( 'NONE', #521, 1000.000000000000000 ) ;
#541 = SHAPE_DEFINITION_REPRESENTATION ( #143, #501 ) ;
#542 = EDGE_CURVE ( 'NONE', #770, #231, #137, .T. ) ;
#543 = DIRECTION ( 'NONE',  ( 0.0000000000000000000, -1.000000000000000000, -0.0000000000000000000 ) ) ;
#544 = CIRCLE ( 'NONE', #1168, 0.05000000000000002359 ) ;
#545 = CARTESIAN_POINT ( 'NONE',  ( 0.9499999999999997335, 0.05000000000000000278, 0.5749999999999996225 ) ) ;
#546 = ORIENTED_EDGE ( 'NONE', *, *, #878, .F. ) ;
#547 = PLANE ( 'NONE',  #86 ) ;
#548 = ORIENTED_EDGE ( 'NONE', *, *, #1070, .T. ) ;
#549 = CARTESIAN_POINT ( 'NONE',  ( 0.9999999999999997780, 1.300000000000000266, 0.5749999999999996225 ) ) ;
#550 = VERTEX_POINT ( 'NONE', #928 ) ;
#551 = DIRECTION ( 'NONE',  ( -1.000000000000000000, 0.0000000000000000000, -1.734723475976807834E-16 ) ) ;
#552 = CARTESIAN_POINT ( 'NONE',  ( 0.5499999999999998224, 1.300000000000000266, 0.5749999999999996225 ) ) ;
#553 = AXIS2_PLACEMENT_3D ( 'NONE', #1267, #394, #1182 ) ;
#554 = CARTESIAN_POINT ( 'NONE',  ( -0.9499999999999997335, 1.300000000000000266, 0.5749999999999996225 ) ) ;
#555 = DIRECTION ( 'NONE',  ( 0.0000000000000000000, 0.0000000000000000000, -1.000000000000000000 ) ) ;
#556 = DIRECTION ( 'NONE',  ( -0.0000000000000000000, -0.0000000000000000000, 1.000000000000000000 ) ) ;
#557 = LINE ( 'NONE', #349, #632 ) ;
#558 = LINE ( 'NONE', #390, #399 ) ;
#559 = CARTESIAN_POINT ( 'NONE',  ( 0.0000000000000000000, 1.300000000000000266, 0.5749999999999996225 ) ) ;
#560 = FACE_OUTER_BOUND ( 'NONE', #104, .T. ) ;
#561 = EDGE_CURVE ( 'NONE', #550, #361, #1051, .T. ) ;
#562 = AXIS2_PLACEMENT_3D ( 'NONE', #149, #749, #1032 ) ;
#563 = VERTEX_POINT ( 'NONE', #534 ) ;
#564 = ORIENTED_EDGE ( 'NONE', *, *, #648, .F. ) ;
#565 = DIRECTION ( 'NONE',  ( 0.0000000000000000000, -1.000000000000000000, -0.0000000000000000000 ) ) ;
#566 = ORIENTED_EDGE ( 'NONE', *, *, #905, .F. ) ;
#567 = CARTESIAN_POINT ( 'NONE',  ( -0.9499999999999999556, 1.300000000000000266, -0.5750000000000000666 ) ) ;
#568 = CARTESIAN_POINT ( 'NONE',  ( 0.9499999999999999556, 0.05000000000000000278, -0.5750000000000000666 ) ) ;
#569 = STYLED_ITEM ( 'NONE', ( #909 ), #501 ) ;
#570 = EDGE_CURVE ( 'NONE', #912, #967, #1157, .T. ) ;
#571 = ORIENTED_EDGE ( 'NONE', *, *, #263, .F. ) ;
#572 = ORIENTED_EDGE ( 'NONE', *, *, #518, .F. ) ;
#573 = AXIS2_PLACEMENT_3D ( 'NONE', #522, #15, #1205 ) ;
#574 = CARTESIAN_POINT ( 'NONE',  ( -0.9499999999999997335, 1.350000000000000089, 0.5749999999999996225 ) ) ;
#575 = EDGE_LOOP ( 'NONE', ( #1174, #1235, #535, #1129 ) ) ;
#576 = ORIENTED_EDGE ( 'NONE', *, *, #57, .F. ) ;
#577 = APPLICATION_PROTOCOL_DEFINITION ( 'draft international standard', 'automotive_design', 1998, #985 ) ;
#578 = CARTESIAN_POINT ( 'NONE',  ( -0.9499999999999997335, 1.350000000000000089, 0.6249999999999996669 ) ) ;
#579 = EDGE_CURVE ( 'NONE', #1055, #106, #557, .T. ) ;
#580 = DIRECTION ( 'NONE',  ( 0.0000000000000000000, -1.000000000000000000, 0.0000000000000000000 ) ) ;
#581 = FACE_OUTER_BOUND ( 'NONE', #125, .T. ) ;
#582 = VECTOR ( 'NONE', #736, 1000.000000000000000 ) ;
#583 = DIRECTION ( 'NONE',  ( 1.000000000000000000, 0.0000000000000000000, 0.0000000000000000000 ) ) ;
#584 = FACE_OUTER_BOUND ( 'NONE', #750, .T. ) ;
#585 = EDGE_LOOP ( 'NONE', ( #498, #700, #334, #1111 ) ) ;
#586 = CARTESIAN_POINT ( 'NONE',  ( 0.9499999999999997335, 1.350000000000000089, 0.5749999999999996225 ) ) ;
#587 = EDGE_CURVE ( 'NONE', #967, #391, #496, .T. ) ;
#588 = EDGE_LOOP ( 'NONE', ( #458, #1042, #731, #1040 ) ) ;
#589 = ORIENTED_EDGE ( 'NONE', *, *, #1073, .T. ) ;
#590 = PRODUCT_DEFINITION ( 'UNKNOWN', '', #1149, #295 ) ;
#591 = DIRECTION ( 'NONE',  ( 8.673617379884039170E-17, 0.0000000000000000000, 1.000000000000000000 ) ) ;
#592 = CARTESIAN_POINT ( 'NONE',  ( 0.9499999999999997335, 1.300000000000000266, 0.5749999999999996225 ) ) ;
#593 =( LENGTH_UNIT ( ) NAMED_UNIT ( * ) SI_UNIT ( .MILLI., .METRE. ) );
#594 = VECTOR ( 'NONE', #1119, 1000.000000000000000 ) ;
#595 = SPHERICAL_SURFACE ( 'NONE', #270, 0.05000000000000000278 ) ;
#596 = FACE_OUTER_BOUND ( 'NONE', #93, .T. ) ;
#597 = FACE_OUTER_BOUND ( 'NONE', #379, .T. ) ;
#598 = CARTESIAN_POINT ( 'NONE',  ( 0.5499999999999999334, 1.350000000000000089, -0.6250000000000001110 ) ) ;
#599 = VERTEX_POINT ( 'NONE', #652 ) ;
#600 = EDGE_LOOP ( 'NONE', ( #843, #471, #128 ) ) ;
#601 = ORIENTED_EDGE ( 'NONE', *, *, #847, .F. ) ;
#602 = EDGE_CURVE ( 'NONE', #1006, #916, #239, .T. ) ;
#603 = DIRECTION ( 'NONE',  ( -1.000000000000000000, 0.0000000000000000000, 0.0000000000000000000 ) ) ;
#604 = ORIENTED_EDGE ( 'NONE', *, *, #1088, .F. ) ;
#605 = DIRECTION ( 'NONE',  ( 1.000000000000000000, -0.0000000000000000000, -0.0000000000000000000 ) ) ;
#606 = CARTESIAN_POINT ( 'NONE',  ( -0.5499999999999999334, 0.0000000000000000000, -0.5750000000000000666 ) ) ;
#607 = DIRECTION ( 'NONE',  ( 0.0000000000000000000, -0.0000000000000000000, 1.000000000000000000 ) ) ;
#608 = EDGE_CURVE ( 'NONE', #1004, #10, #271, .T. ) ;
#609 = ADVANCED_FACE ( 'NONE', ( #1200 ), #984, .T. ) ;
#610 = AXIS2_PLACEMENT_3D ( 'NONE', #844, #1030, #259 ) ;
#611 = DIRECTION ( 'NONE',  ( 0.0000000000000000000, -0.0000000000000000000, -1.000000000000000000 ) ) ;
#612 = LINE ( 'NONE', #213, #431 ) ;
#613 = VECTOR ( 'NONE', #687, 1000.000000000000000 ) ;
#614 = CARTESIAN_POINT ( 'NONE',  ( 0.5499999999999998224, 0.04999999999999991257, 0.5749999999999996225 ) ) ;
#615 = VERTEX_POINT ( 'NONE', #358 ) ;
#616 = DIRECTION ( 'NONE',  ( -1.000000000000000000, -0.0000000000000000000, 8.673617379884037937E-17 ) ) ;
#617 = ORIENTED_EDGE ( 'NONE', *, *, #587, .T. ) ;
#618 = CARTESIAN_POINT ( 'NONE',  ( 500000.0000000000582, 1.333333333333333481, -0.5750000000433681535 ) ) ;
#619 = ORIENTED_EDGE ( 'NONE', *, *, #782, .T. ) ;
#620 = ADVANCED_FACE ( 'NONE', ( #581 ), #370, .T. ) ;
#621 = DIRECTION ( 'NONE',  ( -0.0000000000000000000, 0.0000000000000000000, -1.000000000000000000 ) ) ;
#622 = ORIENTED_EDGE ( 'NONE', *, *, #1031, .T. ) ;
#623 = CARTESIAN_POINT ( 'NONE',  ( -0.9499999999999999556, 1.350000000000000089, -0.6250000000000001110 ) ) ;
#624 = EDGE_CURVE ( 'NONE', #563, #698, #1077, .T. ) ;
#625 = AXIS2_PLACEMENT_3D ( 'NONE', #251, #1118, #743 ) ;
#626 = DIRECTION ( 'NONE',  ( -1.000000000000000000, 0.0000000000000000000, 0.0000000000000000000 ) ) ;
#627 = CARTESIAN_POINT ( 'NONE',  ( 0.5499999999999999334, 1.300000000000000266, -0.6250000000000001110 ) ) ;
#628 = CARTESIAN_POINT ( 'NONE',  ( 0.5499999999756255420, 1.333333333333333481, -0.5750000000867362404 ) ) ;
#629 = DIRECTION ( 'NONE',  ( 0.0000000000000000000, 0.0000000000000000000, 1.000000000000000000 ) ) ;
#630 = EDGE_CURVE ( 'NONE', #949, #1227, #100, .T. ) ;
#631 = PLANE ( 'NONE',  #625 ) ;
#632 = VECTOR ( 'NONE', #1036, 1000.000000000000000 ) ;
#633 = LINE ( 'NONE', #1224, #303 ) ;
#634 = AXIS2_PLACEMENT_3D ( 'NONE', #345, #537, #841 ) ;
#635 = CIRCLE ( 'NONE', #280, 0.05000000000000002359 ) ;
#636 = CIRCLE ( 'NONE', #474, 0.05000000000000002359 ) ;
#637 = CARTESIAN_POINT ( 'NONE',  ( 0.0000000000000000000, 0.0000000000000000000, 0.0000000000000000000 ) ) ;
#638 = ORIENTED_EDGE ( 'NONE', *, *, #822, .T. ) ;
#639 = DIRECTION ( 'NONE',  ( -1.000000000000000000, -0.0000000000000000000, 8.673617379884037937E-17 ) ) ;
#640 = ORIENTED_EDGE ( 'NONE', *, *, #1229, .T. ) ;
#641 = ORIENTED_EDGE ( 'NONE', *, *, #719, .F. ) ;
#642 = ORIENTED_EDGE ( 'NONE', *, *, #148, .F. ) ;
#643 = CARTESIAN_POINT ( 'NONE',  ( 0.5499999999999999334, 1.350000000000000089, -0.5750000000000000666 ) ) ;
#644 = AXIS2_PLACEMENT_3D ( 'NONE', #559, #945, #165 ) ;
#645 = CARTESIAN_POINT ( 'NONE',  ( 0.9499999999999998446, 0.0000000000000000000, 1.647987302177967233E-16 ) ) ;
#646 = SURFACE_STYLE_FILL_AREA ( #1074 ) ;
#647 = DIRECTION ( 'NONE',  ( 1.000000000000000000, -0.0000000000000000000, -8.673617379884039170E-17 ) ) ;
#648 = EDGE_CURVE ( 'NONE', #439, #682, #301, .T. ) ;
#649 = LINE ( 'NONE', #598, #816 ) ;
#650 = CYLINDRICAL_SURFACE ( 'NONE', #492, 0.04999999999999991257 ) ;
#651 = ORIENTED_EDGE ( 'NONE', *, *, #873, .T. ) ;
#652 = CARTESIAN_POINT ( 'NONE',  ( -0.5499999999999998224, 1.333333333333333481, -0.5750000000000000666 ) ) ;
#653 = ORIENTED_EDGE ( 'NONE', *, *, #1177, .T. ) ;
#654 = ORIENTED_EDGE ( 'NONE', *, *, #719, .T. ) ;
#655 = CARTESIAN_POINT ( 'NONE',  ( -0.5499999999999999334, 1.300000000000000266, -0.6250000000000001110 ) ) ;
#656 = VERTEX_POINT ( 'NONE', #461 ) ;
#657 = CARTESIAN_POINT ( 'NONE',  ( -0.5499999999999999334, 1.350000000000000089, -0.5750000000000000666 ) ) ;
#658 = ORIENTED_EDGE ( 'NONE', *, *, #454, .T. ) ;
#659 = EDGE_CURVE ( 'NONE', #1055, #916, #863, .T. ) ;
#660 = DIRECTION ( 'NONE',  ( 0.0000000000000000000, 0.0000000000000000000, -1.000000000000000000 ) ) ;
#661 = DIRECTION ( 'NONE',  ( -1.000000000000000000, -0.0000000000000000000, 8.673617379884037937E-17 ) ) ;
#662 = AXIS2_PLACEMENT_3D ( 'NONE', #1061, #971, #374 ) ;
#663 = CARTESIAN_POINT ( 'NONE',  ( -0.5499999999999998224, 0.04999999999999991257, -0.6083333333333333925 ) ) ;
#664 = CARTESIAN_POINT ( 'NONE',  ( -0.9499999999999997335, 0.04999999999999991257, 0.6249999999999996669 ) ) ;
#665 = CARTESIAN_POINT ( 'NONE',  ( -0.5499999999999998224, 1.300000000000000266, 0.5749999999999996225 ) ) ;
#666 = FACE_OUTER_BOUND ( 'NONE', #853, .T. ) ;
#667 = CIRCLE ( 'NONE', #882, 0.05000000000000002359 ) ;
#668 = AXIS2_PLACEMENT_3D ( 'NONE', #377, #392, #202 ) ;
#669 = DIRECTION ( 'NONE',  ( 1.000000000000000000, -0.0000000000000000000, -8.673617379884039170E-17 ) ) ;
#670 = VERTEX_POINT ( 'NONE', #657 ) ;
#671 = ORIENTED_EDGE ( 'NONE', *, *, #77, .T. ) ;
#672 = EDGE_LOOP ( 'NONE', ( #1131, #1069, #689, #32 ) ) ;
#673 = DIRECTION ( 'NONE',  ( 0.0000000000000000000, -1.000000000000000000, 0.0000000000000000000 ) ) ;
#674 = ORIENTED_EDGE ( 'NONE', *, *, #299, .T. ) ;
#675 = DIRECTION ( 'NONE',  ( 0.0000000000000000000, 0.0000000000000000000, -1.000000000000000000 ) ) ;
#676 = EDGE_CURVE ( 'NONE', #1255, #192, #726, .T. ) ;
#677 = CARTESIAN_POINT ( 'NONE',  ( 0.9499999999999997335, 0.05000000000000000278, 0.5749999999999996225 ) ) ;
#678 = PLANE ( 'NONE',  #1063 ) ;
#679 = DIRECTION ( 'NONE',  ( 8.673617379884036705E-17, -0.0000000000000000000, -1.000000000000000000 ) ) ;
#680 = FACE_OUTER_BOUND ( 'NONE', #1264, .T. ) ;
#681 = LINE ( 'NONE', #154, #582 ) ;
#682 = VERTEX_POINT ( 'NONE', #663 ) ;
#683 = DIRECTION ( 'NONE',  ( 1.000000000000000000, 0.0000000000000000000, 0.0000000000000000000 ) ) ;
#684 = ORIENTED_EDGE ( 'NONE', *, *, #952, .F. ) ;
#685 = AXIS2_PLACEMENT_3D ( 'NONE', #924, #124, #232 ) ;
#686 =( GEOMETRIC_REPRESENTATION_CONTEXT ( 3 ) GLOBAL_UNCERTAINTY_ASSIGNED_CONTEXT ( ( #388 ) ) GLOBAL_UNIT_ASSIGNED_CONTEXT ( ( #84, #875, #292 ) ) REPRESENTATION_CONTEXT ( 'NONE', 'WORKASPACE' ) );
#687 = DIRECTION ( 'NONE',  ( 1.000000000000000000, -0.0000000000000000000, -0.0000000000000000000 ) ) ;
#688 = EDGE_LOOP ( 'NONE', ( #1188, #653, #123, #1269 ) ) ;
#689 = ORIENTED_EDGE ( 'NONE', *, *, #1047, .F. ) ;
#690 = DIRECTION ( 'NONE',  ( 0.0000000000000000000, 0.0000000000000000000, 1.000000000000000000 ) ) ;
#691 = EDGE_CURVE ( 'NONE', #769, #293, #711, .T. ) ;
#692 = DIRECTION ( 'NONE',  ( 0.0000000000000000000, 0.0000000000000000000, 1.000000000000000000 ) ) ;
#693 = FACE_OUTER_BOUND ( 'NONE', #441, .T. ) ;
#694 = LINE ( 'NONE', #755, #371 ) ;
#695 = CYLINDRICAL_SURFACE ( 'NONE', #708, 0.05000000000000002359 ) ;
#696 = CYLINDRICAL_SURFACE ( 'NONE', #668, 0.03333333333333324267 ) ;
#697 = PLANE ( 'NONE',  #155 ) ;
#698 = VERTEX_POINT ( 'NONE', #1138 ) ;
#699 = ORIENTED_EDGE ( 'NONE', *, *, #705, .F. ) ;
#700 = ORIENTED_EDGE ( 'NONE', *, *, #1163, .F. ) ;
#701 = FILL_AREA_STYLE_COLOUR ( '', #1038 ) ;
#702 = ORIENTED_EDGE ( 'NONE', *, *, #187, .T. ) ;
#703 = PLANE ( 'NONE',  #573 ) ;
#704 = DIRECTION ( 'NONE',  ( 0.0000000000000000000, 0.0000000000000000000, -1.000000000000000000 ) ) ;
#705 = EDGE_CURVE ( 'NONE', #391, #748, #451, .T. ) ;
#706 =( NAMED_UNIT ( * ) SI_UNIT ( $, .STERADIAN. ) SOLID_ANGLE_UNIT ( ) );
#707 = ADVANCED_FACE ( 'NONE', ( #897 ), #369, .F. ) ;
#708 = AXIS2_PLACEMENT_3D ( 'NONE', #328, #423, #1214 ) ;
#709 = DIRECTION ( 'NONE',  ( 0.0000000000000000000, -1.000000000000000000, 0.0000000000000000000 ) ) ;
#710 = DIRECTION ( 'NONE',  ( -0.0000000000000000000, -1.000000000000000000, -0.0000000000000000000 ) ) ;
#711 = CIRCLE ( 'NONE', #1105, 0.03333333333333334675 ) ;
#712 = CIRCLE ( 'NONE', #98, 0.05000000000000002359 ) ;
#713 = DIRECTION ( 'NONE',  ( 8.673617379884036705E-17, -0.0000000000000000000, -1.000000000000000000 ) ) ;
#714 = ORIENTED_EDGE ( 'NONE', *, *, #691, .T. ) ;
#715 = ADVANCED_FACE ( 'NONE', ( #930 ), #678, .F. ) ;
#716 =( NAMED_UNIT ( * ) SI_UNIT ( $, .STERADIAN. ) SOLID_ANGLE_UNIT ( ) );
#717 = ORIENTED_EDGE ( 'NONE', *, *, #999, .T. ) ;
#718 = ORIENTED_EDGE ( 'NONE', *, *, #382, .T. ) ;
#719 = EDGE_CURVE ( 'NONE', #770, #516, #996, .T. ) ;
#720 = PLANE ( 'NONE',  #1271 ) ;
#721 = DIRECTION ( 'NONE',  ( 0.0000000000000000000, 0.0000000000000000000, -1.000000000000000000 ) ) ;
#722 = ADVANCED_FACE ( 'NONE', ( #401 ), #696, .T. ) ;
#723 = CARTESIAN_POINT ( 'NONE',  ( 1.000000000000000000, 0.04999999999999991257, -0.5750000000000000666 ) ) ;
#724 = EDGE_CURVE ( 'NONE', #771, #854, #79, .T. ) ;
#725 = CARTESIAN_POINT ( 'NONE',  ( -0.9499999999999999556, 0.04999999999999991257, -0.5750000000000000666 ) ) ;
#726 = LINE ( 'NONE', #860, #200 ) ;
#727 = LINE ( 'NONE', #351, #101 ) ;
#728 = DIRECTION ( 'NONE',  ( 0.0000000000000000000, -1.000000000000000000, 0.0000000000000000000 ) ) ;
#729 = CYLINDRICAL_SURFACE ( 'NONE', #354, 0.05000000000000002359 ) ;
#730 = LINE ( 'NONE', #16, #341 ) ;
#731 = ORIENTED_EDGE ( 'NONE', *, *, #579, .F. ) ;
#732 = CARTESIAN_POINT ( 'NONE',  ( 0.9499999999999997335, 1.300000000000000266, 0.6249999999999996669 ) ) ;
#733 = MANIFOLD_SOLID_BREP ( 'Mirror2', #497 ) ;
#734 = EDGE_LOOP ( 'NONE', ( #871, #900, #502, #146 ) ) ;
#735 = EDGE_LOOP ( 'NONE', ( #1253, #918, #671, #350 ) ) ;
#736 = DIRECTION ( 'NONE',  ( -1.000000000000000000, -0.0000000000000000000, 8.673617379884037937E-17 ) ) ;
#737 = AXIS2_PLACEMENT_3D ( 'NONE', #418, #6, #1102 ) ;
#738 = VERTEX_POINT ( 'NONE', #307 ) ;
#739 = DIRECTION ( 'NONE',  ( -8.673617379884037937E-17, 0.0000000000000000000, 1.000000000000000000 ) ) ;
#740 = CARTESIAN_POINT ( 'NONE',  ( -0.9499999999999997335, 1.350000000000000089, 0.6249999999999996669 ) ) ;
#741 = DIRECTION ( 'NONE',  ( 1.000000000000000000, 0.0000000000000000000, 8.673617379884039170E-17 ) ) ;
#742 = EDGE_CURVE ( 'NONE', #801, #231, #289, .T. ) ;
#743 = DIRECTION ( 'NONE',  ( -1.734723475976807834E-16, 0.0000000000000000000, -1.000000000000000000 ) ) ;
#744 = LINE ( 'NONE', #645, #482 ) ;
#745 = CARTESIAN_POINT ( 'NONE',  ( 0.5499999999999999334, 1.350000000000000089, -0.6250000000000001110 ) ) ;
#746 = FACE_OUTER_BOUND ( 'NONE', #1007, .T. ) ;
#747 = LINE ( 'NONE', #1181, #1161 ) ;
#748 = VERTEX_POINT ( 'NONE', #586 ) ;
#749 = DIRECTION ( 'NONE',  ( -0.0000000000000000000, -1.000000000000000000, -0.0000000000000000000 ) ) ;
#750 = EDGE_LOOP ( 'NONE', ( #83, #95, #641, #64 ) ) ;
#751 = EDGE_LOOP ( 'NONE', ( #210, #718, #1114 ) ) ;
#752 = CARTESIAN_POINT ( 'NONE',  ( 500000.0000000000582, 1.300000000000000266, 0.6083333332899649726 ) ) ;
#753 = ORIENTED_EDGE ( 'NONE', *, *, #602, .T. ) ;
#754 = EDGE_CURVE ( 'NONE', #912, #748, #777, .T. ) ;
#755 = CARTESIAN_POINT ( 'NONE',  ( 500000.0000000000582, 1.300000000000000266, 0.6083333332899649726 ) ) ;
#756 = AXIS2_PLACEMENT_3D ( 'NONE', #1274, #877, #591 ) ;
#757 = DIRECTION ( 'NONE',  ( 0.0000000000000000000, 0.0000000000000000000, 1.000000000000000000 ) ) ;
#758 = CARTESIAN_POINT ( 'NONE',  ( 0.9499999999999999556, 0.04999999999999991257, -0.6250000000000001110 ) ) ;
#759 = CARTESIAN_POINT ( 'NONE',  ( 0.9499999999999997335, 1.300000000000000266, 0.5749999999999996225 ) ) ;
#760 = DIRECTION ( 'NONE',  ( -8.673617379884037937E-17, 0.0000000000000000000, -1.000000000000000000 ) ) ;
#761 = CARTESIAN_POINT ( 'NONE',  ( 0.9499999999999999556, 1.300000000000000266, -0.5750000000000000666 ) ) ;
#762 = EDGE_CURVE ( 'NONE', #953, #1055, #435, .T. ) ;
#763 = CIRCLE ( 'NONE', #1127, 0.05000000000000002359 ) ;
#764 = PRESENTATION_STYLE_ASSIGNMENT (( #1071 ) ) ;
#765 = CARTESIAN_POINT ( 'NONE',  ( -0.5499999999999998224, 1.300000000000000266, 0.5749999999999996225 ) ) ;
#766 = VECTOR ( 'NONE', #509, 1000.000000000000000 ) ;
#767 = DIRECTION ( 'NONE',  ( 1.000000000000000000, 0.0000000000000000000, -8.673617379884036705E-17 ) ) ;
#768 = ORIENTED_EDGE ( 'NONE', *, *, #676, .F. ) ;
#769 = VERTEX_POINT ( 'NONE', #1103 ) ;
#770 = VERTEX_POINT ( 'NONE', #34 ) ;
#771 = VERTEX_POINT ( 'NONE', #223 ) ;
#772 = EDGE_CURVE ( 'NONE', #902, #953, #747, .T. ) ;
#773 = DIRECTION ( 'NONE',  ( 0.0000000000000000000, 0.0000000000000000000, 1.000000000000000000 ) ) ;
#774 = EDGE_CURVE ( 'NONE', #1255, #456, #178, .T. ) ;
#775 = CIRCLE ( 'NONE', #562, 0.05000000000000002359 ) ;
#776 = FACE_OUTER_BOUND ( 'NONE', #47, .T. ) ;
#777 = CIRCLE ( 'NONE', #936, 0.05000000000000002359 ) ;
#778 = ORIENTED_EDGE ( 'NONE', *, *, #1242, .T. ) ;
#779 = ORIENTED_EDGE ( 'NONE', *, *, #762, .T. ) ;
#780 = ORIENTED_EDGE ( 'NONE', *, *, #570, .T. ) ;
#781 = ORIENTED_EDGE ( 'NONE', *, *, #809, .T. ) ;
#782 = EDGE_CURVE ( 'NONE', #106, #902, #1221, .T. ) ;
#783 = FILL_AREA_STYLE_COLOUR ( '', #1018 ) ;
#784 =( NAMED_UNIT ( * ) SI_UNIT ( $, .STERADIAN. ) SOLID_ANGLE_UNIT ( ) );
#785 = CARTESIAN_POINT ( 'NONE',  ( 0.5499999999999999334, 0.0000000000000000000, -0.6250000000000001110 ) ) ;
#786 = VECTOR ( 'NONE', #1013, 1000.000000000000000 ) ;
#787 = CIRCLE ( 'NONE', #1192, 0.03333333333333334675 ) ;
#788 = EDGE_CURVE ( 'NONE', #365, #1080, #730, .T. ) ;
#789 = ORIENTED_EDGE ( 'NONE', *, *, #538, .F. ) ;
#790 = DIRECTION ( 'NONE',  ( 0.0000000000000000000, -1.000000000000000000, 0.0000000000000000000 ) ) ;
#791 = ORIENTED_EDGE ( 'NONE', *, *, #126, .T. ) ;
#792 = ORIENTED_EDGE ( 'NONE', *, *, #1021, .T. ) ;
#793 = DIRECTION ( 'NONE',  ( 0.0000000000000000000, -1.000000000000000000, 0.0000000000000000000 ) ) ;
#794 = AXIS2_PLACEMENT_3D ( 'NONE', #139, #728, #721 ) ;
#795 = DIRECTION ( 'NONE',  ( 0.0000000000000000000, -1.000000000000000000, 0.0000000000000000000 ) ) ;
#796 = CYLINDRICAL_SURFACE ( 'NONE', #1234, 0.05000000000000002359 ) ;
#797 = LINE ( 'NONE', #531, #1092 ) ;
#798 = CARTESIAN_POINT ( 'NONE',  ( 0.5499999999999998224, 1.300000000000000266, 0.6249999999999996669 ) ) ;
#799 = CARTESIAN_POINT ( 'NONE',  ( -0.5499999999999998224, 1.350000000000000089, 0.6249999999999996669 ) ) ;
#800 = EDGE_CURVE ( 'NONE', #989, #439, #40, .T. ) ;
#801 = VERTEX_POINT ( 'NONE', #998 ) ;
#802 = CARTESIAN_POINT ( 'NONE',  ( 0.5499999999756255420, 0.04999999999999991951, -0.6083333333333333925 ) ) ;
#803 = ORIENTED_EDGE ( 'NONE', *, *, #91, .T. ) ;
#804 = ORIENTED_EDGE ( 'NONE', *, *, #344, .F. ) ;
#805 = CARTESIAN_POINT ( 'NONE',  ( -0.5499999999999998224, 1.300000000000000266, -0.6083333333333333925 ) ) ;
#806 = ADVANCED_FACE ( 'NONE', ( #1187 ), #141, .T. ) ;
#807 = CARTESIAN_POINT ( 'NONE',  ( 0.9499999999999999556, 0.05000000000000000278, -0.5750000000000000666 ) ) ;
#808 = PLANE ( 'NONE',  #955 ) ;
#809 = EDGE_CURVE ( 'NONE', #550, #365, #470, .T. ) ;
#810 = DIRECTION ( 'NONE',  ( 1.000000000000000000, -0.0000000000000000000, -8.673617379884039170E-17 ) ) ;
#811 = PRESENTATION_LAYER_ASSIGNMENT (  '', '', ( #336 ) ) ;
#812 = DIRECTION ( 'NONE',  ( 0.0000000000000000000, 0.0000000000000000000, 1.000000000000000000 ) ) ;
#813 = AXIS2_PLACEMENT_3D ( 'NONE', #381, #790, #94 ) ;
#814 = DIRECTION ( 'NONE',  ( -0.0000000000000000000, 1.000000000000000000, -0.0000000000000000000 ) ) ;
#815 = DIRECTION ( 'NONE',  ( 1.000000000000000000, 0.0000000000000000000, -8.673617379884036705E-17 ) ) ;
#816 = VECTOR ( 'NONE', #713, 1000.000000000000000 ) ;
#817 = VECTOR ( 'NONE', #580, 1000.000000000000000 ) ;
#818 = CYLINDRICAL_SURFACE ( 'NONE', #794, 0.05000000000000002359 ) ;
#819 = ORIENTED_EDGE ( 'NONE', *, *, #1104, .F. ) ;
#820 = CARTESIAN_POINT ( 'NONE',  ( -0.5499999999999998224, 1.300000000000000266, -0.5750000000000000666 ) ) ;
#821 = ORIENTED_EDGE ( 'NONE', *, *, #285, .T. ) ;
#822 = EDGE_CURVE ( 'NONE', #990, #949, #867, .T. ) ;
#823 = ORIENTED_EDGE ( 'NONE', *, *, #1073, .F. ) ;
#824 = DIRECTION ( 'NONE',  ( -1.000000000000000000, -0.0000000000000000000, -0.0000000000000000000 ) ) ;
#825 = DIRECTION ( 'NONE',  ( -1.734723475976807834E-16, -0.0000000000000000000, -1.000000000000000000 ) ) ;
#826 = ADVANCED_FACE ( 'NONE', ( #7 ), #1210, .F. ) ;
#827 = DIRECTION ( 'NONE',  ( 0.0000000000000000000, 1.000000000000000000, 0.0000000000000000000 ) ) ;
#828 = EDGE_CURVE ( 'NONE', #869, #599, #217, .T. ) ;
#829 = CARTESIAN_POINT ( 'NONE',  ( -0.9999999999999997780, 0.04999999999999991257, 0.6249999999999996669 ) ) ;
#830 = CARTESIAN_POINT ( 'NONE',  ( 0.5499999999999998224, 1.350000000000000089, 0.5749999999999995115 ) ) ;
#831 = LINE ( 'NONE', #287, #613 ) ;
#832 = DIRECTION ( 'NONE',  ( 0.0000000000000000000, 0.0000000000000000000, -1.000000000000000000 ) ) ;
#833 = CIRCLE ( 'NONE', #13, 0.05000000000000002359 ) ;
#834 = CIRCLE ( 'NONE', #862, 0.03333333333333324267 ) ;
#835 = CARTESIAN_POINT ( 'NONE',  ( 0.9999999999999997780, 0.04999999999999991257, 0.5749999999999996225 ) ) ;
#836 = EDGE_LOOP ( 'NONE', ( #889, #622, #781, #1067 ) ) ;
#837 = DIRECTION ( 'NONE',  ( -8.673617379884039170E-17, 0.0000000000000000000, 1.000000000000000000 ) ) ;
#838 = ORIENTED_EDGE ( 'NONE', *, *, #1137, .F. ) ;
#839 = EDGE_CURVE ( 'NONE', #532, #563, #1260, .T. ) ;
#840 = ORIENTED_EDGE ( 'NONE', *, *, #724, .F. ) ;
#841 = DIRECTION ( 'NONE',  ( 1.000000000000000000, 0.0000000000000000000, 0.0000000000000000000 ) ) ;
#842 = AXIS2_PLACEMENT_3D ( 'NONE', #545, #1033, #1112 ) ;
#843 = ORIENTED_EDGE ( 'NONE', *, *, #914, .F. ) ;
#844 = CARTESIAN_POINT ( 'NONE',  ( 500000.0000000000582, 0.04999999999999991951, -0.6083333333767014794 ) ) ;
#845 = CARTESIAN_POINT ( 'NONE',  ( -1.000000000000000000, 0.04999999999999991257, -0.5750000000000000666 ) ) ;
#846 = CARTESIAN_POINT ( 'NONE',  ( 1.000000000000000000, 1.350000000000000089, -0.5750000000000000666 ) ) ;
#847 = EDGE_CURVE ( 'NONE', #1080, #1057, #797, .T. ) ;
#848 = CARTESIAN_POINT ( 'NONE',  ( -0.9499999999999998446, 1.300000000000000266, 1.647987302177967233E-16 ) ) ;
#849 = VECTOR ( 'NONE', #513, 1000.000000000000000 ) ;
#850 = FACE_OUTER_BOUND ( 'NONE', #191, .T. ) ;
#851 = DIRECTION ( 'NONE',  ( 0.0000000000000000000, 0.0000000000000000000, 1.000000000000000000 ) ) ;
#852 = ORIENTED_EDGE ( 'NONE', *, *, #1084, .F. ) ;
#853 = EDGE_LOOP ( 'NONE', ( #159, #308, #346, #546 ) ) ;
#854 = VERTEX_POINT ( 'NONE', #134 ) ;
#855 = EDGE_CURVE ( 'NONE', #1006, #1208, #286, .T. ) ;
#856 = DIRECTION ( 'NONE',  ( -1.000000000000000000, 0.0000000000000000000, 0.0000000000000000000 ) ) ;
#857 = MECHANICAL_DESIGN_GEOMETRIC_PRESENTATION_REPRESENTATION (  '', ( #1076 ), #686 ) ;
#858 = ORIENTED_EDGE ( 'NONE', *, *, #1113, .T. ) ;
#859 = CARTESIAN_POINT ( 'NONE',  ( -1.000000000000000000, 0.04999999999999991257, -0.6250000000000001110 ) ) ;
#860 = CARTESIAN_POINT ( 'NONE',  ( 0.0000000000000000000, 0.0000000000000000000, 0.5749999999999996225 ) ) ;
#861 = AXIS2_PLACEMENT_3D ( 'NONE', #723, #237, #360 ) ;
#862 = AXIS2_PLACEMENT_3D ( 'NONE', #1233, #948, #151 ) ;
#863 = CIRCLE ( 'NONE', #1022, 0.05000000000000002359 ) ;
#864 = FACE_OUTER_BOUND ( 'NONE', #600, .T. ) ;
#865 = CARTESIAN_POINT ( 'NONE',  ( 0.9499999999999997335, 0.04999999999999991257, 0.5749999999999996225 ) ) ;
#866 = SPHERICAL_SURFACE ( 'NONE', #397, 0.05000000000000000278 ) ;
#867 = LINE ( 'NONE', #412, #540 ) ;
#868 = EDGE_LOOP ( 'NONE', ( #421, #1162, #988, #778, #898, #717, #319, #375 ) ) ;
#869 = VERTEX_POINT ( 'NONE', #805 ) ;
#870 = DIRECTION ( 'NONE',  ( -0.0000000000000000000, 1.000000000000000000, -0.0000000000000000000 ) ) ;
#871 = ORIENTED_EDGE ( 'NONE', *, *, #839, .F. ) ;
#872 = ORIENTED_EDGE ( 'NONE', *, *, #943, .F. ) ;
#873 = EDGE_CURVE ( 'NONE', #456, #1057, #636, .T. ) ;
#874 = DIRECTION ( 'NONE',  ( 0.0000000000000000000, 0.0000000000000000000, 1.000000000000000000 ) ) ;
#875 =( NAMED_UNIT ( * ) PLANE_ANGLE_UNIT ( ) SI_UNIT ( $, .RADIAN. ) );
#876 =( NAMED_UNIT ( * ) PLANE_ANGLE_UNIT ( ) SI_UNIT ( $, .RADIAN. ) );
#877 = DIRECTION ( 'NONE',  ( -1.000000000000000000, 0.0000000000000000000, 8.673617379884039170E-17 ) ) ;
#878 = EDGE_CURVE ( 'NONE', #71, #869, #1232, .T. ) ;
#879 = LINE ( 'NONE', #236, #786 ) ;
#880 = FACE_OUTER_BOUND ( 'NONE', #934, .T. ) ;
#881 = AXIS2_PLACEMENT_3D ( 'NONE', #433, #1228, #629 ) ;
#882 = AXIS2_PLACEMENT_3D ( 'NONE', #1252, #1152, #773 ) ;
#883 = CARTESIAN_POINT ( 'NONE',  ( 0.5499999999999999334, 0.0000000000000000000, -0.5750000000000000666 ) ) ;
#884 = ORIENTED_EDGE ( 'NONE', *, *, #742, .T. ) ;
#885 = ORIENTED_EDGE ( 'NONE', *, *, #800, .F. ) ;
#886 = ORIENTED_EDGE ( 'NONE', *, *, #22, .F. ) ;
#887 = ORIENTED_EDGE ( 'NONE', *, *, #1229, .F. ) ;
#888 = CARTESIAN_POINT ( 'NONE',  ( -0.9499999999999997335, 0.04999999999999991257, 0.5749999999999996225 ) ) ;
#889 = ORIENTED_EDGE ( 'NONE', *, *, #847, .T. ) ;
#890 = EDGE_CURVE ( 'NONE', #514, #9, #507, .T. ) ;
#891 = PRODUCT_CONTEXT ( 'NONE', #1171, 'mechanical' ) ;
#892 = CARTESIAN_POINT ( 'NONE',  ( 1.000000000000000000, 0.04999999999999991257, -0.6250000000000001110 ) ) ;
#893 = LINE ( 'NONE', #628, #1217 ) ;
#894 = LINE ( 'NONE', #785, #1078 ) ;
#895 = EDGE_CURVE ( 'NONE', #476, #989, #834, .T. ) ;
#896 = CIRCLE ( 'NONE', #1012, 0.05000000000000002359 ) ;
#897 = FACE_OUTER_BOUND ( 'NONE', #478, .T. ) ;
#898 = ORIENTED_EDGE ( 'NONE', *, *, #196, .T. ) ;
#899 = MECHANICAL_DESIGN_GEOMETRIC_PRESENTATION_REPRESENTATION (  '', ( #569 ), #1014 ) ;
#900 = ORIENTED_EDGE ( 'NONE', *, *, #51, .F. ) ;
#901 = SURFACE_SIDE_STYLE ('',( #1125 ) ) ;
#902 = VERTEX_POINT ( 'NONE', #627 ) ;
#903 = ADVANCED_FACE ( 'NONE', ( #597 ), #631, .F. ) ;
#904 = CARTESIAN_POINT ( 'NONE',  ( -0.9499999999999999556, 1.300000000000000266, -0.5750000000000000666 ) ) ;
#905 = EDGE_CURVE ( 'NONE', #854, #1006, #744, .T. ) ;
#906 = AXIS2_PLACEMENT_3D ( 'NONE', #745, #938, #837 ) ;
#907 = CARTESIAN_POINT ( 'NONE',  ( -0.9499999999999999556, 1.300000000000000266, -0.6250000000000001110 ) ) ;
#908 = ADVANCED_FACE ( 'NONE', ( #312 ), #986, .T. ) ;
#909 = PRESENTATION_STYLE_ASSIGNMENT (( #85 ) ) ;
#910 = CIRCLE ( 'NONE', #445, 0.03333333333333334675 ) ;
#911 = VECTOR ( 'NONE', #436, 1000.000000000000000 ) ;
#912 = VERTEX_POINT ( 'NONE', #549 ) ;
#913 = CARTESIAN_POINT ( 'NONE',  ( 0.5499999999999999334, 1.300000000000000266, -0.6250000000000001110 ) ) ;
#914 = EDGE_CURVE ( 'NONE', #912, #532, #775, .T. ) ;
#915 = ADVANCED_FACE ( 'NONE', ( #103 ), #1230, .T. ) ;
#916 = VERTEX_POINT ( 'NONE', #940 ) ;
#917 = DIRECTION ( 'NONE',  ( -1.000000000000000000, 0.0000000000000000000, 0.0000000000000000000 ) ) ;
#918 = ORIENTED_EDGE ( 'NONE', *, *, #51, .T. ) ;
#919 = CARTESIAN_POINT ( 'NONE',  ( -0.5499999999999999334, 0.0000000000000000000, -0.6250000000000001110 ) ) ;
#920 = CARTESIAN_POINT ( 'NONE',  ( 0.0000000000000000000, 1.350000000000000089, 0.0000000000000000000 ) ) ;
#921 = CARTESIAN_POINT ( 'NONE',  ( 0.9499999999999999556, 1.300000000000000266, -0.5750000000000000666 ) ) ;
#922 = DIRECTION ( 'NONE',  ( 1.000000000000000000, 0.0000000000000000000, -8.673617379884036705E-17 ) ) ;
#923 = CARTESIAN_POINT ( 'NONE',  ( 0.5499999999756255420, 1.300000000000000266, 0.5749999999999996225 ) ) ;
#924 = CARTESIAN_POINT ( 'NONE',  ( 0.9999999999999997780, 1.350000000000000089, 0.6249999999999996669 ) ) ;
#925 = DIRECTION ( 'NONE',  ( 0.0000000000000000000, 0.0000000000000000000, -1.000000000000000000 ) ) ;
#926 = SPHERICAL_SURFACE ( 'NONE', #225, 0.05000000000000000278 ) ;
#927 = VECTOR ( 'NONE', #1058, 1000.000000000000000 ) ;
#928 = CARTESIAN_POINT ( 'NONE',  ( -0.9499999999999999556, 0.04999999999999991257, -0.6250000000000001110 ) ) ;
#929 = FACE_OUTER_BOUND ( 'NONE', #1176, .T. ) ;
#930 = FACE_OUTER_BOUND ( 'NONE', #688, .T. ) ;
#931 = DIRECTION ( 'NONE',  ( 1.000000000000000000, -0.0000000000000000000, -0.0000000000000000000 ) ) ;
#932 = VERTEX_POINT ( 'NONE', #835 ) ;
#933 = CARTESIAN_POINT ( 'NONE',  ( -0.5499999999999998224, 1.350000000000000089, 0.5749999999999995115 ) ) ;
#934 = EDGE_LOOP ( 'NONE', ( #46, #477, #335, #768 ) ) ;
#935 = AXIS2_PLACEMENT_3D ( 'NONE', #459, #647, #261 ) ;
#936 = AXIS2_PLACEMENT_3D ( 'NONE', #592, #692, #322 ) ;
#937 = VERTEX_POINT ( 'NONE', #933 ) ;
#938 = DIRECTION ( 'NONE',  ( 1.000000000000000000, 0.0000000000000000000, 8.673617379884039170E-17 ) ) ;
#939 = EDGE_LOOP ( 'NONE', ( #1266, #977, #144 ) ) ;
#940 = CARTESIAN_POINT ( 'NONE',  ( 1.000000000000000000, 0.04999999999999991257, -0.5750000000000000666 ) ) ;
#941 = DIRECTION ( 'NONE',  ( -1.000000000000000000, -0.0000000000000000000, 8.673617379884037937E-17 ) ) ;
#942 = PLANE ( 'NONE',  #1062 ) ;
#943 = EDGE_CURVE ( 'NONE', #738, #476, #681, .T. ) ;
#944 = DIRECTION ( 'NONE',  ( 1.734723475976807834E-16, -0.0000000000000000000, -1.000000000000000000 ) ) ;
#945 = DIRECTION ( 'NONE',  ( -1.000000000000000000, 0.0000000000000000000, 0.0000000000000000000 ) ) ;
#946 = CYLINDRICAL_SURFACE ( 'NONE', #1257, 0.03333333333333334675 ) ;
#947 = FACE_OUTER_BOUND ( 'NONE', #836, .T. ) ;
#948 = DIRECTION ( 'NONE',  ( 1.000000000000000000, 0.0000000000000000000, -8.673617379884036705E-17 ) ) ;
#949 = VERTEX_POINT ( 'NONE', #845 ) ;
#950 = DIRECTION ( 'NONE',  ( 1.000000000000000000, 0.0000000000000000000, 8.673617379884039170E-17 ) ) ;
#951 = ORIENTED_EDGE ( 'NONE', *, *, #3, .T. ) ;
#952 = EDGE_CURVE ( 'NONE', #9, #698, #633, .T. ) ;
#953 = VERTEX_POINT ( 'NONE', #45 ) ;
#954 = DIRECTION ( 'NONE',  ( 0.0000000000000000000, 0.0000000000000000000, 1.000000000000000000 ) ) ;
#955 = AXIS2_PLACEMENT_3D ( 'NONE', #1202, #993, #607 ) ;
#956 = ORIENTED_EDGE ( 'NONE', *, *, #263, .T. ) ;
#957 = AXIS2_PLACEMENT_3D ( 'NONE', #396, #87, #490 ) ;
#958 = DIRECTION ( 'NONE',  ( -1.734723475976807834E-16, 0.0000000000000000000, 1.000000000000000000 ) ) ;
#959 = DIRECTION ( 'NONE',  ( 1.000000000000000000, 0.0000000000000000000, -8.673617379884036705E-17 ) ) ;
#960 = CARTESIAN_POINT ( 'NONE',  ( -0.5499999999999998224, 1.300000000000000266, 0.6083333333333330595 ) ) ;
#961 = EDGE_CURVE ( 'NONE', #71, #1175, #787, .T. ) ;
#962 = DIRECTION ( 'NONE',  ( 0.0000000000000000000, 0.0000000000000000000, -1.000000000000000000 ) ) ;
#963 = FACE_OUTER_BOUND ( 'NONE', #1256, .T. ) ;
#964 = LINE ( 'NONE', #186, #817 ) ;
#965 = VECTOR ( 'NONE', #99, 1000.000000000000000 ) ;
#966 = ORIENTED_EDGE ( 'NONE', *, *, #1198, .F. ) ;
#967 = VERTEX_POINT ( 'NONE', #55 ) ;
#968 = ORIENTED_EDGE ( 'NONE', *, *, #878, .T. ) ;
#969 = EDGE_CURVE ( 'NONE', #1191, #937, #727, .T. ) ;
#970 = ORIENTED_EDGE ( 'NONE', *, *, #1198, .T. ) ;
#971 = DIRECTION ( 'NONE',  ( -1.000000000000000000, -0.0000000000000000000, -0.0000000000000000000 ) ) ;
#972 = AXIS2_PLACEMENT_3D ( 'NONE', #297, #690, #1173 ) ;
#973 = SURFACE_SIDE_STYLE ('',( #1172 ) ) ;
#974 = AXIS2_PLACEMENT_3D ( 'NONE', #1215, #741, #253 ) ;
#975 = CIRCLE ( 'NONE', #107, 0.05000000000000002359 ) ;
#976 = PRESENTATION_STYLE_ASSIGNMENT (( #403 ) ) ;
#977 = ORIENTED_EDGE ( 'NONE', *, *, #659, .T. ) ;
#978 = ORIENTED_EDGE ( 'NONE', *, *, #705, .T. ) ;
#979 = FILL_AREA_STYLE_COLOUR ( '', #997 ) ;
#980 = EDGE_LOOP ( 'NONE', ( #1236, #838, #564, #885, #500, #576, #348, #823 ) ) ;
#981 = EDGE_CURVE ( 'NONE', #656, #293, #694, .T. ) ;
#982 = AXIS2_PLACEMENT_3D ( 'NONE', #568, #1054, #70 ) ;
#983 = EDGE_CURVE ( 'NONE', #1096, #516, #240, .T. ) ;
#984 = CYLINDRICAL_SURFACE ( 'NONE', #1085, 0.05000000000000002359 ) ;
#985 = APPLICATION_CONTEXT ( 'automotive_design' ) ;
#986 = CYLINDRICAL_SURFACE ( 'NONE', #1258, 0.05000000000000002359 ) ;
#987 = CYLINDRICAL_SURFACE ( 'NONE', #1098, 0.04999999999999991257 ) ;
#988 = ORIENTED_EDGE ( 'NONE', *, *, #506, .T. ) ;
#989 = VERTEX_POINT ( 'NONE', #539 ) ;
#990 = VERTEX_POINT ( 'NONE', #160 ) ;
#991 = CARTESIAN_POINT ( 'NONE',  ( -0.9499999999999997335, 0.05000000000000000278, 0.5749999999999996225 ) ) ;
#992 = DIRECTION ( 'NONE',  ( 0.0000000000000000000, -0.0000000000000000000, 1.000000000000000000 ) ) ;
#993 = DIRECTION ( 'NONE',  ( 0.0000000000000000000, 1.000000000000000000, 0.0000000000000000000 ) ) ;
#994 = CARTESIAN_POINT ( 'NONE',  ( 500000.0000000000582, 1.300000000000000266, 0.5749999999566315356 ) ) ;
#995 = CARTESIAN_POINT ( 'NONE',  ( 500000.0000000000582, 0.04999999999999991257, 0.5749999999566315356 ) ) ;
#996 = LINE ( 'NONE', #799, #965 ) ;
#997 = COLOUR_RGB ( '',0.7921568627450980005, 0.8196078431372548767, 0.9333333333333333481 ) ;
#998 = CARTESIAN_POINT ( 'NONE',  ( -0.9999999999999997780, 1.300000000000000266, 0.5749999999999996225 ) ) ;
#999 = EDGE_CURVE ( 'NONE', #258, #1004, #1122, .T. ) ;
#1000 = VECTOR ( 'NONE', #1117, 1000.000000000000000 ) ;
#1001 = VECTOR ( 'NONE', #132, 1000.000000000000000 ) ;
#1002 = SURFACE_STYLE_FILL_AREA ( #110 ) ;
#1003 = SURFACE_SIDE_STYLE ('',( #1002 ) ) ;
#1004 = VERTEX_POINT ( 'NONE', #1029 ) ;
#1005 = DIRECTION ( 'NONE',  ( 0.0000000000000000000, 0.0000000000000000000, -1.000000000000000000 ) ) ;
#1006 = VERTEX_POINT ( 'NONE', #338 ) ;
#1007 = EDGE_LOOP ( 'NONE', ( #604, #67, #404, #1238 ) ) ;
#1008 = CARTESIAN_POINT ( 'NONE',  ( -0.9499999999999999556, 0.05000000000000000278, -0.5750000000000000666 ) ) ;
#1009 = ADVANCED_FACE ( 'NONE', ( #26 ), #650, .T. ) ;
#1010 = DIRECTION ( 'NONE',  ( -1.000000000000000000, -0.0000000000000000000, 8.673617379884037937E-17 ) ) ;
#1011 = DIRECTION ( 'NONE',  ( -1.000000000000000000, -0.0000000000000000000, -0.0000000000000000000 ) ) ;
#1012 = AXIS2_PLACEMENT_3D ( 'NONE', #761, #58, #851 ) ;
#1013 = DIRECTION ( 'NONE',  ( -1.000000000000000000, 0.0000000000000000000, 0.0000000000000000000 ) ) ;
#1014 =( GEOMETRIC_REPRESENTATION_CONTEXT ( 3 ) GLOBAL_UNCERTAINTY_ASSIGNED_CONTEXT ( ( #1023 ) ) GLOBAL_UNIT_ASSIGNED_CONTEXT ( ( #1178, #193, #784 ) ) REPRESENTATION_CONTEXT ( 'NONE', 'WORKASPACE' ) );
#1015 = CARTESIAN_POINT ( 'NONE',  ( 0.9999999999999997780, 1.350000000000000089, 0.5749999999999995115 ) ) ;
#1016 = DIRECTION ( 'NONE',  ( -1.000000000000000000, -0.0000000000000000000, 8.673617379884037937E-17 ) ) ;
#1017 = CIRCLE ( 'NONE', #184, 0.05000000000000002359 ) ;
#1018 = COLOUR_RGB ( '',0.4862745098039215619, 0.2352941176470588203, 0.01568627450980392135 ) ;
#1019 = DIRECTION ( 'NONE',  ( 0.0000000000000000000, -1.000000000000000000, 0.0000000000000000000 ) ) ;
#1020 = FACE_OUTER_BOUND ( 'NONE', #510, .T. ) ;
#1021 = EDGE_CURVE ( 'NONE', #990, #365, #667, .T. ) ;
#1022 = AXIS2_PLACEMENT_3D ( 'NONE', #1245, #565, #278 ) ;
#1023 = UNCERTAINTY_MEASURE_WITH_UNIT (LENGTH_MEASURE( 1.000000000000000082E-05 ), #1178, 'distance_accuracy_value', 'NONE');
#1024 = ORIENTED_EDGE ( 'NONE', *, *, #1056, .T. ) ;
#1025 = PLANE ( 'NONE',  #491 ) ;
#1026 = ORIENTED_EDGE ( 'NONE', *, *, #1104, .T. ) ;
#1027 = PLANE ( 'NONE',  #685 ) ;
#1028 = EDGE_LOOP ( 'NONE', ( #1240, #651, #601, #1083, #1109, #320, #654, #260 ) ) ;
#1029 = CARTESIAN_POINT ( 'NONE',  ( 0.5500000000893123797, 0.01666666666666666644, -0.5749999999999999556 ) ) ;
#1030 = DIRECTION ( 'NONE',  ( 8.673617379884037937E-17, -0.0000000000000000000, 1.000000000000000000 ) ) ;
#1031 = EDGE_CURVE ( 'NONE', #1057, #550, #60, .T. ) ;
#1032 = DIRECTION ( 'NONE',  ( 0.0000000000000000000, 0.0000000000000000000, 1.000000000000000000 ) ) ;
#1033 = DIRECTION ( 'NONE',  ( 0.0000000000000000000, -1.000000000000000000, 0.0000000000000000000 ) ) ;
#1034 = CARTESIAN_POINT ( 'NONE',  ( 0.9999999999999997780, 0.04999999999999991257, 0.5749999999999996225 ) ) ;
#1035 = DIRECTION ( 'NONE',  ( 1.000000000000000000, -0.0000000000000000000, 0.0000000000000000000 ) ) ;
#1036 = DIRECTION ( 'NONE',  ( -0.0000000000000000000, 1.000000000000000000, -0.0000000000000000000 ) ) ;
#1037 = FACE_OUTER_BOUND ( 'NONE', #393, .T. ) ;
#1038 = COLOUR_RGB ( '',0.7921568627450980005, 0.8196078431372548767, 0.9333333333333333481 ) ;
#1039 = DIRECTION ( 'NONE',  ( 1.000000000000000000, -0.0000000000000000000, 0.0000000000000000000 ) ) ;
#1040 = ORIENTED_EDGE ( 'NONE', *, *, #762, .F. ) ;
#1041 = AXIS2_PLACEMENT_3D ( 'NONE', #153, #1154, #660 ) ;
#1042 = ORIENTED_EDGE ( 'NONE', *, *, #782, .F. ) ;
#1043 = CARTESIAN_POINT ( 'NONE',  ( -0.9999999999999997780, 1.300000000000000266, 0.6249999999999996669 ) ) ;
#1044 = CARTESIAN_POINT ( 'NONE',  ( 0.9499999999999998446, 1.300000000000000266, 1.647987302177967233E-16 ) ) ;
#1045 = DIRECTION ( 'NONE',  ( 1.000000000000000000, 0.0000000000000000000, 0.0000000000000000000 ) ) ;
#1046 = DIRECTION ( 'NONE',  ( 1.000000000000000000, 0.0000000000000000000, 8.673617379884039170E-17 ) ) ;
#1047 = EDGE_CURVE ( 'NONE', #990, #127, #712, .T. ) ;
#1048 = AXIS2_PLACEMENT_3D ( 'NONE', #1049, #767, #1140 ) ;
#1049 = CARTESIAN_POINT ( 'NONE',  ( -0.5499999999999998224, 0.04999999999999991257, -0.5750000000000000666 ) ) ;
#1050 = CARTESIAN_POINT ( 'NONE',  ( 1.000000000000000000, 1.350000000000000089, -0.5750000000000000666 ) ) ;
#1051 = CIRCLE ( 'NONE', #52, 0.05000000000000002359 ) ;
#1052 = CYLINDRICAL_SURFACE ( 'NONE', #553, 0.05000000000000002359 ) ;
#1053 = CIRCLE ( 'NONE', #881, 0.05000000000000002359 ) ;
#1054 = DIRECTION ( 'NONE',  ( 0.0000000000000000000, -0.0000000000000000000, 1.000000000000000000 ) ) ;
#1055 = VERTEX_POINT ( 'NONE', #175 ) ;
#1056 = EDGE_CURVE ( 'NONE', #258, #989, #432, .T. ) ;
#1057 = VERTEX_POINT ( 'NONE', #167 ) ;
#1058 = DIRECTION ( 'NONE',  ( 0.0000000000000000000, 1.000000000000000000, 0.0000000000000000000 ) ) ;
#1059 = ORIENTED_EDGE ( 'NONE', *, *, #943, .T. ) ;
#1060 = AXIS2_PLACEMENT_3D ( 'NONE', #865, #870, #555 ) ;
#1061 = CARTESIAN_POINT ( 'NONE',  ( 0.9499999999999999556, 1.300000000000000266, -0.5750000000000000666 ) ) ;
#1062 = AXIS2_PLACEMENT_3D ( 'NONE', #353, #551, #256 ) ;
#1063 = AXIS2_PLACEMENT_3D ( 'NONE', #1064, #2, #992 ) ;
#1064 = CARTESIAN_POINT ( 'NONE',  ( 0.0000000000000000000, 0.0000000000000000000, 0.0000000000000000000 ) ) ;
#1065 = COLOUR_RGB ( '',0.7921568627450980005, 0.8196078431372548767, 0.9333333333333333481 ) ;
#1066 = CIRCLE ( 'NONE', #1041, 0.05000000000000002359 ) ;
#1067 = ORIENTED_EDGE ( 'NONE', *, *, #788, .T. ) ;
#1068 = ORIENTED_EDGE ( 'NONE', *, *, #166, .T. ) ;
#1069 = ORIENTED_EDGE ( 'NONE', *, *, #126, .F. ) ;
#1070 = EDGE_CURVE ( 'NONE', #563, #932, #174, .T. ) ;
#1071 = SURFACE_STYLE_USAGE ( .BOTH. , #973 ) ;
#1072 = DIRECTION ( 'NONE',  ( -0.0000000000000000000, -0.0000000000000000000, -1.000000000000000000 ) ) ;
#1073 = EDGE_CURVE ( 'NONE', #599, #769, #385, .T. ) ;
#1074 = FILL_AREA_STYLE ('',( #979 ) ) ;
#1075 = AXIS2_PLACEMENT_3D ( 'NONE', #20, #429, #523 ) ;
#1076 = STYLED_ITEM ( 'NONE', ( #764 ), #1251 ) ;
#1077 = LINE ( 'NONE', #1248, #25 ) ;
#1078 = VECTOR ( 'NONE', #679, 1000.000000000000000 ) ;
#1079 = FACE_OUTER_BOUND ( 'NONE', #206, .T. ) ;
#1080 = VERTEX_POINT ( 'NONE', #655 ) ;
#1081 = EDGE_LOOP ( 'NONE', ( #316, #109, #246, #209 ) ) ;
#1082 = DIRECTION ( 'NONE',  ( 0.0000000000000000000, 0.0000000000000000000, 1.000000000000000000 ) ) ;
#1083 = ORIENTED_EDGE ( 'NONE', *, *, #425, .T. ) ;
#1084 = EDGE_CURVE ( 'NONE', #391, #106, #356, .T. ) ;
#1085 = AXIS2_PLACEMENT_3D ( 'NONE', #56, #464, #757 ) ;
#1086 = SURFACE_SIDE_STYLE ('',( #646 ) ) ;
#1087 = DIRECTION ( 'NONE',  ( 0.0000000000000000000, 0.0000000000000000000, 1.000000000000000000 ) ) ;
#1088 = EDGE_CURVE ( 'NONE', #937, #770, #138, .T. ) ;
#1089 = CIRCLE ( 'NONE', #1278, 0.05000000000000002359 ) ;
#1090 = VECTOR ( 'NONE', #1167, 1000.000000000000000 ) ;
#1091 = FACE_OUTER_BOUND ( 'NONE', #585, .T. ) ;
#1092 = VECTOR ( 'NONE', #710, 1000.000000000000000 ) ;
#1093 = DIRECTION ( 'NONE',  ( 1.734723475976807834E-16, -0.0000000000000000000, 1.000000000000000000 ) ) ;
#1094 = EDGE_LOOP ( 'NONE', ( #803, #309, #1135, #389 ) ) ;
#1095 = ORIENTED_EDGE ( 'NONE', *, *, #961, .F. ) ;
#1096 = VERTEX_POINT ( 'NONE', #664 ) ;
#1097 = ADVANCED_FACE ( 'NONE', ( #452 ), #339, .T. ) ;
#1098 = AXIS2_PLACEMENT_3D ( 'NONE', #1044, #366, #448 ) ;
#1099 = DIRECTION ( 'NONE',  ( 0.0000000000000000000, 0.0000000000000000000, 1.000000000000000000 ) ) ;
#1100 = DIRECTION ( 'NONE',  ( 1.000000000000000000, 0.0000000000000000000, 0.0000000000000000000 ) ) ;
#1101 = ADVANCED_FACE ( 'NONE', ( #864 ), #595, .T. ) ;
#1102 = DIRECTION ( 'NONE',  ( 0.0000000000000000000, 0.0000000000000000000, -1.000000000000000000 ) ) ;
#1103 = CARTESIAN_POINT ( 'NONE',  ( -0.5499999999999998224, 1.333333333333333481, 0.5749999999999994005 ) ) ;
#1104 = EDGE_CURVE ( 'NONE', #854, #932, #1250, .T. ) ;
#1105 = AXIS2_PLACEMENT_3D ( 'NONE', #665, #959, #962 ) ;
#1106 = LINE ( 'NONE', #846, #466 ) ;
#1107 = FACE_OUTER_BOUND ( 'NONE', #575, .T. ) ;
#1108 = CARTESIAN_POINT ( 'NONE',  ( -0.9499999999999997335, 1.300000000000000266, 0.5749999999999996225 ) ) ;
#1109 = ORIENTED_EDGE ( 'NONE', *, *, #1143, .F. ) ;
#1110 = ORIENTED_EDGE ( 'NONE', *, *, #196, .F. ) ;
#1111 = ORIENTED_EDGE ( 'NONE', *, *, #454, .F. ) ;
#1112 = DIRECTION ( 'NONE',  ( -1.000000000000000000, 0.0000000000000000000, 0.0000000000000000000 ) ) ;
#1113 = EDGE_CURVE ( 'NONE', #1004, #439, #201, .T. ) ;
#1114 = ORIENTED_EDGE ( 'NONE', *, *, #1021, .F. ) ;
#1115 = CARTESIAN_POINT ( 'NONE',  ( -0.5499999999999998224, 0.01666666666666666644, 0.5749999999999995115 ) ) ;
#1116 = CARTESIAN_POINT ( 'NONE',  ( 1.000000000000000000, 1.300000000000000266, -0.6250000000000001110 ) ) ;
#1117 = DIRECTION ( 'NONE',  ( 1.734723475976807834E-16, -0.0000000000000000000, 1.000000000000000000 ) ) ;
#1118 = DIRECTION ( 'NONE',  ( 1.000000000000000000, 0.0000000000000000000, -1.734723475976807834E-16 ) ) ;
#1119 = DIRECTION ( 'NONE',  ( 1.734723475976807834E-16, -0.0000000000000000000, -1.000000000000000000 ) ) ;
#1120 = ADVANCED_FACE ( 'NONE', ( #880 ), #1142, .T. ) ;
#1121 = VECTOR ( 'NONE', #283, 1000.000000000000000 ) ;
#1122 = LINE ( 'NONE', #449, #911 ) ;
#1123 = CARTESIAN_POINT ( 'NONE',  ( 0.5500000000893123797, 1.300000000000000266, -0.6083333333333333925 ) ) ;
#1124 = FACE_OUTER_BOUND ( 'NONE', #1277, .T. ) ;
#1125 = SURFACE_STYLE_FILL_AREA ( #105 ) ;
#1126 = CARTESIAN_POINT ( 'NONE',  ( 0.5499999999756255420, 1.300000000000000266, -0.5750000000000000666 ) ) ;
#1127 = AXIS2_PLACEMENT_3D ( 'NONE', #1008, #112, #108 ) ;
#1128 = AXIS2_PLACEMENT_3D ( 'NONE', #752, #760, #156 ) ;
#1129 = ORIENTED_EDGE ( 'NONE', *, *, #406, .F. ) ;
#1130 = PLANE ( 'NONE',  #610 ) ;
#1131 = ORIENTED_EDGE ( 'NONE', *, *, #115, .T. ) ;
#1132 = ORIENTED_EDGE ( 'NONE', *, *, #855, .T. ) ;
#1133 = DIRECTION ( 'NONE',  ( 0.0000000000000000000, 0.0000000000000000000, -1.000000000000000000 ) ) ;
#1134 = UNCERTAINTY_MEASURE_WITH_UNIT (LENGTH_MEASURE( 1.000000000000000082E-05 ), #593, 'distance_accuracy_value', 'NONE');
#1135 = ORIENTED_EDGE ( 'NONE', *, *, #1209, .T. ) ;
#1136 = CARTESIAN_POINT ( 'NONE',  ( 0.5500000000893123797, 0.01666666666666662133, 0.5749999999999995115 ) ) ;
#1137 = EDGE_CURVE ( 'NONE', #682, #869, #1185, .T. ) ;
#1138 = CARTESIAN_POINT ( 'NONE',  ( 0.5499999999999998224, 0.05000000000000034972, 0.6249999999999996669 ) ) ;
#1139 = DIRECTION ( 'NONE',  ( 1.000000000000000000, 0.0000000000000000000, 8.673617379884039170E-17 ) ) ;
#1140 = DIRECTION ( 'NONE',  ( 0.0000000000000000000, 0.0000000000000000000, -1.000000000000000000 ) ) ;
#1141 = FACE_OUTER_BOUND ( 'NONE', #868, .T. ) ;
#1142 = CYLINDRICAL_SURFACE ( 'NONE', #197, 0.05000000000000002359 ) ;
#1143 = EDGE_CURVE ( 'NONE', #937, #670, #558, .T. ) ;
#1144 = DIRECTION ( 'NONE',  ( -1.000000000000000000, 0.0000000000000000000, 0.0000000000000000000 ) ) ;
#1145 = ORIENTED_EDGE ( 'NONE', *, *, #800, .T. ) ;
#1146 = DIRECTION ( 'NONE',  ( -1.000000000000000000, -0.0000000000000000000, 8.673617379884037937E-17 ) ) ;
#1147 = ORIENTED_EDGE ( 'NONE', *, *, #809, .F. ) ;
#1148 = EDGE_CURVE ( 'NONE', #192, #361, #1158, .T. ) ;
#1149 = PRODUCT_DEFINITION_FORMATION_WITH_SPECIFIED_SOURCE ( 'ANY', '', #481, .NOT_KNOWN. ) ;
#1150 = ORIENTED_EDGE ( 'NONE', *, *, #754, .F. ) ;
#1151 = ORIENTED_EDGE ( 'NONE', *, *, #1270, .T. ) ;
#1152 = DIRECTION ( 'NONE',  ( -0.0000000000000000000, -1.000000000000000000, -0.0000000000000000000 ) ) ;
#1153 = CARTESIAN_POINT ( 'NONE',  ( -1.000000000000000000, 0.04999999999999991257, -0.6250000000000001110 ) ) ;
#1154 = DIRECTION ( 'NONE',  ( 0.0000000000000000000, 1.000000000000000000, 0.0000000000000000000 ) ) ;
#1155 = AXIS2_PLACEMENT_3D ( 'NONE', #66, #169, #50 ) ;
#1156 = MECHANICAL_DESIGN_GEOMETRIC_PRESENTATION_REPRESENTATION (  '', ( #1243 ), #92 ) ;
#1157 = LINE ( 'NONE', #1116, #594 ) ;
#1158 = LINE ( 'NONE', #462, #1090 ) ;
#1159 = CARTESIAN_POINT ( 'NONE',  ( 500000.0000000000582, 0.01666666666666662133, 0.5749999999566314246 ) ) ;
#1160 = VECTOR ( 'NONE', #814, 1000.000000000000000 ) ;
#1161 = VECTOR ( 'NONE', #11, 1000.000000000000000 ) ;
#1162 = ORIENTED_EDGE ( 'NONE', *, *, #480, .T. ) ;
#1163 = EDGE_CURVE ( 'NONE', #231, #1096, #272, .T. ) ;
#1164 = ORIENTED_EDGE ( 'NONE', *, *, #443, .F. ) ;
#1165 = ORIENTED_EDGE ( 'NONE', *, *, #233, .T. ) ;
#1166 = AXIS2_PLACEMENT_3D ( 'NONE', #765, #669, #475 ) ;
#1167 = DIRECTION ( 'NONE',  ( -1.734723475976807834E-16, 0.0000000000000000000, -1.000000000000000000 ) ) ;
#1168 = AXIS2_PLACEMENT_3D ( 'NONE', #991, #1207, #1087 ) ;
#1169 = DIRECTION ( 'NONE',  ( 0.0000000000000000000, -1.000000000000000000, 0.0000000000000000000 ) ) ;
#1170 = CYLINDRICAL_SURFACE ( 'NONE', #313, 0.03333333333333334675 ) ;
#1171 = APPLICATION_CONTEXT ( 'automotive_design' ) ;
#1172 = SURFACE_STYLE_FILL_AREA ( #195 ) ;
#1173 = DIRECTION ( 'NONE',  ( 1.000000000000000000, 0.0000000000000000000, -0.0000000000000000000 ) ) ;
#1174 = ORIENTED_EDGE ( 'NONE', *, *, #425, .F. ) ;
#1175 = VERTEX_POINT ( 'NONE', #97 ) ;
#1176 = EDGE_LOOP ( 'NONE', ( #290, #779, #1223, #1132 ) ) ;
#1177 = EDGE_CURVE ( 'NONE', #361, #456, #831, .T. ) ;
#1178 =( LENGTH_UNIT ( ) NAMED_UNIT ( * ) SI_UNIT ( .MILLI., .METRE. ) );
#1179 = ORIENTED_EDGE ( 'NONE', *, *, #890, .F. ) ;
#1180 = DIRECTION ( 'NONE',  ( 0.0000000000000000000, 0.0000000000000000000, 1.000000000000000000 ) ) ;
#1181 = CARTESIAN_POINT ( 'NONE',  ( 0.5499999999999999334, 1.350000000000000089, -0.6250000000000001110 ) ) ;
#1182 = DIRECTION ( 'NONE',  ( 0.0000000000000000000, 0.0000000000000000000, -1.000000000000000000 ) ) ;
#1183 = FILL_AREA_STYLE_COLOUR ( '', #1065 ) ;
#1184 = VECTOR ( 'NONE', #41, 1000.000000000000000 ) ;
#1185 = LINE ( 'NONE', #367, #927 ) ;
#1186 = CARTESIAN_POINT ( 'NONE',  ( -0.9499999999999997335, 1.300000000000000266, 0.5749999999999996225 ) ) ;
#1187 = FACE_OUTER_BOUND ( 'NONE', #1081, .T. ) ;
#1188 = ORIENTED_EDGE ( 'NONE', *, *, #1148, .T. ) ;
#1189 = ORIENTED_EDGE ( 'NONE', *, *, #981, .T. ) ;
#1190 = ORIENTED_EDGE ( 'NONE', *, *, #839, .T. ) ;
#1191 = VERTEX_POINT ( 'NONE', #574 ) ;
#1192 = AXIS2_PLACEMENT_3D ( 'NONE', #1126, #1139, #249 ) ;
#1193 = CARTESIAN_POINT ( 'NONE',  ( 0.5500000000893123797, 0.04999999999999991257, -0.6083333333333333925 ) ) ;
#1194 =( NAMED_UNIT ( * ) PLANE_ANGLE_UNIT ( ) SI_UNIT ( $, .RADIAN. ) );
#1195 = ADVANCED_FACE ( 'NONE', ( #89 ), #383, .F. ) ;
#1196 = CARTESIAN_POINT ( 'NONE',  ( 0.9499999999999999556, 0.04999999999999991257, -0.5750000000000000666 ) ) ;
#1197 = DIRECTION ( 'NONE',  ( -8.673617379884036705E-17, 0.0000000000000000000, -1.000000000000000000 ) ) ;
#1198 = EDGE_CURVE ( 'NONE', #192, #1227, #414, .T. ) ;
#1199 = ADVANCED_FACE ( 'NONE', ( #1107 ), #1052, .T. ) ;
#1200 = FACE_OUTER_BOUND ( 'NONE', #735, .T. ) ;
#1201 = CIRCLE ( 'NONE', #333, 0.05000000000000002359 ) ;
#1202 = CARTESIAN_POINT ( 'NONE',  ( 500000.0000000000582, 0.01666666666666666644, 0.5749999999566314246 ) ) ;
#1203 = CYLINDRICAL_SURFACE ( 'NONE', #61, 0.05000000000000002359 ) ;
#1204 = ORIENTED_EDGE ( 'NONE', *, *, #659, .F. ) ;
#1205 = DIRECTION ( 'NONE',  ( -1.000000000000000000, 0.0000000000000000000, 0.0000000000000000000 ) ) ;
#1206 = ORIENTED_EDGE ( 'NONE', *, *, #1056, .F. ) ;
#1207 = DIRECTION ( 'NONE',  ( -1.000000000000000000, 0.0000000000000000000, 0.0000000000000000000 ) ) ;
#1208 = VERTEX_POINT ( 'NONE', #883 ) ;
#1209 = EDGE_CURVE ( 'NONE', #854, #563, #1201, .T. ) ;
#1210 = PLANE ( 'NONE',  #363 ) ;
#1211 = ADVANCED_FACE ( 'NONE', ( #947 ), #1272, .F. ) ;
#1212 = AXIS2_PLACEMENT_3D ( 'NONE', #1108, #621, #244 ) ;
#1213 = DIRECTION ( 'NONE',  ( -1.000000000000000000, 0.0000000000000000000, 0.0000000000000000000 ) ) ;
#1214 = DIRECTION ( 'NONE',  ( 0.0000000000000000000, 0.0000000000000000000, -1.000000000000000000 ) ) ;
#1215 = CARTESIAN_POINT ( 'NONE',  ( 0.5499999999999999334, 0.04999999999999991257, -0.5750000000000000666 ) ) ;
#1216 = CARTESIAN_POINT ( 'NONE',  ( -1.000000000000000000, 0.04999999999999991257, -0.5750000000000000666 ) ) ;
#1217 = VECTOR ( 'NONE', #739, 1000.000000000000000 ) ;
#1218 = VECTOR ( 'NONE', #1146, 1000.000000000000000 ) ;
#1219 = CARTESIAN_POINT ( 'NONE',  ( 500000.0000000000582, 1.333333333333333481, 0.5749999999566313136 ) ) ;
#1220 = VECTOR ( 'NONE', #793, 1000.000000000000000 ) ;
#1221 = LINE ( 'NONE', #913, #1001 ) ;
#1222 = DIRECTION ( 'NONE',  ( 1.000000000000000000, 0.0000000000000000000, 8.673617379884039170E-17 ) ) ;
#1223 = ORIENTED_EDGE ( 'NONE', *, *, #323, .T. ) ;
#1224 = CARTESIAN_POINT ( 'NONE',  ( 0.5499999999999998224, 1.350000000000000089, 0.6249999999999996669 ) ) ;
#1225 = ORIENTED_EDGE ( 'NONE', *, *, #914, .T. ) ;
#1226 = ADVANCED_FACE ( 'NONE', ( #850 ), #158, .T. ) ;
#1227 = VERTEX_POINT ( 'NONE', #304 ) ;
#1228 = DIRECTION ( 'NONE',  ( -1.000000000000000000, -0.0000000000000000000, -0.0000000000000000000 ) ) ;
#1229 = EDGE_CURVE ( 'NONE', #771, #1208, #894, .T. ) ;
#1230 = SPHERICAL_SURFACE ( 'NONE', #634, 0.05000000000000000278 ) ;
#1231 = FACE_OUTER_BOUND ( 'NONE', #318, .T. ) ;
#1232 = LINE ( 'NONE', #409, #373 ) ;
#1233 = CARTESIAN_POINT ( 'NONE',  ( -0.5499999999999998224, 0.04999999999999991257, 0.5749999999999996225 ) ) ;
#1234 = AXIS2_PLACEMENT_3D ( 'NONE', #1034, #626, #832 ) ;
#1235 = ORIENTED_EDGE ( 'NONE', *, *, #788, .F. ) ;
#1236 = ORIENTED_EDGE ( 'NONE', *, *, #828, .F. ) ;
#1237 = CARTESIAN_POINT ( 'NONE',  ( -0.9499999999999997335, 1.300000000000000266, 0.6249999999999996669 ) ) ;
#1238 = ORIENTED_EDGE ( 'NONE', *, *, #542, .F. ) ;
#1239 = DIRECTION ( 'NONE',  ( 0.0000000000000000000, 0.0000000000000000000, 1.000000000000000000 ) ) ;
#1240 = ORIENTED_EDGE ( 'NONE', *, *, #774, .T. ) ;
#1241 = DIRECTION ( 'NONE',  ( 0.0000000000000000000, 1.000000000000000000, 0.0000000000000000000 ) ) ;
#1242 = EDGE_CURVE ( 'NONE', #656, #738, #964, .T. ) ;
#1243 = STYLED_ITEM ( 'NONE', ( #976 ), #733 ) ;
#1244 = CARTESIAN_POINT ( 'NONE',  ( -0.5499999999999998224, 1.333333333333333481, -0.5750000000000000666 ) ) ;
#1245 = CARTESIAN_POINT ( 'NONE',  ( 0.9499999999999999556, 0.04999999999999991257, -0.5750000000000000666 ) ) ;
#1246 = DIRECTION ( 'NONE',  ( 1.000000000000000000, 0.0000000000000000000, 0.0000000000000000000 ) ) ;
#1247 = DIRECTION ( 'NONE',  ( -1.000000000000000000, 0.0000000000000000000, 0.0000000000000000000 ) ) ;
#1248 = CARTESIAN_POINT ( 'NONE',  ( 0.9999999999999997780, 0.04999999999999991257, 0.6249999999999996669 ) ) ;
#1249 = VECTOR ( 'NONE', #941, 1000.000000000000000 ) ;
#1250 = CIRCLE ( 'NONE', #81, 0.05000000000000002359 ) ;
#1251 = MANIFOLD_SOLID_BREP ( 'Boss-Extrude2', #453 ) ;
#1252 = CARTESIAN_POINT ( 'NONE',  ( -0.9499999999999999556, 1.300000000000000266, -0.5750000000000000666 ) ) ;
#1253 = ORIENTED_EDGE ( 'NONE', *, *, #890, .T. ) ;
#1254 = PRODUCT_RELATED_PRODUCT_CATEGORY ( 'part', '', ( #481 ) ) ;
#1255 = VERTEX_POINT ( 'NONE', #296 ) ;
#1256 = EDGE_LOOP ( 'NONE', ( #512, #164, #791, #180 ) ) ;
#1257 = AXIS2_PLACEMENT_3D ( 'NONE', #994, #1016, #422 ) ;
#1258 = AXIS2_PLACEMENT_3D ( 'NONE', #455, #53, #1133 ) ;
#1259 = CARTESIAN_POINT ( 'NONE',  ( 500000.0000000000582, 0.01666666666666666644, -0.5750000000433680425 ) ) ;
#1260 = LINE ( 'NONE', #430, #508 ) ;
#1261 = CIRCLE ( 'NONE', #957, 0.05000000000000002359 ) ;
#1262 = LINE ( 'NONE', #317, #766 ) ;
#1263 = VECTOR ( 'NONE', #1005, 1000.000000000000000 ) ;
#1264 = EDGE_LOOP ( 'NONE', ( #1095, #968, #488, #886 ) ) ;
#1265 = EDGE_CURVE ( 'NONE', #748, #514, #218, .T. ) ;
#1266 = ORIENTED_EDGE ( 'NONE', *, *, #323, .F. ) ;
#1267 = CARTESIAN_POINT ( 'NONE',  ( 0.0000000000000000000, 1.300000000000000266, -0.5750000000000000666 ) ) ;
#1268 = EDGE_LOOP ( 'NONE', ( #281, #1026, #14 ) ) ;
#1269 = ORIENTED_EDGE ( 'NONE', *, *, #676, .T. ) ;
#1270 = EDGE_CURVE ( 'NONE', #1096, #1227, #1261, .T. ) ;
#1271 = AXIS2_PLACEMENT_3D ( 'NONE', #618, #795, #611 ) ;
#1272 = PLANE ( 'NONE',  #972 ) ;
#1273 = FACE_OUTER_BOUND ( 'NONE', #939, .T. ) ;
#1274 = CARTESIAN_POINT ( 'NONE',  ( -0.5499999999999999334, 1.350000000000000089, -0.6250000000000001110 ) ) ;
#1275 = FACE_OUTER_BOUND ( 'NONE', #734, .T. ) ;
#1276 = ORIENTED_EDGE ( 'NONE', *, *, #1265, .F. ) ;
#1277 = EDGE_LOOP ( 'NONE', ( #566, #840, #640, #222 ) ) ;
#1278 = AXIS2_PLACEMENT_3D ( 'NONE', #1196, #1213, #416 ) ;
#1279 = AXIS2_PLACEMENT_3D ( 'NONE', #1186, #503, #1082 ) ;
#1280 = ORIENTED_EDGE ( 'NONE', *, *, #1084, .T. ) ;
ENDSEC;
END-ISO-10303-21;
